font.ufo
<glyph name="exclam" format="2">
	<unicode hex="0021"/>
	<advance width="283"/>
	<outline>
		<contour>
			<point x="142" y="-11" type="curve" smooth="yes"/>
			<point x="176" y="-11"/>
			<point x="203" y="16"/>
			<point x="203" y="51" type="curve" smooth="yes"/>
			<point x="203" y="85"/>
			<point x="176" y="113"/>
			<point x="142" y="113" type="curve" smooth="yes"/>
			<point x="108" y="113"/>
			<point x="80" y="85"/>
			<point x="80" y="51" type="curve" smooth="yes"/>
			<point x="80" y="16"/>
			<point x="108" y="-11"/>
		</contour>
		<contour>
			<point x="142" y="685" type="curve" smooth="yes"/>
			<point x="107" y="685"/>
			<point x="86" y="667"/>
			<point x="86" y="623" type="curve" smooth="yes"/>
			<point x="86" y="586"/>
			<point x="98" y="491"/>
			<point x="112" y="352" type="curve" smooth="yes"/>
			<point x="125" y="214" type="line"/>
			<point x="158" y="214" type="line"/>
			<point x="172" y="352" type="line" smooth="yes"/>
			<point x="185" y="491"/>
			<point x="197" y="586"/>
			<point x="197" y="623" type="curve" smooth="yes"/>
			<point x="197" y="667"/>
			<point x="176" y="685"/>
		</contour>
	</outline>
</glyph>
<glyph name="quotesingle" format="2">
	<unicode hex="0027"/>
	<advance width="182"/>
	<outline>
		<contour>
			<point x="92" y="737" type="curve" smooth="yes"/>
			<point x="62" y="737"/>
			<point x="44" y="718"/>
			<point x="44" y="678" type="curve" smooth="yes"/>
			<point x="44" y="639"/>
			<point x="61" y="533"/>
			<point x="65" y="500" type="curve" smooth="yes"/>
			<point x="76" y="430" type="line"/>
			<point x="107" y="430" type="line"/>
			<point x="117" y="500" type="line" smooth="yes"/>
			<point x="122" y="533"/>
			<point x="139" y="639"/>
			<point x="139" y="678" type="curve" smooth="yes"/>
			<point x="139" y="718"/>
			<point x="121" y="737"/>
		</contour>
	</outline>
</glyph>
<glyph name="comma" format="2">
	<unicode hex="002C"/>
	<advance width="288"/>
	<outline>
		<contour>
			<point x="63" y="-167" type="line"/>
			<point x="141" y="-137"/>
			<point x="207" y="-68"/>
			<point x="207" y="27" type="curve" smooth="yes"/>
			<point x="207" y="49"/>
			<point x="206" y="72"/>
			<point x="199" y="93" type="curve"/>
			<point x="179" y="113"/>
			<point x="161" y="118"/>
			<point x="142" y="118" type="curve" smooth="yes"/>
			<point x="101" y="118"/>
			<point x="79" y="91"/>
			<point x="79" y="55" type="curve" smooth="yes"/>
			<point x="79" y="32"/>
			<point x="91" y="14"/>
			<point x="120" y="-3" type="curve" smooth="yes"/>
			<point x="170" y="-34" type="line"/>
			<point x="161" y="-1" type="line"/>
			<point x="145" y="-70"/>
			<point x="116" y="-102"/>
			<point x="49" y="-136" type="curve"/>
		</contour>
	</outline>
</glyph>
<glyph name="period" format="2">
	<unicode hex="002E"/>
	<advance width="288"/>
	<outline>
		<contour>
			<point x="144" y="-11" type="curve" smooth="yes"/>
			<point x="181" y="-11"/>
			<point x="210" y="18"/>
			<point x="210" y="55" type="curve" smooth="yes"/>
			<point x="210" y="93"/>
			<point x="181" y="122"/>
			<point x="144" y="122" type="curve" smooth="yes"/>
			<point x="107" y="122"/>
			<point x="78" y="93"/>
			<point x="78" y="55" type="curve" smooth="yes"/>
			<point x="78" y="18"/>
			<point x="107" y="-11"/>
		</contour>
	</outline>
</glyph>
<glyph name="B" format="2">
	<unicode hex="0042"/>
	<advance width="607"/>
	<outline>
		<contour>
			<point x="43" y="0" type="line"/>
			<point x="181" y="0" type="line"/>
			<point x="181" y="48" type="line"/>
			<point x="166" y="48" type="line"/>
			<point x="43" y="34" type="line"/>
		</contour>
		<contour>
			<point x="131" y="0" type="curve"/>
			<point x="225" y="0" type="line"/>
			<point x="222" y="97"/>
			<point x="222" y="208"/>
			<point x="222" y="322" type="curve" smooth="yes"/>
			<point x="222" y="359" type="line" smooth="yes"/>
			<point x="222" y="464"/>
			<point x="222" y="575"/>
			<point x="225" y="670" type="curve"/>
			<point x="131" y="670" type="line"/>
			<point x="134" y="573"/>
			<point x="134" y="462"/>
			<point x="134" y="359" type="curve" smooth="yes"/>
			<point x="134" y="312" type="line" smooth="yes"/>
			<point x="134" y="206"/>
			<point x="134" y="95"/>
		</contour>
		<contour>
			<point x="175" y="0" type="line"/>
			<point x="304" y="0" type="line" smooth="yes"/>
			<point x="490" y="0"/>
			<point x="565" y="91"/>
			<point x="565" y="182" type="curve" smooth="yes"/>
			<point x="565" y="271"/>
			<point x="497" y="343"/>
			<point x="337" y="352" type="curve"/>
			<point x="337" y="343" type="line"/>
			<point x="474" y="355"/>
			<point x="532" y="427"/>
			<point x="532" y="509" type="curve" smooth="yes"/>
			<point x="532" y="604"/>
			<point x="454" y="670"/>
			<point x="318" y="670" type="curve" smooth="yes"/>
			<point x="175" y="670" type="line"/>
			<point x="175" y="630" type="line"/>
			<point x="291" y="630" type="line" smooth="yes"/>
			<point x="391" y="630"/>
			<point x="445" y="595"/>
			<point x="445" y="502" type="curve" smooth="yes"/>
			<point x="445" y="408"/>
			<point x="391" y="366"/>
			<point x="272" y="366" type="curve" smooth="yes"/>
			<point x="175" y="366" type="line"/>
			<point x="175" y="326" type="line"/>
			<point x="275" y="326" type="line" smooth="yes"/>
			<point x="411" y="326"/>
			<point x="472" y="277"/>
			<point x="472" y="182" type="curve" smooth="yes"/>
			<point x="472" y="91"/>
			<point x="409" y="41"/>
			<point x="283" y="41" type="curve" smooth="yes"/>
			<point x="175" y="41" type="line"/>
		</contour>
		<contour>
			<point x="43" y="636" type="line"/>
			<point x="166" y="622" type="line"/>
			<point x="181" y="622" type="line"/>
			<point x="181" y="670" type="line"/>
			<point x="43" y="670" type="line"/>
		</contour>
	</outline>
	<anchor name="aboveUC" x="299" y="690"/>
	<anchor name="belowLC" x="317" y="-20"/>
</glyph>
<glyph name="C" format="2">
	<unicode hex="0043"/>
	<advance width="614"/>
	<outline>
		<contour>
			<point x="374" y="-15" type="curve" smooth="yes"/>
			<point x="442" y="-15"/>
			<point x="508" y="-2"/>
			<point x="568" y="33" type="curve"/>
			<point x="574" y="181" type="line"/>
			<point x="525" y="181" type="line"/>
			<point x="490" y="27" type="line"/>
			<point x="548" y="40" type="line"/>
			<point x="548" y="87" type="line"/>
			<point x="493" y="41"/>
			<point x="431" y="27"/>
			<point x="378" y="27" type="curve" smooth="yes"/>
			<point x="244" y="27"/>
			<point x="148" y="134"/>
			<point x="148" y="335" type="curve" smooth="yes"/>
			<point x="148" y="534"/>
			<point x="254" y="643"/>
			<point x="384" y="643" type="curve" smooth="yes"/>
			<point x="432" y="643"/>
			<point x="484" y="629"/>
			<point x="540" y="580" type="curve"/>
			<point x="539" y="630" type="line"/>
			<point x="481" y="643" type="line"/>
			<point x="516" y="490" type="line"/>
			<point x="565" y="490" type="line"/>
			<point x="559" y="638" type="line"/>
			<point x="495" y="677"/>
			<point x="426" y="685"/>
			<point x="374" y="685" type="curve" smooth="yes"/>
			<point x="187" y="685"/>
			<point x="47" y="540"/>
			<point x="47" y="335" type="curve" smooth="yes"/>
			<point x="47" y="126"/>
			<point x="180" y="-15"/>
		</contour>
	</outline>
	<anchor name="aboveUC" x="362" y="690"/>
	<anchor name="belowLC" x="368" y="-20"/>
	<anchor name="baseLC" x="370" y="0"/>
</glyph>
<glyph name="E" format="2">
	<unicode hex="0045"/>
	<advance width="586"/>
	<outline>
		<contour>
			<point x="43" y="0" type="line"/>
			<point x="181" y="0" type="line"/>
			<point x="181" y="48" type="line"/>
			<point x="166" y="48" type="line"/>
			<point x="43" y="34" type="line"/>
		</contour>
		<contour>
			<point x="131" y="0" type="curve"/>
			<point x="225" y="0" type="line"/>
			<point x="222" y="97"/>
			<point x="222" y="208"/>
			<point x="222" y="320" type="curve" smooth="yes"/>
			<point x="222" y="359" type="line" smooth="yes"/>
			<point x="222" y="464"/>
			<point x="222" y="575"/>
			<point x="225" y="670" type="curve"/>
			<point x="131" y="670" type="line"/>
			<point x="134" y="573"/>
			<point x="134" y="462"/>
			<point x="134" y="359" type="curve" smooth="yes"/>
			<point x="134" y="312" type="line" smooth="yes"/>
			<point x="134" y="206"/>
			<point x="134" y="95"/>
		</contour>
		<contour>
			<point x="177" y="0" type="line"/>
			<point x="541" y="0" type="line"/>
			<point x="550" y="181" type="line"/>
			<point x="504" y="181" type="line"/>
			<point x="468" y="18" type="line"/>
			<point x="503" y="43" type="line"/>
			<point x="177" y="43" type="line"/>
		</contour>
		<contour>
			<point x="177" y="321" type="line"/>
			<point x="391" y="321" type="line"/>
			<point x="391" y="362" type="line"/>
			<point x="177" y="362" type="line"/>
		</contour>
		<contour>
			<point x="383" y="226" type="line"/>
			<point x="421" y="226" type="line"/>
			<point x="421" y="458" type="line"/>
			<point x="383" y="458" type="line"/>
			<point x="364" y="354" type="line"/>
			<point x="364" y="334" type="line"/>
		</contour>
		<contour>
			<point x="43" y="636" type="line"/>
			<point x="166" y="622" type="line"/>
			<point x="181" y="622" type="line"/>
			<point x="181" y="670" type="line"/>
			<point x="43" y="670" type="line"/>
		</contour>
		<contour>
			<point x="485" y="492" type="line"/>
			<point x="531" y="492" type="line"/>
			<point x="522" y="670" type="line"/>
			<point x="177" y="670" type="line"/>
			<point x="177" y="627" type="line"/>
			<point x="485" y="627" type="line"/>
			<point x="449" y="652" type="line"/>
		</contour>
	</outline>
	<anchor name="aboveUC" x="320" y="690"/>
	<anchor name="belowLC" x="323" y="-20"/>
	<anchor name="ogonek" x="458" y="0"/>
</glyph>
<glyph name="J" format="2">
	<unicode hex="004A"/>
	<advance width="361"/>
	<outline>
		<contour>
			<point x="66" y="-132" type="curve" smooth="yes"/>
			<point x="111" y="-132"/>
			<point x="147" y="-115"/>
			<point x="181" y="-73" type="curve" smooth="yes"/>
			<point x="227" y="-17"/>
			<point x="235" y="43"/>
			<point x="235" y="219" type="curve" smooth="yes"/>
			<point x="235" y="360" type="line" smooth="yes"/>
			<point x="235" y="465"/>
			<point x="235" y="569"/>
			<point x="238" y="670" type="curve"/>
			<point x="146" y="670" type="line"/>
			<point x="151" y="260"/>
			<point x="153" y="224"/>
			<point x="153" y="129" type="curve" smooth="yes"/>
			<point x="153" y="-6"/>
			<point x="146" y="-52"/>
			<point x="119" y="-96" type="curve"/>
			<point x="119" y="-101" type="line"/>
			<point x="141" y="-101" type="line"/>
			<point x="141" y="-92" type="line"/>
			<point x="109" y="-67" type="line" smooth="yes"/>
			<point x="84" y="-47"/>
			<point x="65" y="-39"/>
			<point x="39" y="-39" type="curve" smooth="yes"/>
			<point x="10" y="-39"/>
			<point x="-12" y="-52"/>
			<point x="-17" y="-85" type="curve"/>
			<point x="-9" y="-120"/>
			<point x="27" y="-132"/>
		</contour>
		<contour>
			<point x="45" y="636" type="line"/>
			<point x="179" y="622" type="line"/>
			<point x="202" y="622" type="line"/>
			<point x="326" y="636" type="line"/>
			<point x="326" y="670" type="line"/>
			<point x="45" y="670" type="line"/>
		</contour>
	</outline>
	<anchor name="aboveUC" x="188" y="690"/>
	<anchor name="belowLC" x="137" y="-142"/>
</glyph>
<glyph name="P" format="2">
	<unicode hex="0050"/>
	<advance width="568"/>
	<outline>
		<contour>
			<point x="43" y="0" type="line"/>
			<point x="317" y="0" type="line"/>
			<point x="317" y="34" type="line"/>
			<point x="191" y="48" type="line"/>
			<point x="166" y="48" type="line"/>
			<point x="43" y="34" type="line"/>
		</contour>
		<contour>
			<point x="131" y="0" type="curve"/>
			<point x="225" y="0" type="line"/>
			<point x="222" y="97"/>
			<point x="222" y="201"/>
			<point x="222" y="303" type="curve" smooth="yes"/>
			<point x="222" y="359" type="line" smooth="yes"/>
			<point x="222" y="464"/>
			<point x="222" y="575"/>
			<point x="225" y="670" type="curve"/>
			<point x="131" y="670" type="line"/>
			<point x="134" y="573"/>
			<point x="134" y="462"/>
			<point x="134" y="359" type="curve" smooth="yes"/>
			<point x="134" y="312" type="line" smooth="yes"/>
			<point x="134" y="206"/>
			<point x="134" y="95"/>
		</contour>
		<contour>
			<point x="175" y="270" type="line"/>
			<point x="274" y="270" type="line" smooth="yes"/>
			<point x="471" y="270"/>
			<point x="545" y="364"/>
			<point x="545" y="474" type="curve" smooth="yes"/>
			<point x="545" y="589"/>
			<point x="463" y="670"/>
			<point x="301" y="670" type="curve" smooth="yes"/>
			<point x="175" y="670" type="line"/>
			<point x="175" y="630" type="line"/>
			<point x="283" y="630" type="line" smooth="yes"/>
			<point x="401" y="630"/>
			<point x="453" y="572"/>
			<point x="453" y="474" type="curve" smooth="yes"/>
			<point x="453" y="379"/>
			<point x="407" y="311"/>
			<point x="287" y="311" type="curve" smooth="yes"/>
			<point x="175" y="311" type="line"/>
		</contour>
		<contour>
			<point x="43" y="636" type="line"/>
			<point x="166" y="622" type="line"/>
			<point x="182" y="622" type="line"/>
			<point x="182" y="670" type="line"/>
			<point x="43" y="670" type="line"/>
		</contour>
	</outline>
	<anchor name="aboveUC" x="288" y="690"/>
	<anchor name="belowLC" x="177" y="-20"/>
</glyph>
<glyph name="T" format="2">
	<unicode hex="0054"/>
	<advance width="594"/>
	<outline>
		<contour>
			<point x="152" y="0" type="line"/>
			<point x="442" y="0" type="line"/>
			<point x="442" y="34" type="line"/>
			<point x="309" y="48" type="line"/>
			<point x="285" y="48" type="line"/>
			<point x="152" y="34" type="line"/>
		</contour>
		<contour>
			<point x="250" y="0" type="curve"/>
			<point x="344" y="0" type="line"/>
			<point x="341" y="97"/>
			<point x="341" y="208"/>
			<point x="341" y="312" type="curve" smooth="yes"/>
			<point x="341" y="359" type="line" smooth="yes"/>
			<point x="341" y="464"/>
			<point x="341" y="575"/>
			<point x="344" y="670" type="curve"/>
			<point x="250" y="670" type="line"/>
			<point x="253" y="573"/>
			<point x="253" y="462"/>
			<point x="253" y="359" type="curve" smooth="yes"/>
			<point x="253" y="312" type="line" smooth="yes"/>
			<point x="253" y="206"/>
			<point x="253" y="95"/>
		</contour>
		<contour>
			<point x="22" y="489" type="line"/>
			<point x="68" y="489" type="line"/>
			<point x="108" y="667" type="line"/>
			<point x="64" y="627" type="line"/>
			<point x="530" y="627" type="line"/>
			<point x="486" y="667" type="line"/>
			<point x="526" y="489" type="line"/>
			<point x="572" y="489" type="line"/>
			<point x="563" y="670" type="line"/>
			<point x="31" y="670" type="line"/>
		</contour>
	</outline>
	<anchor name="aboveUC" x="297" y="690"/>
	<anchor name="belowLC" x="297" y="-20"/>
	<anchor name="baseLC" x="297" y="0"/>
</glyph>
<glyph name="U" format="2">
	<unicode hex="0055"/>
	<advance width="709"/>
	<outline>
		<contour>
			<point x="359" y="-15" type="curve" smooth="yes"/>
			<point x="492" y="-15"/>
			<point x="590" y="60"/>
			<point x="590" y="265" type="curve" smooth="yes"/>
			<point x="590" y="670" type="line"/>
			<point x="546" y="670" type="line"/>
			<point x="546" y="284" type="line" smooth="yes"/>
			<point x="546" y="109"/>
			<point x="485" y="48"/>
			<point x="374" y="48" type="curve" smooth="yes"/>
			<point x="274" y="48"/>
			<point x="209" y="103"/>
			<point x="209" y="269" type="curve" smooth="yes"/>
			<point x="209" y="360" type="line" smooth="yes"/>
			<point x="209" y="464"/>
			<point x="209" y="575"/>
			<point x="212" y="670" type="curve"/>
			<point x="118" y="670" type="line"/>
			<point x="121" y="573"/>
			<point x="121" y="463"/>
			<point x="121" y="360" type="curve" smooth="yes"/>
			<point x="121" y="244" type="line" smooth="yes"/>
			<point x="121" y="61"/>
			<point x="219" y="-15"/>
		</contour>
		<contour>
			<point x="39" y="636" type="line"/>
			<point x="160" y="622" type="line"/>
			<point x="184" y="622" type="line"/>
			<point x="307" y="636" type="line"/>
			<point x="307" y="670" type="line"/>
			<point x="39" y="670" type="line"/>
		</contour>
		<contour>
			<point x="449" y="636" type="line"/>
			<point x="554" y="623" type="line"/>
			<point x="572" y="623" type="line"/>
			<point x="673" y="636" type="line"/>
			<point x="673" y="670" type="line"/>
			<point x="449" y="670" type="line"/>
		</contour>
	</outline>
	<anchor name="aboveUC" x="375" y="690"/>
	<anchor name="belowLC" x="358" y="-20"/>
	<anchor name="hornLC" x="575" y="587"/>
	<anchor name="ogonek" x="440" y="0"/>
</glyph>
<glyph name="Y" format="2">
	<unicode hex="0059"/>
	<advance width="622"/>
	<outline>
		<contour>
			<point x="167" y="0" type="line"/>
			<point x="458" y="0" type="line"/>
			<point x="458" y="34" type="line"/>
			<point x="324" y="48" type="line"/>
			<point x="300" y="48" type="line"/>
			<point x="167" y="34" type="line"/>
		</contour>
		<contour>
			<point x="265" y="0" type="curve"/>
			<point x="359" y="0" type="line"/>
			<point x="356" y="93"/>
			<point x="356" y="178"/>
			<point x="356" y="299" type="curve"/>
			<point x="268" y="299" type="line"/>
			<point x="268" y="178"/>
			<point x="268" y="92"/>
		</contour>
		<contour>
			<point x="289" y="220" type="line"/>
			<point x="335" y="220" type="line"/>
			<point x="550" y="670" type="line"/>
			<point x="504" y="670" type="line"/>
			<point x="329" y="296" type="line"/>
			<point x="322" y="283" type="line"/>
			<point x="349" y="283" type="line"/>
			<point x="169" y="670" type="line"/>
			<point x="69" y="670" type="line"/>
		</contour>
		<contour>
			<point x="14" y="636" type="line"/>
			<point x="134" y="622" type="line"/>
			<point x="158" y="622" type="line"/>
			<point x="282" y="636" type="line"/>
			<point x="282" y="670" type="line"/>
			<point x="14" y="670" type="line"/>
		</contour>
		<contour>
			<point x="394" y="636" type="line"/>
			<point x="498" y="622" type="line"/>
			<point x="518" y="622" type="line"/>
			<point x="612" y="636" type="line"/>
			<point x="612" y="670" type="line"/>
			<point x="394" y="670" type="line"/>
		</contour>
	</outline>
	<anchor name="aboveUC" x="331" y="690"/>
	<anchor name="belowLC" x="311" y="-20"/>
</glyph>
<glyph name="b" format="2">
	<unicode hex="0062"/>
	<advance width="567"/>
	<outline>
		<contour>
			<point x="32" y="0" type="line"/>
			<point x="179" y="-10" type="line"/>
			<point x="187" y="77" type="line"/>
			<point x="187" y="79" type="line"/>
			<point x="187" y="380" type="line"/>
			<point x="185" y="391" type="line"/>
			<point x="185" y="575" type="line"/>
			<point x="189" y="733" type="line"/>
			<point x="176" y="741" type="line"/>
			<point x="27" y="699" type="line"/>
			<point x="27" y="669" type="line"/>
			<point x="108" y="657" type="line"/>
			<point x="108" y="211" type="line" smooth="yes"/>
			<point x="108" y="164"/>
			<point x="107" y="95"/>
			<point x="105" y="42" type="curve"/>
			<point x="32" y="30" type="line"/>
		</contour>
		<contour>
			<point x="321" y="-13" type="curve" smooth="yes"/>
			<point x="434" y="-13"/>
			<point x="522" y="85"/>
			<point x="522" y="240" type="curve" smooth="yes"/>
			<point x="522" y="394"/>
			<point x="438" y="481"/>
			<point x="335" y="481" type="curve" smooth="yes"/>
			<point x="270" y="481"/>
			<point x="214" y="446"/>
			<point x="166" y="377" type="curve"/>
			<point x="150" y="377" type="line"/>
			<point x="159" y="340" type="line"/>
			<point x="220" y="407"/>
			<point x="267" y="430"/>
			<point x="309" y="430" type="curve" smooth="yes"/>
			<point x="384" y="430"/>
			<point x="438" y="363"/>
			<point x="438" y="233" type="curve" smooth="yes"/>
			<point x="438" y="102"/>
			<point x="378" y="39"/>
			<point x="306" y="39" type="curve" smooth="yes"/>
			<point x="257" y="39"/>
			<point x="209" y="63"/>
			<point x="158" y="127" type="curve"/>
			<point x="150" y="89" type="line"/>
			<point x="164" y="89" type="line"/>
			<point x="210" y="11"/>
			<point x="265" y="-13"/>
		</contour>
	</outline>
	<anchor name="aboveLC" x="149" y="741"/>
	<anchor name="belowLC" x="292" y="-20"/>
</glyph>
<glyph name="c" format="2">
	<unicode hex="0063"/>
	<advance width="471"/>
	<outline>
		<contour>
			<point x="267" y="-13" type="curve" smooth="yes"/>
			<point x="355" y="-13"/>
			<point x="411" y="27"/>
			<point x="448" y="100" type="curve"/>
			<point x="429" y="115" type="line"/>
			<point x="387" y="65"/>
			<point x="341" y="48"/>
			<point x="288" y="48" type="curve" smooth="yes"/>
			<point x="193" y="48"/>
			<point x="127" y="113"/>
			<point x="127" y="241" type="curve" smooth="yes"/>
			<point x="127" y="366"/>
			<point x="185" y="442"/>
			<point x="274" y="442" type="curve" smooth="yes"/>
			<point x="299" y="442"/>
			<point x="332" y="436"/>
			<point x="363" y="417" type="curve"/>
			<point x="321" y="451" type="line"/>
			<point x="344" y="366" type="line" smooth="yes"/>
			<point x="351" y="338"/>
			<point x="365" y="320"/>
			<point x="396" y="320" type="curve" smooth="yes"/>
			<point x="420" y="320"/>
			<point x="435" y="332"/>
			<point x="439" y="357" type="curve"/>
			<point x="426" y="428"/>
			<point x="358" y="481"/>
			<point x="271" y="481" type="curve" smooth="yes"/>
			<point x="153" y="481"/>
			<point x="44" y="389"/>
			<point x="44" y="229" type="curve" smooth="yes"/>
			<point x="44" y="77"/>
			<point x="130" y="-13"/>
		</contour>
	</outline>
	<anchor name="aboveLC" x="268" y="489"/>
	<anchor name="baseLC" x="266" y="0"/>
	<anchor name="belowLC" x="266" y="-20"/>
</glyph>
<glyph name="f" format="2">
	<unicode hex="0066"/>
	<advance width="344"/>
	<outline>
		<contour>
			<point x="36" y="0" type="line"/>
			<point x="287" y="0" type="line"/>
			<point x="287" y="30" type="line"/>
			<point x="168" y="48" type="line"/>
			<point x="143" y="48" type="line"/>
			<point x="36" y="30" type="line"/>
		</contour>
		<contour>
			<point x="111" y="0" type="curve"/>
			<point x="198" y="0" type="line"/>
			<point x="196" y="63"/>
			<point x="195" y="142"/>
			<point x="195" y="211" type="curve" smooth="yes"/>
			<point x="195" y="438" type="line"/>
			<point x="188" y="568"/>
			<point x="203" y="631"/>
			<point x="232" y="675" type="curve" smooth="yes"/>
			<point x="254" y="710"/>
			<point x="277" y="720"/>
			<point x="311" y="725" type="curve"/>
			<point x="311" y="730" type="line"/>
			<point x="246" y="730" type="line"/>
			<point x="246" y="722" type="line"/>
			<point x="290" y="688" type="line" smooth="yes"/>
			<point x="315" y="667"/>
			<point x="336" y="657"/>
			<point x="360" y="657" type="curve" smooth="yes"/>
			<point x="394" y="657"/>
			<point x="415" y="675"/>
			<point x="417" y="700" type="curve"/>
			<point x="408" y="736"/>
			<point x="369" y="751"/>
			<point x="326" y="751" type="curve" smooth="yes"/>
			<point x="281" y="751"/>
			<point x="238" y="739"/>
			<point x="200" y="702" type="curve" smooth="yes"/>
			<point x="143" y="648"/>
			<point x="124" y="583"/>
			<point x="116" y="466" type="curve"/>
			<point x="115" y="455" type="line"/>
			<point x="143" y="475" type="line"/>
			<point x="33" y="460" type="line"/>
			<point x="33" y="424" type="line"/>
			<point x="115" y="424" type="line"/>
			<point x="115" y="211" type="line" smooth="yes"/>
			<point x="115" y="142"/>
			<point x="114" y="63"/>
		</contour>
		<contour>
			<point x="153" y="424" type="line"/>
			<point x="327" y="424" type="line"/>
			<point x="327" y="469" type="line"/>
			<point x="153" y="469" type="line"/>
		</contour>
	</outline>
	<anchor name="aboveLC" x="292" y="741"/>
	<anchor name="belowLC" x="155" y="-20"/>
</glyph>
<glyph name="g" format="2">
	<unicode hex="0067"/>
	<advance width="507"/>
	<outline>
		<contour>
			<point x="226" y="-245" type="curve" smooth="yes"/>
			<point x="394" y="-245"/>
			<point x="479" y="-159"/>
			<point x="479" y="-70" type="curve" smooth="yes"/>
			<point x="479" y="11"/>
			<point x="427" y="55"/>
			<point x="320" y="55" type="curve" smooth="yes"/>
			<point x="200" y="55" type="line" smooth="yes"/>
			<point x="151" y="55"/>
			<point x="129" y="72"/>
			<point x="129" y="108" type="curve" smooth="yes"/>
			<point x="129" y="131"/>
			<point x="140" y="153"/>
			<point x="169" y="183" type="curve"/>
			<point x="141" y="198" type="line"/>
			<point x="141" y="189" type="line"/>
			<point x="85" y="139"/>
			<point x="63" y="105"/>
			<point x="63" y="70" type="curve" smooth="yes"/>
			<point x="63" y="26"/>
			<point x="91" y="-1"/>
			<point x="141" y="-10" type="curve"/>
			<point x="141" y="-13" type="line"/>
			<point x="157" y="-16"/>
			<point x="176" y="-17"/>
			<point x="192" y="-17" type="curve" smooth="yes"/>
			<point x="306" y="-17" type="line" smooth="yes"/>
			<point x="378" y="-17"/>
			<point x="407" y="-49"/>
			<point x="407" y="-96" type="curve" smooth="yes"/>
			<point x="407" y="-156"/>
			<point x="349" y="-206"/>
			<point x="240" y="-206" type="curve" smooth="yes"/>
			<point x="162" y="-206"/>
			<point x="110" y="-177"/>
			<point x="110" y="-109" type="curve" smooth="yes"/>
			<point x="110" y="-62"/>
			<point x="132" y="-34"/>
			<point x="169" y="-1" type="curve"/>
			<point x="164" y="5" type="line"/>
			<point x="69" y="-34"/>
			<point x="33" y="-73"/>
			<point x="33" y="-123" type="curve" smooth="yes"/>
			<point x="33" y="-195"/>
			<point x="92" y="-245"/>
		</contour>
		<contour>
			<point x="234" y="155" type="curve" smooth="yes"/>
			<point x="332" y="155"/>
			<point x="410" y="213"/>
			<point x="410" y="318" type="curve" smooth="yes"/>
			<point x="410" y="364"/>
			<point x="397" y="400"/>
			<point x="373" y="427" type="curve"/>
			<point x="371" y="429" type="line"/>
			<point x="339" y="464"/>
			<point x="291" y="481"/>
			<point x="234" y="481" type="curve" smooth="yes"/>
			<point x="136" y="481"/>
			<point x="58" y="423"/>
			<point x="58" y="318" type="curve" smooth="yes"/>
			<point x="58" y="209"/>
			<point x="135" y="155"/>
		</contour>
		<contour>
			<point x="232" y="189" type="curve" smooth="yes"/>
			<point x="171" y="189"/>
			<point x="136" y="238"/>
			<point x="136" y="317" type="curve" smooth="yes"/>
			<point x="136" y="395"/>
			<point x="174" y="446"/>
			<point x="235" y="446" type="curve" smooth="yes"/>
			<point x="296" y="446"/>
			<point x="333" y="398"/>
			<point x="333" y="321" type="curve" smooth="yes"/>
			<point x="333" y="242"/>
			<point x="295" y="189"/>
		</contour>
		<contour>
			<point x="340" y="409" type="line"/>
			<point x="484" y="409" type="line"/>
			<point x="484" y="472" type="line"/>
			<point x="470" y="481" type="line"/>
			<point x="346" y="434" type="line"/>
			<point x="340" y="434" type="line"/>
		</contour>
	</outline>
	<anchor name="aboveLC" x="248" y="489"/>
	<anchor name="belowLC" x="257" y="-265"/>
</glyph>
<glyph name="j" format="2">
	<unicode hex="006A"/>
	<advance width="273"/>
	<outline>
		<contour>
			<point x="11" y="-253" type="curve" smooth="yes"/>
			<point x="65" y="-253"/>
			<point x="95" y="-234"/>
			<point x="128" y="-200" type="curve" smooth="yes"/>
			<point x="179" y="-149"/>
			<point x="188" y="-74"/>
			<point x="188" y="82" type="curve" smooth="yes"/>
			<point x="188" y="339" type="line"/>
			<point x="191" y="472" type="line"/>
			<point x="178" y="481" type="line"/>
			<point x="30" y="425" type="line"/>
			<point x="30" y="396" type="line"/>
			<point x="107" y="385" type="line"/>
			<point x="109" y="344"/>
			<point x="110" y="313"/>
			<point x="110" y="257" type="curve" smooth="yes"/>
			<point x="110" y="84" type="line" smooth="yes"/>
			<point x="110" y="-60"/>
			<point x="108" y="-140"/>
			<point x="89" y="-183" type="curve" smooth="yes"/>
			<point x="81" y="-204"/>
			<point x="72" y="-213"/>
			<point x="59" y="-218" type="curve"/>
			<point x="59" y="-226" type="line"/>
			<point x="93" y="-226" type="line"/>
			<point x="93" y="-221" type="line"/>
			<point x="52" y="-188" type="line" smooth="yes"/>
			<point x="28" y="-169"/>
			<point x="7" y="-160"/>
			<point x="-19" y="-160" type="curve" smooth="yes"/>
			<point x="-47" y="-160"/>
			<point x="-68" y="-172"/>
			<point x="-75" y="-199" type="curve"/>
			<point x="-72" y="-225"/>
			<point x="-43" y="-253"/>
		</contour>
		<contour>
			<point x="149" y="583" type="curve" smooth="yes"/>
			<point x="185" y="583"/>
			<point x="212" y="608"/>
			<point x="212" y="644" type="curve" smooth="yes"/>
			<point x="212" y="680"/>
			<point x="185" y="705"/>
			<point x="149" y="705" type="curve" smooth="yes"/>
			<point x="114" y="705"/>
			<point x="86" y="680"/>
			<point x="86" y="644" type="curve" smooth="yes"/>
			<point x="86" y="608"/>
			<point x="114" y="583"/>
		</contour>
	</outline>
	<anchor name="aboveLC" x="150" y="705"/>
	<anchor name="belowLC" x="55" y="-265"/>
</glyph>
<glyph name="l" format="2">
	<unicode hex="006C"/>
	<advance width="291"/>
	<outline>
		<contour>
			<point x="28" y="0" type="line"/>
			<point x="265" y="0" type="line"/>
			<point x="265" y="30" type="line"/>
			<point x="157" y="48" type="line"/>
			<point x="135" y="48" type="line"/>
			<point x="28" y="30" type="line"/>
		</contour>
		<contour>
			<point x="104" y="0" type="curve"/>
			<point x="190" y="0" type="line"/>
			<point x="188" y="63"/>
			<point x="187" y="142"/>
			<point x="187" y="211" type="curve" smooth="yes"/>
			<point x="187" y="582" type="line"/>
			<point x="191" y="733" type="line"/>
			<point x="178" y="741" type="line"/>
			<point x="27" y="699" type="line"/>
			<point x="27" y="669" type="line"/>
			<point x="108" y="657" type="line"/>
			<point x="108" y="211" type="line" smooth="yes"/>
			<point x="108" y="142"/>
			<point x="107" y="63"/>
		</contour>
	</outline>
	<anchor name="aboveLC" x="143" y="741"/>
	<anchor name="belowLC" x="149" y="-20"/>
</glyph>
<glyph name="o" format="2">
	<unicode hex="006F"/>
	<advance width="536"/>
	<outline>
		<contour>
			<point x="268" y="-13" type="curve" smooth="yes"/>
			<point x="382" y="-13"/>
			<point x="491" y="71"/>
			<point x="491" y="233" type="curve" smooth="yes"/>
			<point x="491" y="397"/>
			<point x="381" y="481"/>
			<point x="268" y="481" type="curve" smooth="yes"/>
			<point x="153" y="481"/>
			<point x="45" y="395"/>
			<point x="45" y="232" type="curve" smooth="yes"/>
			<point x="45" y="69"/>
			<point x="153" y="-13"/>
		</contour>
		<contour>
			<point x="268" y="26" type="curve" smooth="yes"/>
			<point x="182" y="26"/>
			<point x="134" y="97"/>
			<point x="134" y="232" type="curve" smooth="yes"/>
			<point x="134" y="368"/>
			<point x="182" y="442"/>
			<point x="268" y="442" type="curve" smooth="yes"/>
			<point x="352" y="442"/>
			<point x="402" y="369"/>
			<point x="402" y="233" type="curve" smooth="yes"/>
			<point x="402" y="97"/>
			<point x="352" y="26"/>
		</contour>
	</outline>
	<anchor name="aboveLC" x="268" y="489"/>
	<anchor name="belowLC" x="268" y="-20"/>
	<anchor name="hornLC" x="390" y="375"/>
	<anchor name="ogonek" x="337" y="0"/>
</glyph>
<glyph name="t" format="2">
	<unicode hex="0074"/>
	<advance width="317"/>
	<outline>
		<contour>
			<point x="130" y="424" type="line"/>
			<point x="303" y="424" type="line"/>
			<point x="303" y="469" type="line"/>
			<point x="130" y="469" type="line"/>
		</contour>
		<contour>
			<point x="199" y="-13" type="curve" smooth="yes"/>
			<point x="251" y="-13"/>
			<point x="288" y="7"/>
			<point x="313" y="43" type="curve"/>
			<point x="292" y="64" type="line"/>
			<point x="269" y="45"/>
			<point x="248" y="35"/>
			<point x="225" y="35" type="curve" smooth="yes"/>
			<point x="191" y="35"/>
			<point x="170" y="57"/>
			<point x="170" y="108" type="curve" smooth="yes"/>
			<point x="170" y="435" type="line"/>
			<point x="170" y="451" type="line"/>
			<point x="176" y="609" type="line"/>
			<point x="127" y="609" type="line"/>
			<point x="89" y="446" type="line"/>
			<point x="129" y="476" type="line"/>
			<point x="9" y="460" type="line"/>
			<point x="9" y="424" type="line"/>
			<point x="90" y="424" type="line"/>
			<point x="89" y="189" type="line" smooth="yes"/>
			<point x="89" y="149"/>
			<point x="88" y="126"/>
			<point x="88" y="98" type="curve" smooth="yes"/>
			<point x="88" y="23"/>
			<point x="131" y="-13"/>
		</contour>
	</outline>
	<anchor name="aboveLC" x="149" y="589"/>
	<anchor name="belowLC" x="191" y="-20"/>
	<anchor name="baseLC" x="191" y="0"/>
</glyph>
<glyph name="u" format="2">
	<unicode hex="0075"/>
	<advance width="571"/>
	<outline>
		<contour>
			<point x="220" y="-13" type="curve" smooth="yes"/>
			<point x="287" y="-13"/>
			<point x="352" y="25"/>
			<point x="403" y="92" type="curve"/>
			<point x="415" y="92" type="line"/>
			<point x="402" y="128" type="line"/>
			<point x="352" y="78"/>
			<point x="302" y="52"/>
			<point x="253" y="52" type="curve" smooth="yes"/>
			<point x="198" y="52"/>
			<point x="172" y="81"/>
			<point x="172" y="168" type="curve" smooth="yes"/>
			<point x="172" y="339" type="line"/>
			<point x="177" y="467" type="line"/>
			<point x="168" y="476" type="line"/>
			<point x="25" y="457" type="line"/>
			<point x="25" y="427" type="line"/>
			<point x="116" y="408" type="line"/>
			<point x="95" y="430" type="line"/>
			<point x="93" y="156" type="line" smooth="yes"/>
			<point x="92" y="34"/>
			<point x="141" y="-13"/>
		</contour>
		<contour>
			<point x="401" y="-9" type="line"/>
			<point x="539" y="0" type="line"/>
			<point x="539" y="30" type="line"/>
			<point x="471" y="43" type="line"/>
			<point x="471" y="339" type="line"/>
			<point x="474" y="467" type="line"/>
			<point x="465" y="476" type="line"/>
			<point x="323" y="457" type="line"/>
			<point x="323" y="427" type="line"/>
			<point x="394" y="413" type="line"/>
			<point x="392" y="106" type="line"/>
			<point x="392" y="104" type="line"/>
		</contour>
	</outline>
	<anchor name="aboveLC" x="278" y="489"/>
	<anchor name="belowLC" x="299" y="-20"/>
	<anchor name="hornLC" x="435" y="430"/>
	<anchor name="ogonek" x="480" y="0"/>
</glyph>
<glyph name="w" format="2">
	<unicode hex="0077"/>
	<advance width="746"/>
	<outline>
		<contour>
			<point x="214" y="-5" type="line"/>
			<point x="247" y="-5" type="line"/>
			<point x="381" y="363" type="line"/>
			<point x="386" y="375" type="line"/>
			<point x="368" y="375" type="line"/>
			<point x="506" y="-5" type="line"/>
			<point x="538" y="-5" type="line"/>
			<point x="700" y="469" type="line"/>
			<point x="651" y="469" type="line"/>
			<point x="535" y="98" type="line"/>
			<point x="531" y="84" type="line"/>
			<point x="550" y="84" type="line"/>
			<point x="409" y="469" type="line"/>
			<point x="376" y="469" type="line"/>
			<point x="244" y="98" type="line"/>
			<point x="239" y="84" type="line"/>
			<point x="258" y="84" type="line"/>
			<point x="130" y="469" type="line"/>
			<point x="40" y="469" type="line"/>
		</contour>
		<contour>
			<point x="1" y="436" type="line"/>
			<point x="96" y="420" type="line"/>
			<point x="117" y="420" type="line"/>
			<point x="220" y="436" type="line"/>
			<point x="220" y="469" type="line"/>
			<point x="1" y="469" type="line"/>
		</contour>
		<contour>
			<point x="287" y="436" type="line"/>
			<point x="384" y="422" type="line"/>
			<point x="410" y="422" type="line"/>
			<point x="499" y="436" type="line"/>
			<point x="499" y="469" type="line"/>
			<point x="287" y="469" type="line"/>
		</contour>
		<contour>
			<point x="565" y="436" type="line"/>
			<point x="652" y="422" type="line"/>
			<point x="669" y="422" type="line"/>
			<point x="737" y="436" type="line"/>
			<point x="737" y="469" type="line"/>
			<point x="565" y="469" type="line"/>
		</contour>
	</outline>
	<anchor name="aboveLC" x="386" y="489"/>
	<anchor name="belowLC" x="378" y="-20"/>
</glyph>
<glyph name="x" format="2">
	<unicode hex="0078"/>
	<advance width="507"/>
	<outline>
		<contour>
			<point x="8" y="0" type="line"/>
			<point x="193" y="0" type="line"/>
			<point x="193" y="30" type="line"/>
			<point x="108" y="44" type="line"/>
			<point x="88" y="44" type="line"/>
			<point x="8" y="30" type="line"/>
		</contour>
		<contour>
			<point x="38" y="0" type="line"/>
			<point x="91" y="0" type="line"/>
			<point x="178" y="117" type="line"/>
			<point x="265" y="232" type="line"/>
			<point x="264" y="234" type="line"/>
			<point x="236" y="255" type="line"/>
		</contour>
		<contour>
			<point x="268" y="0" type="line"/>
			<point x="498" y="0" type="line"/>
			<point x="498" y="30" type="line"/>
			<point x="396" y="48" type="line"/>
			<point x="374" y="48" type="line"/>
			<point x="268" y="30" type="line"/>
		</contour>
		<contour>
			<point x="265" y="217" type="line"/>
			<point x="461" y="469" type="line"/>
			<point x="407" y="469" type="line"/>
			<point x="322" y="356" type="line"/>
			<point x="238" y="243" type="line"/>
			<point x="238" y="241" type="line"/>
		</contour>
		<contour>
			<point x="365" y="0" type="line"/>
			<point x="459" y="0" type="line"/>
			<point x="276" y="266" type="line"/>
			<point x="140" y="469" type="line"/>
			<point x="50" y="469" type="line"/>
			<point x="222" y="213" type="line"/>
		</contour>
		<contour>
			<point x="16" y="436" type="line"/>
			<point x="113" y="420" type="line"/>
			<point x="135" y="420" type="line"/>
			<point x="231" y="436" type="line"/>
			<point x="231" y="469" type="line"/>
			<point x="16" y="469" type="line"/>
		</contour>
		<contour>
			<point x="311" y="436" type="line"/>
			<point x="388" y="422" type="line"/>
			<point x="408" y="422" type="line"/>
			<point x="485" y="436" type="line"/>
			<point x="485" y="469" type="line"/>
			<point x="311" y="469" type="line"/>
		</contour>
	</outline>
	<anchor name="aboveLC" x="269" y="489"/>
	<anchor name="belowLC" x="235" y="-20"/>
</glyph>
<glyph name="y" format="2">
	<unicode hex="0079"/>
	<advance width="499"/>
	<outline>
		<contour>
			<point x="82" y="-253" type="curve" smooth="yes"/>
			<point x="164" y="-253"/>
			<point x="217" y="-173"/>
			<point x="279" y="-9" type="curve" smooth="yes"/>
			<point x="459" y="469" type="line"/>
			<point x="412" y="469" type="line"/>
			<point x="336" y="259" type="line"/>
			<point x="250" y="22" type="line"/>
			<point x="248" y="16" type="line"/>
			<point x="228" y="-39" type="line" smooth="yes"/>
			<point x="200" y="-117"/>
			<point x="162" y="-184"/>
			<point x="100" y="-216" type="curve"/>
			<point x="125" y="-231" type="line"/>
			<point x="156" y="-213" type="line"/>
			<point x="127" y="-185" type="line" smooth="yes"/>
			<point x="102" y="-161"/>
			<point x="83" y="-151"/>
			<point x="57" y="-151" type="curve" smooth="yes"/>
			<point x="28" y="-151"/>
			<point x="1" y="-166"/>
			<point x="-4" y="-193" type="curve"/>
			<point x="-2" y="-229"/>
			<point x="38" y="-253"/>
		</contour>
		<contour>
			<point x="244" y="-40" type="line"/>
			<point x="279" y="44" type="line"/>
			<point x="281" y="71" type="line"/>
			<point x="134" y="469" type="line"/>
			<point x="42" y="469" type="line"/>
		</contour>
		<contour>
			<point x="4" y="438" type="line"/>
			<point x="98" y="424" type="line"/>
			<point x="122" y="424" type="line"/>
			<point x="235" y="438" type="line"/>
			<point x="235" y="469" type="line"/>
			<point x="4" y="469" type="line"/>
		</contour>
		<contour>
			<point x="315" y="438" type="line"/>
			<point x="411" y="425" type="line"/>
			<point x="429" y="425" type="line"/>
			<point x="498" y="438" type="line"/>
			<point x="498" y="469" type="line"/>
			<point x="315" y="469" type="line"/>
		</contour>
	</outline>
	<anchor name="aboveLC" x="278" y="489"/>
	<anchor name="belowLC" x="125" y="-263"/>
</glyph>
<glyph name="z" format="2">
	<unicode hex="007A"/>
	<advance width="444"/>
	<outline>
		<contour>
			<point x="29" y="0" type="line"/>
			<point x="410" y="0" type="line"/>
			<point x="419" y="161" type="line"/>
			<point x="378" y="161" type="line"/>
			<point x="337" y="13" type="line"/>
			<point x="374" y="36" type="line"/>
			<point x="236" y="36" type="line"/>
			<point x="118" y="36" type="line"/>
			<point x="118" y="55" type="line"/>
			<point x="109" y="14" type="line"/>
			<point x="405" y="439" type="line"/>
			<point x="405" y="469" type="line"/>
			<point x="43" y="469" type="line"/>
			<point x="37" y="321" type="line"/>
			<point x="78" y="318" type="line"/>
			<point x="116" y="455" type="line"/>
			<point x="78" y="431" type="line"/>
			<point x="208" y="431" type="line"/>
			<point x="318" y="431" type="line"/>
			<point x="326" y="422" type="line"/>
			<point x="326" y="453" type="line"/>
			<point x="29" y="29" type="line"/>
		</contour>
	</outline>
	<anchor name="aboveLC" x="223" y="489"/>
	<anchor name="belowLC" x="231" y="-20"/>
</glyph>
<glyph name="yen" format="2">
	<unicode hex="00A5"/>
	<advance width="492"/>
	<outline>
		<contour>
			<point x="267" y="231" type="line"/>
			<point x="454" y="647" type="line"/>
			<point x="410" y="647" type="line"/>
			<point x="261" y="307" type="line"/>
			<point x="275" y="307" type="line"/>
			<point x="128" y="647" type="line"/>
			<point x="34" y="647" type="line"/>
			<point x="227" y="231" type="line"/>
		</contour>
		<contour>
			<point x="95" y="600" type="line"/>
			<point x="111" y="600" type="line"/>
			<point x="226" y="614" type="line"/>
			<point x="226" y="647" type="line"/>
			<point x="-9" y="647" type="line"/>
			<point x="-9" y="614" type="line"/>
		</contour>
		<contour>
			<point x="234" y="47" type="line"/>
			<point x="105" y="33" type="line"/>
			<point x="105" y="0" type="line"/>
			<point x="388" y="0" type="line"/>
			<point x="388" y="33" type="line"/>
			<point x="258" y="47" type="line"/>
		</contour>
		<contour>
			<point x="207" y="189" type="line" smooth="yes"/>
			<point x="207" y="124"/>
			<point x="205" y="70"/>
			<point x="204" y="0" type="curve"/>
			<point x="288" y="0" type="line"/>
			<point x="286" y="71"/>
			<point x="285" y="125"/>
			<point x="285" y="189" type="curve" smooth="yes"/>
			<point x="285" y="306" type="line"/>
			<point x="207" y="306" type="line"/>
		</contour>
		<contour>
			<point x="411" y="601" type="line"/>
			<point x="421" y="601" type="line"/>
			<point x="500" y="614" type="line"/>
			<point x="500" y="647" type="line"/>
			<point x="315" y="647" type="line"/>
			<point x="315" y="614" type="line"/>
		</contour>
		<contour>
			<point x="50" y="154" type="line"/>
			<point x="449" y="154" type="line"/>
			<point x="449" y="195" type="line"/>
			<point x="50" y="195" type="line"/>
		</contour>
		<contour>
			<point x="50" y="269" type="line"/>
			<point x="449" y="269" type="line"/>
			<point x="449" y="311" type="line"/>
			<point x="50" y="311" type="line"/>
		</contour>
	</outline>
</glyph>
<glyph name="two.sups" format="2">
	<unicode hex="00B2"/>
	<advance width="358"/>
	<outline>
		<contour>
			<point x="48" y="426" type="line"/>
			<point x="317" y="426" type="line"/>
			<point x="317" y="490" type="line"/>
			<point x="104" y="490" type="line"/>
			<point x="104" y="500" type="line"/>
			<point x="87" y="467" type="line"/>
			<point x="169" y="541" type="line" smooth="yes"/>
			<point x="262" y="625"/>
			<point x="302" y="670"/>
			<point x="302" y="728" type="curve" smooth="yes"/>
			<point x="302" y="784"/>
			<point x="268" y="834"/>
			<point x="179" y="834" type="curve" smooth="yes"/>
			<point x="108" y="834"/>
			<point x="49" y="800"/>
			<point x="43" y="736" type="curve"/>
			<point x="50" y="721"/>
			<point x="62" y="713"/>
			<point x="77" y="713" type="curve" smooth="yes"/>
			<point x="96" y="713"/>
			<point x="107" y="724"/>
			<point x="115" y="760" type="curve" smooth="yes"/>
			<point x="130" y="817" type="line"/>
			<point x="93" y="791" type="line"/>
			<point x="117" y="802"/>
			<point x="137" y="805"/>
			<point x="156" y="805" type="curve" smooth="yes"/>
			<point x="203" y="805"/>
			<point x="232" y="777"/>
			<point x="232" y="722" type="curve" smooth="yes"/>
			<point x="232" y="671"/>
			<point x="201" y="621"/>
			<point x="141" y="562" type="curve" smooth="yes"/>
			<point x="48" y="471" type="line"/>
		</contour>
	</outline>
</glyph>
<glyph name="one.sups" format="2">
	<unicode hex="00B9"/>
	<advance width="358"/>
	<outline>
		<contour>
			<point x="62" y="427" type="line"/>
			<point x="307" y="427" type="line"/>
			<point x="307" y="451" type="line"/>
			<point x="210" y="467" type="line"/>
			<point x="159" y="467" type="line"/>
			<point x="62" y="451" type="line"/>
		</contour>
		<contour>
			<point x="152" y="427" type="line"/>
			<point x="219" y="427" type="line"/>
			<point x="219" y="825" type="line"/>
			<point x="211" y="831" type="line"/>
			<point x="73" y="797" type="line"/>
			<point x="73" y="768" type="line"/>
			<point x="152" y="775" type="line"/>
		</contour>
	</outline>
</glyph>
<glyph name="multiply" format="2">
	<unicode hex="00D7"/>
	<advance width="522"/>
	<outline>
		<contour>
			<point x="441" y="109" type="line"/>
			<point x="478" y="145" type="line"/>
			<point x="81" y="551" type="line"/>
			<point x="45" y="514" type="line"/>
		</contour>
		<contour>
			<point x="477" y="515" type="line"/>
			<point x="442" y="550" type="line"/>
			<point x="45" y="144" type="line"/>
			<point x="81" y="109" type="line"/>
		</contour>
	</outline>
</glyph>
<glyph name="ae" format="2">
	<unicode hex="00E6"/>
	<advance width="759"/>
	<outline>
		<contour>
			<point x="173" y="-13" type="curve" smooth="yes"/>
			<point x="237" y="-13"/>
			<point x="280" y="16"/>
			<point x="358" y="96" type="curve"/>
			<point x="367" y="96" type="line"/>
			<point x="342" y="117" type="line"/>
			<point x="271" y="60"/>
			<point x="247" y="49"/>
			<point x="206" y="49" type="curve" smooth="yes"/>
			<point x="163" y="49"/>
			<point x="127" y="72"/>
			<point x="127" y="126" type="curve" smooth="yes"/>
			<point x="127" y="156"/>
			<point x="138" y="192"/>
			<point x="224" y="227" type="curve" smooth="yes"/>
			<point x="251" y="238"/>
			<point x="303" y="255"/>
			<point x="354" y="267" type="curve"/>
			<point x="354" y="297" type="line"/>
			<point x="299" y="286"/>
			<point x="242" y="270"/>
			<point x="203" y="256" type="curve" smooth="yes"/>
			<point x="72" y="209"/>
			<point x="43" y="167"/>
			<point x="43" y="110" type="curve" smooth="yes"/>
			<point x="43" y="30"/>
			<point x="102" y="-13"/>
		</contour>
		<contour>
			<point x="533" y="-13" type="curve" smooth="yes"/>
			<point x="625" y="-13"/>
			<point x="678" y="28"/>
			<point x="716" y="99" type="curve"/>
			<point x="697" y="113" type="line"/>
			<point x="661" y="68"/>
			<point x="615" y="48"/>
			<point x="555" y="48" type="curve" smooth="yes"/>
			<point x="458" y="48"/>
			<point x="396" y="117"/>
			<point x="396" y="241" type="curve" smooth="yes"/>
			<point x="396" y="387"/>
			<point x="465" y="442"/>
			<point x="531" y="442" type="curve" smooth="yes"/>
			<point x="592" y="442"/>
			<point x="633" y="400"/>
			<point x="633" y="329" type="curve" smooth="yes"/>
			<point x="633" y="299"/>
			<point x="622" y="278"/>
			<point x="573" y="278" type="curve" smooth="yes"/>
			<point x="348" y="278" type="line"/>
			<point x="348" y="242" type="line"/>
			<point x="704" y="242" type="line"/>
			<point x="708" y="254"/>
			<point x="710" y="273"/>
			<point x="710" y="296" type="curve" smooth="yes"/>
			<point x="710" y="412"/>
			<point x="633" y="481"/>
			<point x="534" y="481" type="curve" smooth="yes"/>
			<point x="447" y="481"/>
			<point x="372" y="423"/>
			<point x="339" y="331" type="curve"/>
			<point x="389" y="325" type="line"/>
			<point x="388" y="436"/>
			<point x="332" y="481"/>
			<point x="245" y="481" type="curve" smooth="yes"/>
			<point x="148" y="481"/>
			<point x="75" y="433"/>
			<point x="57" y="360" type="curve"/>
			<point x="60" y="335"/>
			<point x="74" y="319"/>
			<point x="101" y="319" type="curve" smooth="yes"/>
			<point x="127" y="319"/>
			<point x="144" y="335"/>
			<point x="152" y="365" type="curve" smooth="yes"/>
			<point x="175" y="450" type="line"/>
			<point x="136" y="423" type="line"/>
			<point x="171" y="437"/>
			<point x="198" y="441"/>
			<point x="224" y="441" type="curve" smooth="yes"/>
			<point x="285" y="441"/>
			<point x="315" y="415"/>
			<point x="315" y="317" type="curve" smooth="yes"/>
			<point x="315" y="228" type="line" smooth="yes"/>
			<point x="315" y="77"/>
			<point x="403" y="-13"/>
		</contour>
	</outline>
	<anchor name="aboveLC" x="375" y="489"/>
	<anchor name="belowLC" x="353" y="-20"/>
</glyph>
<glyph name="divide" format="2">
	<unicode hex="00F7"/>
	<advance width="522"/>
	<outline>
		<contour>
			<point x="261" y="75" type="curve" smooth="yes"/>
			<point x="296" y="75"/>
			<point x="326" y="101"/>
			<point x="326" y="138" type="curve" smooth="yes"/>
			<point x="326" y="175"/>
			<point x="296" y="200"/>
			<point x="261" y="200" type="curve" smooth="yes"/>
			<point x="226" y="200"/>
			<point x="197" y="175"/>
			<point x="197" y="138" type="curve" smooth="yes"/>
			<point x="197" y="101"/>
			<point x="226" y="75"/>
		</contour>
		<contour>
			<point x="261" y="459" type="curve" smooth="yes"/>
			<point x="296" y="459"/>
			<point x="326" y="484"/>
			<point x="326" y="521" type="curve" smooth="yes"/>
			<point x="326" y="559"/>
			<point x="296" y="584"/>
			<point x="261" y="584" type="curve" smooth="yes"/>
			<point x="226" y="584"/>
			<point x="197" y="559"/>
			<point x="197" y="521" type="curve" smooth="yes"/>
			<point x="197" y="484"/>
			<point x="226" y="459"/>
		</contour>
		<component base="minus"/>
	</outline>
</glyph>
<glyph name="oslash" format="2">
	<unicode hex="00F8"/>
	<advance width="536"/>
	<outline>
		<contour>
			<point x="479" y="467" type="line"/>
			<point x="451" y="490" type="line"/>
			<point x="53" y="5" type="line"/>
			<point x="82" y="-17" type="line"/>
		</contour>
		<contour>
			<point x="268" y="-13" type="curve" smooth="yes"/>
			<point x="382" y="-13"/>
			<point x="491" y="71"/>
			<point x="491" y="233" type="curve" smooth="yes"/>
			<point x="491" y="397"/>
			<point x="381" y="481"/>
			<point x="268" y="481" type="curve" smooth="yes"/>
			<point x="153" y="481"/>
			<point x="45" y="395"/>
			<point x="45" y="232" type="curve" smooth="yes"/>
			<point x="45" y="69"/>
			<point x="153" y="-13"/>
		</contour>
		<contour>
			<point x="268" y="26" type="curve" smooth="yes"/>
			<point x="179" y="26"/>
			<point x="129" y="97"/>
			<point x="129" y="232" type="curve" smooth="yes"/>
			<point x="129" y="368"/>
			<point x="179" y="442"/>
			<point x="268" y="442" type="curve" smooth="yes"/>
			<point x="355" y="442"/>
			<point x="406" y="369"/>
			<point x="406" y="233" type="curve" smooth="yes"/>
			<point x="406" y="97"/>
			<point x="355" y="26"/>
		</contour>
	</outline>
	<anchor name="aboveLC" x="268" y="489"/>
</glyph>
<glyph name="eogonek" format="2">
	<unicode hex="0119"/>
	<advance width="495"/>
	<outline>
		<contour>
			<point x="320" y="-224" type="curve" smooth="yes"/>
			<point x="360" y="-224"/>
			<point x="389" y="-211"/>
			<point x="415" y="-180" type="curve"/>
			<point x="404" y="-158" type="line"/>
			<point x="385" y="-168"/>
			<point x="368" y="-171"/>
			<point x="352" y="-171" type="curve" smooth="yes"/>
			<point x="320" y="-171"/>
			<point x="297" y="-147"/>
			<point x="297" y="-106" type="curve" smooth="yes"/>
			<point x="297" y="-57"/>
			<point x="329" y="-18"/>
			<point x="369" y="12" type="curve" smooth="yes"/>
			<point x="405" y="37"/>
			<point x="428" y="62"/>
			<point x="447" y="102" type="curve"/>
			<point x="426" y="118" type="line"/>
			<point x="391" y="75"/>
			<point x="351" y="48"/>
			<point x="289" y="48" type="curve" smooth="yes"/>
			<point x="193" y="48"/>
			<point x="127" y="118"/>
			<point x="127" y="241" type="curve" smooth="yes"/>
			<point x="127" y="389"/>
			<point x="199" y="442"/>
			<point x="266" y="442" type="curve" smooth="yes"/>
			<point x="329" y="442"/>
			<point x="369" y="400"/>
			<point x="369" y="329" type="curve" smooth="yes"/>
			<point x="369" y="299"/>
			<point x="358" y="278"/>
			<point x="309" y="278" type="curve" smooth="yes"/>
			<point x="80" y="278" type="line"/>
			<point x="80" y="242" type="line"/>
			<point x="440" y="242" type="line"/>
			<point x="444" y="254"/>
			<point x="446" y="273"/>
			<point x="446" y="295" type="curve" smooth="yes"/>
			<point x="446" y="412"/>
			<point x="367" y="481"/>
			<point x="266" y="481" type="curve" smooth="yes"/>
			<point x="146" y="481"/>
			<point x="44" y="380"/>
			<point x="44" y="230" type="curve" smooth="yes"/>
			<point x="44" y="78"/>
			<point x="133" y="-13"/>
			<point x="262" y="-13" type="curve" smooth="yes"/>
			<point x="287" y="-13"/>
			<point x="314" y="-9"/>
			<point x="338" y="-3" type="curve"/>
			<point x="343" y="13" type="line"/>
			<point x="289" y="-14"/>
			<point x="236" y="-70"/>
			<point x="236" y="-140" type="curve" smooth="yes"/>
			<point x="236" y="-191"/>
			<point x="271" y="-224"/>
		</contour>
	</outline>
	<anchor name="aboveLC" x="267" y="489"/>
</glyph>
<glyph name="kgreenlandic" format="2">
	<unicode hex="0138"/>
	<advance width="536"/>
	<outline>
		<contour>
			<point x="32" y="0" type="line"/>
			<point x="258" y="0" type="line"/>
			<point x="258" y="30" type="line"/>
			<point x="159" y="48" type="line"/>
			<point x="137" y="48" type="line"/>
			<point x="32" y="30" type="line"/>
		</contour>
		<contour>
			<point x="104" y="0" type="curve"/>
			<point x="191" y="0" type="line"/>
			<point x="189" y="45"/>
			<point x="188" y="148"/>
			<point x="188" y="211" type="curve" smooth="yes"/>
			<point x="188" y="339" type="line"/>
			<point x="191" y="472" type="line"/>
			<point x="177" y="481" type="line"/>
			<point x="27" y="425" type="line"/>
			<point x="27" y="396" type="line"/>
			<point x="105" y="385" type="line"/>
			<point x="107" y="344"/>
			<point x="108" y="313"/>
			<point x="108" y="258" type="curve" smooth="yes"/>
			<point x="108" y="211" type="line" smooth="yes"/>
			<point x="108" y="148"/>
			<point x="107" y="45"/>
		</contour>
		<contour>
			<point x="148" y="138" type="line"/>
			<point x="465" y="469" type="line"/>
			<point x="411" y="469" type="line"/>
			<point x="151" y="193" type="line"/>
			<point x="148" y="193" type="line"/>
		</contour>
		<contour>
			<point x="402" y="0" type="line"/>
			<point x="534" y="0" type="line"/>
			<point x="534" y="30" type="line"/>
			<point x="430" y="48" type="line"/>
			<point x="488" y="15" type="line"/>
			<point x="298" y="318" type="line"/>
			<point x="242" y="262" type="line"/>
		</contour>
		<contour>
			<point x="387" y="415" type="line"/>
			<point x="406" y="420" type="line"/>
			<point x="509" y="436" type="line"/>
			<point x="509" y="469" type="line"/>
			<point x="287" y="469" type="line"/>
			<point x="287" y="436" type="line"/>
		</contour>
	</outline>
</glyph>
<glyph name="Lslash" format="2">
	<unicode hex="0141"/>
	<advance width="575"/>
	<outline>
		<contour>
			<point x="388" y="453" type="line"/>
			<point x="179" y="334" type="line"/>
			<point x="179" y="290" type="line"/>
			<point x="388" y="410" type="line"/>
		</contour>
		<contour>
			<point x="177" y="338" type="line"/>
			<point x="44" y="263" type="line"/>
			<point x="44" y="220" type="line"/>
			<point x="177" y="294" type="line"/>
		</contour>
		<component base="L"/>
	</outline>
</glyph>
<glyph name="lslash" format="2">
	<unicode hex="0142"/>
	<advance width="291"/>
	<outline>
		<contour>
			<point x="148" y="408" type="line"/>
			<point x="27" y="345" type="line"/>
			<point x="27" y="303" type="line"/>
			<point x="148" y="366" type="line"/>
		</contour>
		<contour>
			<point x="266" y="464" type="line"/>
			<point x="144" y="399" type="line"/>
			<point x="144" y="358" type="line"/>
			<point x="266" y="422" type="line"/>
		</contour>
		<component base="l"/>
	</outline>
</glyph>
<glyph name="eng" format="2">
	<unicode hex="014B"/>
	<advance width="588"/>
	<outline>
		<contour>
			<point x="39" y="0" type="line"/>
			<point x="264" y="0" type="line"/>
			<point x="264" y="30" type="line"/>
			<point x="166" y="48" type="line"/>
			<point x="144" y="48" type="line"/>
			<point x="39" y="30" type="line"/>
		</contour>
		<contour>
			<point x="111" y="0" type="curve"/>
			<point x="197" y="0" type="line"/>
			<point x="195" y="45"/>
			<point x="194" y="148"/>
			<point x="194" y="211" type="curve" smooth="yes"/>
			<point x="194" y="360" type="line"/>
			<point x="194" y="361" type="line"/>
			<point x="185" y="472" type="line"/>
			<point x="172" y="481" type="line"/>
			<point x="33" y="425" type="line"/>
			<point x="33" y="396" type="line"/>
			<point x="111" y="385" type="line"/>
			<point x="113" y="344"/>
			<point x="114" y="313"/>
			<point x="114" y="258" type="curve" smooth="yes"/>
			<point x="114" y="211" type="line" smooth="yes"/>
			<point x="114" y="148"/>
			<point x="113" y="45"/>
		</contour>
		<contour>
			<point x="314" y="-253" type="curve" smooth="yes"/>
			<point x="367" y="-253"/>
			<point x="399" y="-232"/>
			<point x="429" y="-201" type="curve" smooth="yes"/>
			<point x="482" y="-148"/>
			<point x="492" y="-74"/>
			<point x="492" y="82" type="curve" smooth="yes"/>
			<point x="492" y="304" type="line" smooth="yes"/>
			<point x="492" y="431"/>
			<point x="451" y="481"/>
			<point x="367" y="481" type="curve" smooth="yes"/>
			<point x="296" y="481"/>
			<point x="221" y="431"/>
			<point x="174" y="369" type="curve"/>
			<point x="172" y="369" type="line"/>
			<point x="185" y="346" type="line"/>
			<point x="239" y="394"/>
			<point x="281" y="416"/>
			<point x="330" y="416" type="curve" smooth="yes"/>
			<point x="389" y="416"/>
			<point x="413" y="388"/>
			<point x="413" y="298" type="curve" smooth="yes"/>
			<point x="413" y="84" type="line" smooth="yes"/>
			<point x="413" y="-60"/>
			<point x="411" y="-140"/>
			<point x="392" y="-184" type="curve" smooth="yes"/>
			<point x="384" y="-204"/>
			<point x="373" y="-213"/>
			<point x="361" y="-218" type="curve"/>
			<point x="361" y="-229" type="line"/>
			<point x="393" y="-229" type="line"/>
			<point x="393" y="-220" type="line"/>
			<point x="354" y="-188" type="line" smooth="yes"/>
			<point x="330" y="-168"/>
			<point x="309" y="-160"/>
			<point x="284" y="-160" type="curve" smooth="yes"/>
			<point x="255" y="-160"/>
			<point x="234" y="-172"/>
			<point x="228" y="-199" type="curve"/>
			<point x="230" y="-225"/>
			<point x="258" y="-253"/>
		</contour>
	</outline>
</glyph>
<glyph name="Tbar" format="2">
	<unicode hex="0166"/>
	<advance width="594"/>
	<outline>
		<contour>
			<point x="84" y="314" type="line"/>
			<point x="509" y="314" type="line"/>
			<point x="509" y="353" type="line"/>
			<point x="84" y="353" type="line"/>
		</contour>
		<component base="T"/>
	</outline>
</glyph>
<glyph name="Uhorn" format="2">
	<unicode hex="01AF"/>
	<advance width="709"/>
	<outline>
		<contour>
			<point x="359" y="-15" type="curve" smooth="yes"/>
			<point x="492" y="-15"/>
			<point x="590" y="60"/>
			<point x="590" y="265" type="curve" smooth="yes"/>
			<point x="590" y="670" type="line"/>
			<point x="546" y="670" type="line"/>
			<point x="546" y="284" type="line" smooth="yes"/>
			<point x="546" y="109"/>
			<point x="485" y="48"/>
			<point x="374" y="48" type="curve" smooth="yes"/>
			<point x="274" y="48"/>
			<point x="209" y="103"/>
			<point x="209" y="269" type="curve" smooth="yes"/>
			<point x="209" y="360" type="line" smooth="yes"/>
			<point x="209" y="464"/>
			<point x="209" y="575"/>
			<point x="212" y="670" type="curve"/>
			<point x="118" y="670" type="line"/>
			<point x="121" y="573"/>
			<point x="121" y="463"/>
			<point x="121" y="360" type="curve" smooth="yes"/>
			<point x="121" y="244" type="line" smooth="yes"/>
			<point x="121" y="61"/>
			<point x="219" y="-15"/>
		</contour>
		<contour>
			<point x="578" y="625" type="line"/>
			<point x="659" y="631"/>
			<point x="711" y="666"/>
			<point x="711" y="749" type="curve" smooth="yes"/>
			<point x="711" y="767"/>
			<point x="707" y="788"/>
			<point x="698" y="806" type="curve"/>
			<point x="687" y="815"/>
			<point x="676" y="817"/>
			<point x="666" y="817" type="curve" smooth="yes"/>
			<point x="644" y="817"/>
			<point x="628" y="798"/>
			<point x="628" y="781" type="curve" smooth="yes"/>
			<point x="628" y="754"/>
			<point x="656" y="735"/>
			<point x="656" y="700" type="curve" smooth="yes"/>
			<point x="656" y="675"/>
			<point x="635" y="670"/>
			<point x="578" y="670" type="curve"/>
		</contour>
		<contour>
			<point x="39" y="636" type="line"/>
			<point x="160" y="622" type="line"/>
			<point x="184" y="622" type="line"/>
			<point x="307" y="636" type="line"/>
			<point x="307" y="670" type="line"/>
			<point x="39" y="670" type="line"/>
		</contour>
		<contour>
			<point x="449" y="636" type="line"/>
			<point x="554" y="623" type="line"/>
			<point x="572" y="623" type="line"/>
			<point x="572" y="670" type="line"/>
			<point x="449" y="670" type="line"/>
		</contour>
	</outline>
	<anchor name="aboveUC" x="375" y="690"/>
	<anchor name="belowLC" x="358" y="-20"/>
</glyph>
<glyph name="uhorn" format="2">
	<unicode hex="01B0"/>
	<advance width="571"/>
	<outline>
		<contour>
			<point x="220" y="-13" type="curve" smooth="yes"/>
			<point x="287" y="-13"/>
			<point x="352" y="25"/>
			<point x="403" y="92" type="curve"/>
			<point x="415" y="92" type="line"/>
			<point x="402" y="128" type="line"/>
			<point x="352" y="78"/>
			<point x="302" y="52"/>
			<point x="253" y="52" type="curve" smooth="yes"/>
			<point x="198" y="52"/>
			<point x="172" y="81"/>
			<point x="172" y="168" type="curve" smooth="yes"/>
			<point x="172" y="339" type="line"/>
			<point x="177" y="467" type="line"/>
			<point x="168" y="476" type="line"/>
			<point x="25" y="457" type="line"/>
			<point x="25" y="427" type="line"/>
			<point x="116" y="408" type="line"/>
			<point x="95" y="430" type="line"/>
			<point x="93" y="156" type="line" smooth="yes"/>
			<point x="92" y="34"/>
			<point x="141" y="-13"/>
		</contour>
		<contour>
			<point x="401" y="-9" type="line"/>
			<point x="539" y="0" type="line"/>
			<point x="539" y="30" type="line"/>
			<point x="471" y="43" type="line"/>
			<point x="471" y="339" type="line"/>
			<point x="474" y="467" type="line"/>
			<point x="434" y="448" type="line"/>
			<point x="505" y="454"/>
			<point x="556" y="504"/>
			<point x="556" y="579" type="curve" smooth="yes"/>
			<point x="556" y="601"/>
			<point x="552" y="619"/>
			<point x="543" y="637" type="curve"/>
			<point x="532" y="646"/>
			<point x="520" y="648"/>
			<point x="510" y="648" type="curve" smooth="yes"/>
			<point x="487" y="648"/>
			<point x="473" y="630"/>
			<point x="473" y="612" type="curve" smooth="yes"/>
			<point x="473" y="580"/>
			<point x="498" y="569"/>
			<point x="498" y="530" type="curve" smooth="yes"/>
			<point x="498" y="495"/>
			<point x="478" y="478"/>
			<point x="434" y="472" type="curve" smooth="yes"/>
			<point x="323" y="457" type="line"/>
			<point x="323" y="427" type="line"/>
			<point x="394" y="413" type="line"/>
			<point x="392" y="106" type="line"/>
			<point x="392" y="104" type="line"/>
		</contour>
	</outline>
	<anchor name="aboveLC" x="278" y="489"/>
	<anchor name="belowLC" x="299" y="-20"/>
</glyph>
<glyph name="alphalatin" format="2">
	<unicode hex="0251"/>
	<advance width="549"/>
	<outline>
		<contour>
			<point x="239" y="-13" type="curve" smooth="yes"/>
			<point x="311" y="-13"/>
			<point x="362" y="24"/>
			<point x="401" y="94" type="curve"/>
			<point x="406" y="94" type="line"/>
			<point x="397" y="121" type="line"/>
			<point x="354" y="65"/>
			<point x="317" y="39"/>
			<point x="267" y="39" type="curve" smooth="yes"/>
			<point x="188" y="39"/>
			<point x="129" y="101"/>
			<point x="129" y="229" type="curve" smooth="yes"/>
			<point x="129" y="368"/>
			<point x="194" y="430"/>
			<point x="272" y="430" type="curve" smooth="yes"/>
			<point x="317" y="430"/>
			<point x="351" y="414"/>
			<point x="400" y="357" type="curve"/>
			<point x="411" y="383" type="line"/>
			<point x="406" y="383" type="line"/>
			<point x="366" y="456"/>
			<point x="315" y="481"/>
			<point x="263" y="481" type="curve" smooth="yes"/>
			<point x="137" y="481"/>
			<point x="45" y="380"/>
			<point x="45" y="223" type="curve" smooth="yes"/>
			<point x="45" y="71"/>
			<point x="127" y="-13"/>
		</contour>
		<contour>
			<point x="383" y="92" type="line"/>
			<point x="386" y="77" type="line"/>
			<point x="393" y="25"/>
			<point x="420" y="-9"/>
			<point x="471" y="-9" type="curve" smooth="yes"/>
			<point x="508" y="-9"/>
			<point x="533" y="5"/>
			<point x="554" y="42" type="curve"/>
			<point x="537" y="61" type="line"/>
			<point x="525" y="46"/>
			<point x="514" y="37"/>
			<point x="497" y="37" type="curve" smooth="yes"/>
			<point x="476" y="37"/>
			<point x="462" y="51"/>
			<point x="462" y="94" type="curve" smooth="yes"/>
			<point x="462" y="319" type="line"/>
			<point x="466" y="472" type="line"/>
			<point x="451" y="480" type="line"/>
			<point x="383" y="407" type="line"/>
			<point x="383" y="403" type="line"/>
		</contour>
	</outline>
	<anchor name="aboveLC" x="271" y="489"/>
	<anchor name="belowLC" x="270" y="-20"/>
</glyph>
<glyph name="h.sups" format="2">
	<unicode hex="02B0"/>
	<advance width="404"/>
	<outline>
		<contour>
			<point x="69" y="427" type="line"/>
			<point x="134" y="427" type="line"/>
			<point x="134" y="665" type="line"/>
			<point x="134" y="667" type="line"/>
			<point x="134" y="892" type="line"/>
			<point x="125" y="897" type="line"/>
			<point x="17" y="869" type="line"/>
			<point x="17" y="846" type="line"/>
			<point x="69" y="839" type="line"/>
		</contour>
		<contour>
			<point x="274" y="427" type="line"/>
			<point x="340" y="427" type="line"/>
			<point x="340" y="632" type="line" smooth="yes"/>
			<point x="340" y="709"/>
			<point x="309" y="743"/>
			<point x="251" y="743" type="curve" smooth="yes"/>
			<point x="205" y="743"/>
			<point x="164" y="720"/>
			<point x="131" y="676" type="curve"/>
			<point x="114" y="676" type="line"/>
			<point x="127" y="644" type="line"/>
			<point x="163" y="677"/>
			<point x="192" y="694"/>
			<point x="223" y="694" type="curve" smooth="yes"/>
			<point x="260" y="694"/>
			<point x="274" y="675"/>
			<point x="274" y="622" type="curve" smooth="yes"/>
		</contour>
		<contour>
			<point x="21" y="427" type="line"/>
			<point x="180" y="427" type="line"/>
			<point x="180" y="452" type="line"/>
			<point x="113" y="463" type="line"/>
			<point x="91" y="463" type="line"/>
			<point x="21" y="452" type="line"/>
		</contour>
		<contour>
			<point x="228" y="427" type="line"/>
			<point x="384" y="427" type="line"/>
			<point x="384" y="452" type="line"/>
			<point x="318" y="463" type="line"/>
			<point x="297" y="463" type="line"/>
			<point x="228" y="452" type="line"/>
		</contour>
	</outline>
</glyph>
<glyph name="r.sups" format="2">
	<unicode hex="02B3"/>
	<advance width="289"/>
	<outline>
		<contour>
			<point x="73" y="427" type="line"/>
			<point x="139" y="427" type="line"/>
			<point x="139" y="650" type="line"/>
			<point x="139" y="651" type="line"/>
			<point x="132" y="737" type="line"/>
			<point x="122" y="743" type="line"/>
			<point x="22" y="705" type="line"/>
			<point x="22" y="682" type="line"/>
			<point x="73" y="675" type="line"/>
		</contour>
		<contour>
			<point x="136" y="610" type="line"/>
			<point x="151" y="656"/>
			<point x="178" y="688"/>
			<point x="215" y="708" type="curve"/>
			<point x="182" y="705" type="line"/>
			<point x="198" y="688" type="line" smooth="yes"/>
			<point x="212" y="672"/>
			<point x="225" y="665"/>
			<point x="241" y="665" type="curve" smooth="yes"/>
			<point x="264" y="665"/>
			<point x="282" y="681"/>
			<point x="283" y="707" type="curve"/>
			<point x="278" y="734"/>
			<point x="257" y="743"/>
			<point x="237" y="743" type="curve" smooth="yes"/>
			<point x="195" y="743"/>
			<point x="154" y="703"/>
			<point x="132" y="638" type="curve"/>
			<point x="112" y="638" type="line"/>
		</contour>
		<contour>
			<point x="27" y="427" type="line"/>
			<point x="193" y="427" type="line"/>
			<point x="193" y="452" type="line"/>
			<point x="120" y="463" type="line"/>
			<point x="97" y="463" type="line"/>
			<point x="27" y="452" type="line"/>
		</contour>
	</outline>
</glyph>
<glyph name="y.sups" format="2">
	<unicode hex="02B8"/>
	<advance width="341"/>
	<outline>
		<contour>
			<point x="57" y="270" type="curve" smooth="yes"/>
			<point x="113" y="270"/>
			<point x="153" y="316"/>
			<point x="189" y="410" type="curve" smooth="yes"/>
			<point x="309" y="732" type="line"/>
			<point x="276" y="732" type="line"/>
			<point x="180" y="463" type="line"/>
			<point x="163" y="419" type="line" smooth="yes"/>
			<point x="139" y="354"/>
			<point x="116" y="317"/>
			<point x="69" y="295" type="curve"/>
			<point x="87" y="288" type="line"/>
			<point x="108" y="298" type="line"/>
			<point x="88" y="318" type="line" smooth="yes"/>
			<point x="69" y="335"/>
			<point x="53" y="340"/>
			<point x="37" y="340" type="curve" smooth="yes"/>
			<point x="17" y="340"/>
			<point x="-1" y="331"/>
			<point x="-5" y="311" type="curve"/>
			<point x="-3" y="285"/>
			<point x="25" y="270"/>
		</contour>
		<contour>
			<point x="0" y="706" type="line"/>
			<point x="64" y="695" type="line"/>
			<point x="88" y="695" type="line"/>
			<point x="167" y="706" type="line"/>
			<point x="167" y="732" type="line"/>
			<point x="0" y="732" type="line"/>
		</contour>
		<contour>
			<point x="212" y="706" type="line"/>
			<point x="277" y="698" type="line"/>
			<point x="288" y="698" type="line"/>
			<point x="337" y="706" type="line"/>
			<point x="337" y="732" type="line"/>
			<point x="212" y="732" type="line"/>
		</contour>
		<contour>
			<point x="165" y="395" type="line"/>
			<point x="195" y="470" type="line"/>
			<point x="199" y="480" type="line"/>
			<point x="96" y="732" type="line"/>
			<point x="25" y="732" type="line"/>
		</contour>
	</outline>
</glyph>
<glyph name="s.sups" format="2">
	<unicode hex="02E2"/>
	<advance width="292"/>
	<outline>
		<contour>
			<point x="136" y="417" type="curve" smooth="yes"/>
			<point x="220" y="417"/>
			<point x="265" y="459"/>
			<point x="265" y="514" type="curve" smooth="yes"/>
			<point x="265" y="559"/>
			<point x="235" y="588"/>
			<point x="175" y="610" type="curve" smooth="yes"/>
			<point x="155" y="617" type="line" smooth="yes"/>
			<point x="109" y="633"/>
			<point x="91" y="646"/>
			<point x="91" y="671" type="curve" smooth="yes"/>
			<point x="91" y="698"/>
			<point x="113" y="714"/>
			<point x="154" y="714" type="curve" smooth="yes"/>
			<point x="178" y="714"/>
			<point x="199" y="705"/>
			<point x="218" y="696" type="curve"/>
			<point x="218" y="722" type="line"/>
			<point x="196" y="722" type="line"/>
			<point x="214" y="648" type="line"/>
			<point x="244" y="648" type="line"/>
			<point x="248" y="718" type="line"/>
			<point x="218" y="734"/>
			<point x="190" y="743"/>
			<point x="154" y="743" type="curve" smooth="yes"/>
			<point x="80" y="743"/>
			<point x="36" y="703"/>
			<point x="36" y="650" type="curve" smooth="yes"/>
			<point x="36" y="604"/>
			<point x="70" y="577"/>
			<point x="117" y="559" type="curve" smooth="yes"/>
			<point x="145" y="549" type="line" smooth="yes"/>
			<point x="187" y="534"/>
			<point x="209" y="520"/>
			<point x="209" y="492" type="curve" smooth="yes"/>
			<point x="209" y="463"/>
			<point x="185" y="446"/>
			<point x="139" y="446" type="curve" smooth="yes"/>
			<point x="107" y="446"/>
			<point x="89" y="453"/>
			<point x="59" y="472" type="curve"/>
			<point x="59" y="450" type="line"/>
			<point x="86" y="437" type="line"/>
			<point x="66" y="521" type="line"/>
			<point x="34" y="521" type="line"/>
			<point x="34" y="445" type="line"/>
			<point x="67" y="427"/>
			<point x="97" y="417"/>
		</contour>
	</outline>
</glyph>
<glyph name="horncmb" format="2">
	<unicode hex="031B"/>
	<outline>
		<contour>
			<point x="0" y="469" type="line"/>
			<point x="71" y="475"/>
			<point x="122" y="533"/>
			<point x="122" y="616" type="curve" smooth="yes"/>
			<point x="122" y="639"/>
			<point x="118" y="657"/>
			<point x="108" y="675" type="curve"/>
			<point x="97" y="685"/>
			<point x="85" y="686"/>
			<point x="76" y="686" type="curve" smooth="yes"/>
			<point x="52" y="686"/>
			<point x="38" y="668"/>
			<point x="38" y="650" type="curve" smooth="yes"/>
			<point x="38" y="619"/>
			<point x="63" y="604"/>
			<point x="63" y="564" type="curve" smooth="yes"/>
			<point x="63" y="521"/>
			<point x="44" y="500"/>
			<point x="0" y="493" type="curve"/>
		</contour>
	</outline>
	<anchor name="_hornLC" x="0" y="469"/>
</glyph>
<glyph name="Lambda" format="2">
	<unicode hex="039B"/>
	<advance width="649"/>
	<outline>
		<contour>
			<point x="7" y="0" type="line"/>
			<point x="225" y="0" type="line"/>
			<point x="225" y="34" type="line"/>
			<point x="120" y="48" type="line"/>
			<point x="100" y="48" type="line"/>
			<point x="7" y="34" type="line"/>
		</contour>
		<contour>
			<point x="71" y="0" type="line"/>
			<point x="114" y="0" type="line"/>
			<point x="307" y="580" type="line"/>
			<point x="312" y="594" type="line"/>
			<point x="292" y="594" type="line"/>
			<point x="487" y="0" type="line"/>
			<point x="580" y="0" type="line"/>
			<point x="352" y="676" type="line"/>
			<point x="299" y="676" type="line"/>
		</contour>
		<contour>
			<point x="377" y="0" type="line"/>
			<point x="638" y="0" type="line"/>
			<point x="638" y="34" type="line"/>
			<point x="525" y="48" type="line"/>
			<point x="498" y="48" type="line"/>
			<point x="377" y="34" type="line"/>
		</contour>
	</outline>
</glyph>
<glyph name="zeta" format="2">
	<unicode hex="03B6"/>
	<advance width="433"/>
	<outline>
		<contour>
			<point x="310" y="-205" type="curve"/>
			<point x="348" y="-205" type="line"/>
			<point x="384" y="-146"/>
			<point x="401" y="-103"/>
			<point x="401" y="-57" type="curve" smooth="yes"/>
			<point x="401" y="10"/>
			<point x="363" y="43"/>
			<point x="262" y="68" type="curve" smooth="yes"/>
			<point x="160" y="95"/>
			<point x="125" y="129"/>
			<point x="125" y="196" type="curve" smooth="yes"/>
			<point x="125" y="298"/>
			<point x="179" y="401"/>
			<point x="422" y="683" type="curve"/>
			<point x="420" y="728" type="line"/>
			<point x="70" y="748" type="line"/>
			<point x="70" y="676" type="line"/>
			<point x="401" y="678" type="line"/>
			<point x="389" y="709" type="line"/>
			<point x="132" y="437"/>
			<point x="45" y="293"/>
			<point x="45" y="178" type="curve" smooth="yes"/>
			<point x="45" y="70"/>
			<point x="110" y="26"/>
			<point x="237" y="-6" type="curve" smooth="yes"/>
			<point x="312" y="-26"/>
			<point x="337" y="-46"/>
			<point x="337" y="-90" type="curve" smooth="yes"/>
			<point x="337" y="-127"/>
			<point x="325" y="-162"/>
		</contour>
	</outline>
</glyph>
<glyph name="eta" format="2">
	<unicode hex="03B7"/>
	<advance width="538"/>
	<outline>
		<contour>
			<point x="92" y="-1" type="line"/>
			<point x="101" y="-11" type="line"/>
			<point x="180" y="0" type="line"/>
			<point x="175" y="341" type="line"/>
			<point x="175" y="343" type="line" smooth="yes"/>
			<point x="174" y="433"/>
			<point x="152" y="479"/>
			<point x="95" y="479" type="curve" smooth="yes"/>
			<point x="62" y="479"/>
			<point x="37" y="460"/>
			<point x="18" y="434" type="curve"/>
			<point x="27" y="409" type="line"/>
			<point x="41" y="413"/>
			<point x="55" y="415"/>
			<point x="68" y="415" type="curve" smooth="yes"/>
			<point x="97" y="415"/>
			<point x="108" y="399"/>
			<point x="107" y="358" type="curve" smooth="yes"/>
			<point x="104" y="177" type="line"/>
		</contour>
		<contour>
			<point x="381" y="-187" type="line"/>
			<point x="391" y="-196" type="line"/>
			<point x="469" y="-179" type="line"/>
			<point x="462" y="307" type="line" smooth="yes"/>
			<point x="460" y="437"/>
			<point x="412" y="481"/>
			<point x="335" y="481" type="curve" smooth="yes"/>
			<point x="269" y="481"/>
			<point x="181" y="417"/>
			<point x="158" y="321" type="curve"/>
			<point x="153" y="321" type="line"/>
			<point x="169" y="307" type="line"/>
			<point x="194" y="363"/>
			<point x="255" y="415"/>
			<point x="311" y="415" type="curve" smooth="yes"/>
			<point x="369" y="415"/>
			<point x="404" y="382"/>
			<point x="402" y="299" type="curve" smooth="yes"/>
			<point x="392" y="10" type="line"/>
		</contour>
	</outline>
	<anchor name="aboveLC" x="292" y="489"/>
	<anchor name="belowLC" x="136" y="-20"/>
</glyph>
<glyph name="iota" format="2">
	<unicode hex="03B9"/>
	<advance width="277"/>
	<outline>
		<contour>
			<point x="185" y="-13" type="curve" smooth="yes"/>
			<point x="222" y="-13"/>
			<point x="252" y="13"/>
			<point x="266" y="45" type="curve"/>
			<point x="258" y="65" type="line"/>
			<point x="243" y="57"/>
			<point x="227" y="52"/>
			<point x="211" y="52" type="curve" smooth="yes"/>
			<point x="183" y="52"/>
			<point x="165" y="69"/>
			<point x="165" y="126" type="curve" smooth="yes"/>
			<point x="165" y="188"/>
			<point x="172" y="275"/>
			<point x="186" y="471" type="curve"/>
			<point x="176" y="481" type="line"/>
			<point x="95" y="462" type="line"/>
			<point x="98" y="122" type="line" smooth="yes"/>
			<point x="99" y="32"/>
			<point x="121" y="-13"/>
		</contour>
	</outline>
	<anchor name="aboveLC" x="141" y="489"/>
</glyph>
<glyph name="nu" format="2">
	<unicode hex="03BD"/>
	<advance width="480"/>
	<outline>
		<contour>
			<point x="217" y="-5" type="curve"/>
			<point x="262" y="-5" type="line"/>
			<point x="349" y="135"/>
			<point x="446" y="321"/>
			<point x="446" y="428" type="curve" smooth="yes"/>
			<point x="446" y="449"/>
			<point x="444" y="460"/>
			<point x="441" y="470" type="curve"/>
			<point x="434" y="477"/>
			<point x="425" y="481"/>
			<point x="407" y="481" type="curve" smooth="yes"/>
			<point x="377" y="481"/>
			<point x="357" y="461"/>
			<point x="357" y="418" type="curve" smooth="yes"/>
			<point x="357" y="390"/>
			<point x="362" y="353"/>
			<point x="377" y="268" type="curve"/>
			<point x="386" y="342" type="line"/>
			<point x="349" y="237"/>
			<point x="316" y="161"/>
			<point x="255" y="51" type="curve"/>
			<point x="248" y="38" type="line"/>
			<point x="266" y="38" type="line"/>
			<point x="250" y="125"/>
			<point x="224" y="223"/>
			<point x="190" y="338" type="curve" smooth="yes"/>
			<point x="160" y="440"/>
			<point x="130" y="478"/>
			<point x="85" y="478" type="curve" smooth="yes"/>
			<point x="56" y="478"/>
			<point x="23" y="459"/>
			<point x="0" y="433" type="curve"/>
			<point x="10" y="408" type="line"/>
			<point x="21" y="412"/>
			<point x="32" y="414"/>
			<point x="45" y="414" type="curve" smooth="yes"/>
			<point x="76" y="414"/>
			<point x="93" y="387"/>
			<point x="113" y="327" type="curve" smooth="yes"/>
			<point x="151" y="216"/>
			<point x="186" y="110"/>
		</contour>
	</outline>
</glyph>
<glyph name="rho" format="2">
	<unicode hex="03C1"/>
	<advance width="538"/>
	<outline>
		<contour>
			<point x="70" y="-187" type="line"/>
			<point x="80" y="-196" type="line"/>
			<point x="161" y="-179" type="line"/>
			<point x="145" y="70" type="line"/>
			<point x="146" y="78" type="line"/>
			<point x="148" y="251" type="line" smooth="yes"/>
			<point x="149" y="380"/>
			<point x="204" y="443"/>
			<point x="282" y="443" type="curve" smooth="yes"/>
			<point x="356" y="443"/>
			<point x="413" y="373"/>
			<point x="413" y="237" type="curve" smooth="yes"/>
			<point x="413" y="113"/>
			<point x="370" y="38"/>
			<point x="272" y="38" type="curve" smooth="yes"/>
			<point x="218" y="38"/>
			<point x="177" y="58"/>
			<point x="130" y="103" type="curve"/>
			<point x="122" y="84" type="line"/>
			<point x="125" y="81" type="line"/>
			<point x="161" y="11"/>
			<point x="225" y="-13"/>
			<point x="278" y="-13" type="curve" smooth="yes"/>
			<point x="393" y="-13"/>
			<point x="497" y="73"/>
			<point x="497" y="240" type="curve" smooth="yes"/>
			<point x="497" y="390"/>
			<point x="407" y="481"/>
			<point x="285" y="481" type="curve" smooth="yes"/>
			<point x="166" y="481"/>
			<point x="75" y="401"/>
			<point x="74" y="231" type="curve" smooth="yes"/>
			<point x="73" y="11" type="line"/>
		</contour>
	</outline>
	<anchor name="aboveLC" x="284" y="489"/>
</glyph>
<glyph name="sigma.end" format="2">
	<unicode hex="03C2"/>
	<advance width="444"/>
	<outline>
		<contour>
			<point x="310" y="-205" type="curve"/>
			<point x="347" y="-205" type="line"/>
			<point x="383" y="-146"/>
			<point x="401" y="-104"/>
			<point x="401" y="-57" type="curve" smooth="yes"/>
			<point x="401" y="10"/>
			<point x="363" y="43"/>
			<point x="264" y="68" type="curve" smooth="yes"/>
			<point x="183" y="90"/>
			<point x="122" y="124"/>
			<point x="122" y="239" type="curve" smooth="yes"/>
			<point x="122" y="387"/>
			<point x="203" y="450"/>
			<point x="287" y="450" type="curve" smooth="yes"/>
			<point x="295" y="450"/>
			<point x="305" y="450"/>
			<point x="314" y="450" type="curve"/>
			<point x="242" y="464" type="line"/>
			<point x="312" y="398" type="line" smooth="yes"/>
			<point x="334" y="376"/>
			<point x="347" y="370"/>
			<point x="367" y="370" type="curve" smooth="yes"/>
			<point x="395" y="370"/>
			<point x="414" y="390"/>
			<point x="413" y="420" type="curve"/>
			<point x="392" y="455"/>
			<point x="347" y="481"/>
			<point x="275" y="481" type="curve" smooth="yes"/>
			<point x="142" y="481"/>
			<point x="43" y="381"/>
			<point x="43" y="227" type="curve" smooth="yes"/>
			<point x="43" y="85"/>
			<point x="107" y="27"/>
			<point x="237" y="-6" type="curve" smooth="yes"/>
			<point x="312" y="-26"/>
			<point x="338" y="-46"/>
			<point x="338" y="-90" type="curve" smooth="yes"/>
			<point x="338" y="-127"/>
			<point x="325" y="-162"/>
		</contour>
	</outline>
</glyph>
<glyph name="sigma" format="2">
	<unicode hex="03C3"/>
	<advance width="584"/>
	<outline>
		<contour>
			<point x="256" y="-13" type="curve" smooth="yes"/>
			<point x="379" y="-13"/>
			<point x="475" y="86"/>
			<point x="475" y="225" type="curve" smooth="yes"/>
			<point x="475" y="337"/>
			<point x="409" y="428"/>
			<point x="290" y="439" type="curve"/>
			<point x="276" y="428" type="line"/>
			<point x="363" y="409"/>
			<point x="394" y="323"/>
			<point x="394" y="224" type="curve" smooth="yes"/>
			<point x="394" y="96"/>
			<point x="343" y="26"/>
			<point x="261" y="26" type="curve" smooth="yes"/>
			<point x="182" y="26"/>
			<point x="124" y="96"/>
			<point x="124" y="227" type="curve" smooth="yes"/>
			<point x="124" y="348"/>
			<point x="181" y="421"/>
			<point x="296" y="425" type="curve"/>
			<point x="314" y="421" type="line"/>
			<point x="565" y="403" type="line"/>
			<point x="561" y="476" type="line"/>
			<point x="296" y="470" type="line" smooth="yes"/>
			<point x="152" y="467"/>
			<point x="40" y="384"/>
			<point x="40" y="221" type="curve" smooth="yes"/>
			<point x="40" y="76"/>
			<point x="128" y="-13"/>
		</contour>
	</outline>
</glyph>
<glyph name="upsilon" format="2">
	<unicode hex="03C5"/>
	<advance width="507"/>
	<outline>
		<contour>
			<point x="265" y="-13" type="curve" smooth="yes"/>
			<point x="371" y="-13"/>
			<point x="459" y="57"/>
			<point x="459" y="248" type="curve" smooth="yes"/>
			<point x="459" y="331"/>
			<point x="455" y="412"/>
			<point x="435" y="468" type="curve"/>
			<point x="427" y="477"/>
			<point x="416" y="481"/>
			<point x="401" y="481" type="curve" smooth="yes"/>
			<point x="374" y="481"/>
			<point x="353" y="463"/>
			<point x="353" y="431" type="curve" smooth="yes"/>
			<point x="353" y="403"/>
			<point x="366" y="377"/>
			<point x="425" y="258" type="curve"/>
			<point x="427" y="315" type="line"/>
			<point x="411" y="315" type="line"/>
			<point x="414" y="280"/>
			<point x="415" y="252"/>
			<point x="415" y="228" type="curve" smooth="yes"/>
			<point x="415" y="103"/>
			<point x="357" y="38"/>
			<point x="275" y="38" type="curve" smooth="yes"/>
			<point x="192" y="38"/>
			<point x="165" y="84"/>
			<point x="165" y="183" type="curve" smooth="yes"/>
			<point x="165" y="247"/>
			<point x="176" y="320"/>
			<point x="176" y="399" type="curve" smooth="yes"/>
			<point x="176" y="437"/>
			<point x="161" y="479"/>
			<point x="101" y="479" type="curve" smooth="yes"/>
			<point x="63" y="479"/>
			<point x="32" y="459"/>
			<point x="15" y="435" type="curve"/>
			<point x="26" y="410" type="line"/>
			<point x="37" y="412"/>
			<point x="50" y="415"/>
			<point x="63" y="415" type="curve" smooth="yes"/>
			<point x="94" y="415"/>
			<point x="100" y="398"/>
			<point x="100" y="362" type="curve" smooth="yes"/>
			<point x="100" y="317"/>
			<point x="90" y="235"/>
			<point x="90" y="172" type="curve" smooth="yes"/>
			<point x="90" y="41"/>
			<point x="154" y="-13"/>
		</contour>
	</outline>
	<anchor name="aboveLC" x="267" y="489"/>
</glyph>
<glyph name="phi" format="2">
	<unicode hex="03C6"/>
	<advance width="704"/>
	<outline>
		<contour>
			<point x="305" y="-187" type="line"/>
			<point x="318" y="-197" type="line"/>
			<point x="395" y="-179" type="line"/>
			<point x="385" y="11" type="line"/>
			<point x="380" y="629" type="line"/>
			<point x="331" y="629" type="line"/>
			<point x="318" y="9" type="line"/>
		</contour>
		<contour>
			<point x="336" y="-14" type="curve"/>
			<point x="336" y="24" type="line"/>
			<point x="203" y="24"/>
			<point x="125" y="95"/>
			<point x="125" y="236" type="curve" smooth="yes"/>
			<point x="125" y="362"/>
			<point x="190" y="443"/>
			<point x="336" y="443" type="curve"/>
			<point x="336" y="482" type="line"/>
			<point x="138" y="482"/>
			<point x="40" y="363"/>
			<point x="40" y="231" type="curve" smooth="yes"/>
			<point x="40" y="78"/>
			<point x="149" y="-14"/>
		</contour>
		<contour>
			<point x="370" y="-14" type="line"/>
			<point x="568" y="-14"/>
			<point x="663" y="106"/>
			<point x="663" y="237" type="curve" smooth="yes"/>
			<point x="663" y="390"/>
			<point x="556" y="482"/>
			<point x="368" y="482" type="curve"/>
			<point x="368" y="443" type="line"/>
			<point x="500" y="443"/>
			<point x="579" y="373"/>
			<point x="579" y="235" type="curve" smooth="yes"/>
			<point x="579" y="101"/>
			<point x="506" y="24"/>
			<point x="370" y="24" type="curve"/>
		</contour>
	</outline>
</glyph>
<glyph name="chi" format="2">
	<unicode hex="03C7"/>
	<advance width="480"/>
	<outline>
		<contour>
			<point x="29" y="-187" type="line"/>
			<point x="99" y="-195" type="line"/>
			<point x="257" y="120" type="line"/>
			<point x="450" y="458" type="line"/>
			<point x="444" y="471" type="line"/>
			<point x="371" y="476" type="line"/>
			<point x="230" y="192" type="line"/>
			<point x="24" y="-174" type="line"/>
		</contour>
		<contour>
			<point x="410" y="-197" type="curve" smooth="yes"/>
			<point x="449" y="-197"/>
			<point x="476" y="-176"/>
			<point x="491" y="-138" type="curve"/>
			<point x="484" y="-116" type="line"/>
			<point x="469" y="-122"/>
			<point x="454" y="-126"/>
			<point x="437" y="-126" type="curve" smooth="yes"/>
			<point x="397" y="-126"/>
			<point x="366" y="-105"/>
			<point x="331" y="-16" type="curve" smooth="yes"/>
			<point x="261" y="157" type="line"/>
			<point x="232" y="119" type="line"/>
			<point x="240" y="119" type="line"/>
			<point x="291" y="-52" type="line" smooth="yes"/>
			<point x="319" y="-142"/>
			<point x="346" y="-197"/>
		</contour>
		<contour>
			<point x="230" y="144" type="line"/>
			<point x="261" y="174" type="line"/>
			<point x="253" y="174" type="line"/>
			<point x="195" y="349" type="line" smooth="yes"/>
			<point x="165" y="436"/>
			<point x="137" y="480"/>
			<point x="81" y="480" type="curve" smooth="yes"/>
			<point x="47" y="480"/>
			<point x="21" y="459"/>
			<point x="4" y="429" type="curve"/>
			<point x="14" y="401" type="line"/>
			<point x="30" y="408"/>
			<point x="45" y="412"/>
			<point x="62" y="412" type="curve" smooth="yes"/>
			<point x="103" y="412"/>
			<point x="124" y="399"/>
			<point x="160" y="314" type="curve" smooth="yes"/>
		</contour>
	</outline>
</glyph>
<glyph name="omega" format="2">
	<unicode hex="03C9"/>
	<advance width="729"/>
	<outline>
		<contour>
			<point x="227" y="-13" type="curve" smooth="yes"/>
			<point x="301" y="-13"/>
			<point x="357" y="32"/>
			<point x="367" y="138" type="curve"/>
			<point x="357" y="138" type="line"/>
			<point x="368" y="34"/>
			<point x="421" y="-13"/>
			<point x="497" y="-13" type="curve" smooth="yes"/>
			<point x="605" y="-13"/>
			<point x="681" y="71"/>
			<point x="681" y="200" type="curve" smooth="yes"/>
			<point x="681" y="355"/>
			<point x="590" y="436"/>
			<point x="492" y="481" type="curve"/>
			<point x="475" y="453" type="line"/>
			<point x="553" y="402"/>
			<point x="599" y="342"/>
			<point x="599" y="200" type="curve" smooth="yes"/>
			<point x="599" y="103"/>
			<point x="559" y="39"/>
			<point x="493" y="39" type="curve" smooth="yes"/>
			<point x="435" y="39"/>
			<point x="398" y="77"/>
			<point x="398" y="166" type="curve" smooth="yes"/>
			<point x="398" y="202"/>
			<point x="402" y="267"/>
			<point x="407" y="334" type="curve"/>
			<point x="398" y="339" type="line"/>
			<point x="321" y="328" type="line"/>
			<point x="327" y="253"/>
			<point x="330" y="201"/>
			<point x="330" y="166" type="curve" smooth="yes"/>
			<point x="330" y="73"/>
			<point x="283" y="39"/>
			<point x="232" y="39" type="curve" smooth="yes"/>
			<point x="163" y="39"/>
			<point x="131" y="102"/>
			<point x="131" y="201" type="curve" smooth="yes"/>
			<point x="131" y="340"/>
			<point x="176" y="401"/>
			<point x="255" y="453" type="curve"/>
			<point x="238" y="481" type="line"/>
			<point x="138" y="436"/>
			<point x="48" y="354"/>
			<point x="48" y="201" type="curve" smooth="yes"/>
			<point x="48" y="62"/>
			<point x="126" y="-13"/>
		</contour>
	</outline>
	<anchor name="aboveLC" x="365" y="489"/>
	<anchor name="belowLC" x="361" y="-20"/>
</glyph>
<glyph name="sampi" format="2">
	<unicode hex="03E1"/>
	<advance width="560"/>
	<outline>
		<contour>
			<point x="129" y="101" type="line"/>
			<point x="455" y="239" type="line"/>
			<point x="446" y="275" type="line"/>
			<point x="107" y="164" type="line"/>
		</contour>
		<contour>
			<point x="351" y="-156" type="curve"/>
			<point x="388" y="-170" type="line"/>
			<point x="438" y="-85"/>
			<point x="491" y="43"/>
			<point x="491" y="205" type="curve" smooth="yes"/>
			<point x="491" y="459"/>
			<point x="327" y="701"/>
			<point x="56" y="728" type="curve"/>
			<point x="51" y="695" type="line"/>
			<point x="265" y="643"/>
			<point x="417" y="436"/>
			<point x="417" y="173" type="curve" smooth="yes"/>
			<point x="417" y="33"/>
			<point x="381" y="-81"/>
		</contour>
		<contour>
			<point x="56" y="317" type="line"/>
			<point x="394" y="455" type="line"/>
			<point x="380" y="488" type="line"/>
			<point x="40" y="381" type="line"/>
		</contour>
	</outline>
</glyph>
<glyph name="Dzhe" format="2">
	<unicode hex="040F"/>
	<advance width="745"/>
	<outline>
		<contour>
			<point x="131" y="0" type="curve"/>
			<point x="225" y="0" type="line"/>
			<point x="222" y="95"/>
			<point x="222" y="206"/>
			<point x="222" y="312" type="curve" smooth="yes"/>
			<point x="222" y="359" type="line" smooth="yes"/>
			<point x="222" y="462"/>
			<point x="222" y="573"/>
			<point x="225" y="670" type="curve"/>
			<point x="131" y="670" type="line"/>
			<point x="134" y="575"/>
			<point x="134" y="464"/>
			<point x="134" y="359" type="curve" smooth="yes"/>
			<point x="134" y="312" type="line" smooth="yes"/>
			<point x="134" y="208"/>
			<point x="134" y="97"/>
		</contour>
		<contour>
			<point x="522" y="0" type="curve"/>
			<point x="617" y="0" type="line"/>
			<point x="614" y="95"/>
			<point x="614" y="206"/>
			<point x="614" y="312" type="curve" smooth="yes"/>
			<point x="614" y="359" type="line" smooth="yes"/>
			<point x="614" y="462"/>
			<point x="614" y="573"/>
			<point x="617" y="670" type="curve"/>
			<point x="522" y="670" type="line"/>
			<point x="525" y="575"/>
			<point x="525" y="464"/>
			<point x="525" y="359" type="curve" smooth="yes"/>
			<point x="525" y="312" type="line" smooth="yes"/>
			<point x="525" y="208"/>
			<point x="525" y="97"/>
		</contour>
		<contour>
			<point x="43" y="636" type="line"/>
			<point x="166" y="622" type="line"/>
			<point x="189" y="622" type="line"/>
			<point x="312" y="636" type="line"/>
			<point x="312" y="670" type="line"/>
			<point x="43" y="670" type="line"/>
		</contour>
		<contour>
			<point x="435" y="636" type="line"/>
			<point x="558" y="622" type="line"/>
			<point x="581" y="622" type="line"/>
			<point x="705" y="636" type="line"/>
			<point x="705" y="670" type="line"/>
			<point x="435" y="670" type="line"/>
		</contour>
		<contour>
			<point x="43" y="0" type="line"/>
			<point x="183" y="0" type="line"/>
			<point x="182" y="48" type="line"/>
			<point x="166" y="48" type="line"/>
			<point x="43" y="34" type="line"/>
		</contour>
		<contour>
			<point x="705" y="0" type="line"/>
			<point x="705" y="34" type="line"/>
			<point x="581" y="48" type="line"/>
			<point x="565" y="48" type="line"/>
			<point x="564" y="0" type="line"/>
		</contour>
		<contour>
			<point x="332" y="26" type="line"/>
			<point x="348" y="-210" type="line"/>
			<point x="397" y="-210" type="line"/>
			<point x="413" y="26" type="line"/>
		</contour>
		<contour>
			<point x="571" y="0" type="line"/>
			<point x="571" y="43" type="line"/>
			<point x="176" y="43" type="line"/>
			<point x="176" y="0" type="line"/>
		</contour>
	</outline>
</glyph>
<glyph name="De" format="2">
	<unicode hex="0414"/>
	<advance width="681"/>
	<outline>
		<contour>
			<point x="19" y="-184" type="line"/>
			<point x="65" y="-184" type="line"/>
			<point x="96" y="39" type="line"/>
			<point x="47" y="0" type="line"/>
			<point x="612" y="0" type="line"/>
			<point x="569" y="39" type="line"/>
			<point x="596" y="-184" type="line"/>
			<point x="642" y="-184" type="line"/>
			<point x="649" y="43" type="line"/>
			<point x="11" y="43" type="line"/>
		</contour>
		<contour>
			<point x="162" y="636" type="line"/>
			<point x="271" y="622" type="line"/>
			<point x="278" y="622" type="line"/>
			<point x="279" y="670" type="line"/>
			<point x="162" y="670" type="line"/>
		</contour>
		<contour>
			<point x="276" y="627" type="line"/>
			<point x="506" y="627" type="line"/>
			<point x="506" y="670" type="line"/>
			<point x="276" y="670" type="line"/>
		</contour>
		<contour>
			<point x="456" y="0" type="curve"/>
			<point x="550" y="0" type="line"/>
			<point x="547" y="95"/>
			<point x="547" y="206"/>
			<point x="547" y="312" type="curve" smooth="yes"/>
			<point x="547" y="359" type="line" smooth="yes"/>
			<point x="547" y="462"/>
			<point x="547" y="573"/>
			<point x="550" y="670" type="curve"/>
			<point x="456" y="670" type="line"/>
			<point x="459" y="575"/>
			<point x="459" y="464"/>
			<point x="459" y="359" type="curve" smooth="yes"/>
			<point x="459" y="312" type="line" smooth="yes"/>
			<point x="459" y="208"/>
			<point x="459" y="97"/>
		</contour>
		<contour>
			<point x="498" y="622" type="line"/>
			<point x="515" y="622" type="line"/>
			<point x="637" y="636" type="line"/>
			<point x="637" y="670" type="line"/>
			<point x="497" y="670" type="line"/>
		</contour>
		<contour>
			<point x="71" y="42" type="curve"/>
			<point x="117" y="22" type="line"/>
			<point x="224" y="141"/>
			<point x="290" y="366"/>
			<point x="307" y="670" type="curve"/>
			<point x="254" y="670" type="line"/>
			<point x="240" y="382"/>
			<point x="179" y="169"/>
		</contour>
	</outline>
</glyph>
<glyph name="Icyr" format="2">
	<unicode hex="0418"/>
	<advance width="773"/>
	<outline>
		<contour>
			<point x="131" y="0" type="curve"/>
			<point x="221" y="0" type="line"/>
			<point x="221" y="347" type="line" smooth="yes"/>
			<point x="221" y="455"/>
			<point x="221" y="565"/>
			<point x="224" y="670" type="curve"/>
			<point x="131" y="670" type="line"/>
			<point x="134" y="573"/>
			<point x="134" y="462"/>
			<point x="134" y="359" type="curve" smooth="yes"/>
			<point x="134" y="312" type="line" smooth="yes"/>
			<point x="134" y="206"/>
			<point x="134" y="95"/>
		</contour>
		<contour>
			<point x="549" y="0" type="curve"/>
			<point x="643" y="0" type="line"/>
			<point x="639" y="97"/>
			<point x="639" y="208"/>
			<point x="639" y="312" type="curve" smooth="yes"/>
			<point x="639" y="359" type="line" smooth="yes"/>
			<point x="639" y="464"/>
			<point x="639" y="575"/>
			<point x="643" y="670" type="curve"/>
			<point x="552" y="670" type="line"/>
			<point x="552" y="338" type="line" smooth="yes"/>
			<point x="552" y="215"/>
			<point x="552" y="106"/>
		</contour>
		<contour>
			<point x="43" y="0" type="line"/>
			<point x="312" y="0" type="line"/>
			<point x="312" y="34" type="line"/>
			<point x="189" y="48" type="line"/>
			<point x="166" y="48" type="line"/>
			<point x="43" y="34" type="line"/>
		</contour>
		<contour>
			<point x="43" y="636" type="line"/>
			<point x="166" y="622" type="line"/>
			<point x="189" y="622" type="line"/>
			<point x="312" y="636" type="line"/>
			<point x="312" y="670" type="line"/>
			<point x="43" y="670" type="line"/>
		</contour>
		<contour>
			<point x="461" y="0" type="line"/>
			<point x="730" y="0" type="line"/>
			<point x="730" y="34" type="line"/>
			<point x="607" y="48" type="line"/>
			<point x="583" y="48" type="line"/>
			<point x="461" y="34" type="line"/>
		</contour>
		<contour>
			<point x="461" y="636" type="line"/>
			<point x="583" y="622" type="line"/>
			<point x="607" y="622" type="line"/>
			<point x="730" y="636" type="line"/>
			<point x="730" y="670" type="line"/>
			<point x="461" y="670" type="line"/>
		</contour>
		<contour>
			<point x="171" y="35" type="line"/>
			<point x="602" y="575" type="line"/>
			<point x="614" y="575" type="line"/>
			<point x="602" y="640" type="line"/>
			<point x="170" y="98" type="line"/>
			<point x="160" y="98" type="line"/>
		</contour>
	</outline>
	<anchor name="aboveUC" x="387" y="690"/>
</glyph>
<glyph name="Ka" format="2">
	<unicode hex="041A"/>
	<advance width="642"/>
	<outline>
		<contour>
			<point x="43" y="0" type="line"/>
			<point x="312" y="0" type="line"/>
			<point x="312" y="34" type="line"/>
			<point x="189" y="48" type="line"/>
			<point x="166" y="48" type="line"/>
			<point x="43" y="34" type="line"/>
		</contour>
		<contour>
			<point x="43" y="636" type="line"/>
			<point x="166" y="622" type="line"/>
			<point x="189" y="622" type="line"/>
			<point x="312" y="636" type="line"/>
			<point x="312" y="670" type="line"/>
			<point x="43" y="670" type="line"/>
		</contour>
		<contour>
			<point x="131" y="0" type="curve"/>
			<point x="225" y="0" type="line"/>
			<point x="222" y="97"/>
			<point x="222" y="208"/>
			<point x="222" y="319" type="curve" smooth="yes"/>
			<point x="222" y="351" type="line" smooth="yes"/>
			<point x="222" y="464"/>
			<point x="222" y="575"/>
			<point x="225" y="670" type="curve"/>
			<point x="131" y="670" type="line"/>
			<point x="134" y="573"/>
			<point x="134" y="462"/>
			<point x="134" y="359" type="curve" smooth="yes"/>
			<point x="134" y="312" type="line" smooth="yes"/>
			<point x="134" y="206"/>
			<point x="134" y="95"/>
		</contour>
		<contour>
			<point x="446" y="55" type="line" smooth="yes"/>
			<point x="462" y="6"/>
			<point x="491" y="-9"/>
			<point x="555" y="-9" type="curve" smooth="yes"/>
			<point x="585" y="-9"/>
			<point x="619" y="-6"/>
			<point x="638" y="0" type="curve"/>
			<point x="638" y="34" type="line"/>
			<point x="520" y="45" type="line"/>
			<point x="550" y="28" type="line"/>
			<point x="479" y="216" type="line" smooth="yes"/>
			<point x="446" y="306"/>
			<point x="390" y="345"/>
			<point x="274" y="350" type="curve"/>
			<point x="279" y="328" type="line"/>
			<point x="358" y="340"/>
			<point x="392" y="365"/>
			<point x="437" y="471" type="curve" smooth="yes"/>
			<point x="472" y="552"/>
			<point x="488" y="589"/>
			<point x="528" y="634" type="curve"/>
			<point x="467" y="595" type="line"/>
			<point x="486" y="587"/>
			<point x="516" y="579"/>
			<point x="547" y="579" type="curve" smooth="yes"/>
			<point x="591" y="579"/>
			<point x="613" y="606"/>
			<point x="613" y="633" type="curve" smooth="yes"/>
			<point x="613" y="659"/>
			<point x="593" y="683"/>
			<point x="563" y="685" type="curve"/>
			<point x="500" y="680"/>
			<point x="461" y="645"/>
			<point x="400" y="490" type="curve" smooth="yes"/>
			<point x="356" y="378"/>
			<point x="328" y="360"/>
			<point x="253" y="360" type="curve" smooth="yes"/>
			<point x="181" y="360" type="line"/>
			<point x="181" y="321" type="line"/>
			<point x="261" y="321" type="line" smooth="yes"/>
			<point x="330" y="321"/>
			<point x="363" y="298"/>
			<point x="386" y="232" type="curve" smooth="yes"/>
		</contour>
	</outline>
	<anchor name="aboveUC" x="351" y="690"/>
</glyph>
<glyph name="Ucyr" format="2">
	<unicode hex="0423"/>
	<advance width="654"/>
	<outline>
		<contour>
			<point x="106" y="9" type="curve"/>
			<point x="112" y="-29"/>
			<point x="140" y="-50"/>
			<point x="184" y="-50" type="curve" smooth="yes"/>
			<point x="262" y="-50"/>
			<point x="301" y="16"/>
			<point x="338" y="102" type="curve" smooth="yes"/>
			<point x="586" y="670" type="line"/>
			<point x="534" y="670" type="line"/>
			<point x="428" y="413" type="line"/>
			<point x="331" y="176" type="line"/>
			<point x="330" y="176" type="line"/>
			<point x="297" y="99"/>
			<point x="273" y="39"/>
			<point x="228" y="5" type="curve"/>
			<point x="223" y="-20" type="line"/>
			<point x="259" y="-2" type="line"/>
			<point x="222" y="42"/>
			<point x="200" y="58"/>
			<point x="168" y="58" type="curve" smooth="yes"/>
			<point x="139" y="58"/>
			<point x="113" y="45"/>
		</contour>
		<contour>
			<point x="11" y="636" type="line"/>
			<point x="118" y="622" type="line"/>
			<point x="145" y="622" type="line"/>
			<point x="266" y="636" type="line"/>
			<point x="266" y="670" type="line"/>
			<point x="11" y="670" type="line"/>
		</contour>
		<contour>
			<point x="433" y="636" type="line"/>
			<point x="531" y="623" type="line"/>
			<point x="550" y="623" type="line"/>
			<point x="643" y="636" type="line"/>
			<point x="643" y="670" type="line"/>
			<point x="433" y="670" type="line"/>
		</contour>
		<contour>
			<point x="306" y="93" type="line"/>
			<point x="348" y="190" type="line"/>
			<point x="160" y="670" type="line"/>
			<point x="64" y="670" type="line"/>
		</contour>
	</outline>
	<anchor name="aboveUC" x="354" y="690"/>
</glyph>
<glyph name="Che" format="2">
	<unicode hex="0427"/>
	<advance width="677"/>
	<outline>
		<contour>
			<point x="139" y="622" type="line"/>
			<point x="162" y="622" type="line"/>
			<point x="286" y="636" type="line"/>
			<point x="286" y="670" type="line"/>
			<point x="25" y="670" type="line"/>
			<point x="25" y="636" type="line"/>
		</contour>
		<contour>
			<point x="310" y="274" type="curve" smooth="yes"/>
			<point x="371" y="274"/>
			<point x="439" y="286"/>
			<point x="502" y="301" type="curve"/>
			<point x="502" y="338" type="line"/>
			<point x="430" y="327"/>
			<point x="378" y="323"/>
			<point x="333" y="323" type="curve" smooth="yes"/>
			<point x="232" y="323"/>
			<point x="195" y="358"/>
			<point x="195" y="469" type="curve" smooth="yes"/>
			<point x="195" y="535"/>
			<point x="196" y="605"/>
			<point x="198" y="670" type="curve"/>
			<point x="109" y="670" type="line"/>
			<point x="107" y="602"/>
			<point x="107" y="528"/>
			<point x="107" y="459" type="curve" smooth="yes"/>
			<point x="107" y="309"/>
			<point x="189" y="274"/>
		</contour>
		<contour>
			<point x="364" y="0" type="line"/>
			<point x="635" y="0" type="line"/>
			<point x="635" y="34" type="line"/>
			<point x="511" y="48" type="line"/>
			<point x="488" y="48" type="line"/>
			<point x="364" y="34" type="line"/>
		</contour>
		<contour>
			<point x="452" y="0" type="curve"/>
			<point x="547" y="0" type="line"/>
			<point x="544" y="97"/>
			<point x="544" y="208"/>
			<point x="544" y="312" type="curve" smooth="yes"/>
			<point x="544" y="359" type="line" smooth="yes"/>
			<point x="544" y="464"/>
			<point x="544" y="575"/>
			<point x="547" y="670" type="curve"/>
			<point x="452" y="670" type="line"/>
			<point x="455" y="573"/>
			<point x="455" y="462"/>
			<point x="455" y="359" type="curve" smooth="yes"/>
			<point x="455" y="314" type="line" smooth="yes"/>
			<point x="455" y="206"/>
			<point x="455" y="95"/>
		</contour>
		<contour>
			<point x="488" y="622" type="line"/>
			<point x="511" y="622" type="line"/>
			<point x="635" y="636" type="line"/>
			<point x="635" y="670" type="line"/>
			<point x="365" y="670" type="line"/>
			<point x="365" y="636" type="line"/>
		</contour>
	</outline>
	<anchor name="aboveUC" x="330" y="690"/>
</glyph>
<glyph name="Shcha" format="2">
	<unicode hex="0429"/>
	<advance width="1008"/>
	<outline>
		<contour>
			<point x="131" y="0" type="curve"/>
			<point x="225" y="0" type="line"/>
			<point x="222" y="95"/>
			<point x="222" y="206"/>
			<point x="222" y="312" type="curve" smooth="yes"/>
			<point x="222" y="359" type="line" smooth="yes"/>
			<point x="222" y="462"/>
			<point x="222" y="573"/>
			<point x="225" y="670" type="curve"/>
			<point x="131" y="670" type="line"/>
			<point x="134" y="575"/>
			<point x="134" y="464"/>
			<point x="134" y="359" type="curve" smooth="yes"/>
			<point x="134" y="312" type="line" smooth="yes"/>
			<point x="134" y="208"/>
			<point x="134" y="97"/>
		</contour>
		<contour>
			<point x="457" y="0" type="curve"/>
			<point x="551" y="0" type="line"/>
			<point x="548" y="97"/>
			<point x="548" y="208"/>
			<point x="548" y="312" type="curve" smooth="yes"/>
			<point x="548" y="359" type="line" smooth="yes"/>
			<point x="548" y="464"/>
			<point x="548" y="575"/>
			<point x="551" y="670" type="curve"/>
			<point x="457" y="670" type="line"/>
			<point x="460" y="573"/>
			<point x="460" y="462"/>
			<point x="460" y="359" type="curve" smooth="yes"/>
			<point x="460" y="312" type="line" smooth="yes"/>
			<point x="460" y="206"/>
			<point x="460" y="95"/>
		</contour>
		<contour>
			<point x="783" y="0" type="curve"/>
			<point x="877" y="0" type="line"/>
			<point x="874" y="95"/>
			<point x="874" y="206"/>
			<point x="874" y="312" type="curve" smooth="yes"/>
			<point x="874" y="359" type="line" smooth="yes"/>
			<point x="874" y="462"/>
			<point x="874" y="573"/>
			<point x="877" y="670" type="curve"/>
			<point x="783" y="670" type="line"/>
			<point x="786" y="575"/>
			<point x="786" y="464"/>
			<point x="786" y="359" type="curve" smooth="yes"/>
			<point x="786" y="312" type="line" smooth="yes"/>
			<point x="786" y="208"/>
			<point x="786" y="97"/>
		</contour>
		<contour>
			<point x="176" y="0" type="line"/>
			<point x="947" y="0" type="line"/>
			<point x="895" y="39" type="line"/>
			<point x="922" y="-184" type="line"/>
			<point x="969" y="-184" type="line"/>
			<point x="976" y="43" type="line"/>
			<point x="176" y="43" type="line"/>
		</contour>
		<contour>
			<point x="41" y="636" type="line"/>
			<point x="166" y="622" type="line"/>
			<point x="189" y="622" type="line"/>
			<point x="306" y="636" type="line"/>
			<point x="306" y="670" type="line"/>
			<point x="41" y="670" type="line"/>
		</contour>
		<contour>
			<point x="377" y="636" type="line"/>
			<point x="493" y="622" type="line"/>
			<point x="515" y="622" type="line"/>
			<point x="631" y="636" type="line"/>
			<point x="631" y="670" type="line"/>
			<point x="377" y="670" type="line"/>
		</contour>
		<contour>
			<point x="703" y="636" type="line"/>
			<point x="819" y="622" type="line"/>
			<point x="841" y="622" type="line"/>
			<point x="966" y="636" type="line"/>
			<point x="966" y="670" type="line"/>
			<point x="703" y="670" type="line"/>
		</contour>
		<contour>
			<point x="41" y="0" type="line"/>
			<point x="183" y="0" type="line"/>
			<point x="182" y="48" type="line"/>
			<point x="166" y="48" type="line"/>
			<point x="41" y="34" type="line"/>
		</contour>
	</outline>
</glyph>
<glyph name="Yu" format="2">
	<unicode hex="042E"/>
	<advance width="963"/>
	<outline>
		<contour>
			<point x="131" y="0" type="curve"/>
			<point x="222" y="0" type="line"/>
			<point x="218" y="97"/>
			<point x="218" y="208"/>
			<point x="218" y="325" type="curve" smooth="yes"/>
			<point x="218" y="359" type="line" smooth="yes"/>
			<point x="218" y="464"/>
			<point x="218" y="575"/>
			<point x="222" y="670" type="curve"/>
			<point x="131" y="670" type="line"/>
			<point x="134" y="573"/>
			<point x="134" y="462"/>
			<point x="134" y="359" type="curve" smooth="yes"/>
			<point x="134" y="312" type="line" smooth="yes"/>
			<point x="134" y="206"/>
			<point x="134" y="95"/>
		</contour>
		<contour>
			<point x="43" y="0" type="line"/>
			<point x="309" y="0" type="line"/>
			<point x="309" y="34" type="line"/>
			<point x="189" y="48" type="line"/>
			<point x="166" y="48" type="line"/>
			<point x="43" y="34" type="line"/>
		</contour>
		<contour>
			<point x="43" y="636" type="line"/>
			<point x="166" y="622" type="line"/>
			<point x="189" y="622" type="line"/>
			<point x="309" y="636" type="line"/>
			<point x="309" y="670" type="line"/>
			<point x="43" y="670" type="line"/>
		</contour>
		<contour>
			<point x="171" y="322" type="line"/>
			<point x="414" y="322" type="line"/>
			<point x="414" y="363" type="line"/>
			<point x="171" y="363" type="line"/>
		</contour>
		<contour>
			<point x="640" y="-15" type="curve" smooth="yes"/>
			<point x="791" y="-15"/>
			<point x="917" y="103"/>
			<point x="917" y="334" type="curve" smooth="yes"/>
			<point x="917" y="566"/>
			<point x="790" y="685"/>
			<point x="640" y="685" type="curve" smooth="yes"/>
			<point x="490" y="685"/>
			<point x="363" y="559"/>
			<point x="363" y="335" type="curve" smooth="yes"/>
			<point x="363" y="108"/>
			<point x="489" y="-15"/>
		</contour>
		<contour>
			<point x="640" y="27" type="curve" smooth="yes"/>
			<point x="515" y="27"/>
			<point x="460" y="175"/>
			<point x="460" y="335" type="curve" smooth="yes"/>
			<point x="460" y="495"/>
			<point x="515" y="643"/>
			<point x="640" y="643" type="curve" smooth="yes"/>
			<point x="766" y="643"/>
			<point x="820" y="493"/>
			<point x="820" y="334" type="curve" smooth="yes"/>
			<point x="820" y="174"/>
			<point x="766" y="27"/>
		</contour>
	</outline>
	<anchor name="aboveUC" x="415" y="690"/>
</glyph>
<glyph name="Ya" format="2">
	<unicode hex="042F"/>
	<advance width="633"/>
	<outline>
		<contour>
			<point x="3" y="0" type="line"/>
			<point x="22" y="-6"/>
			<point x="46" y="-9"/>
			<point x="80" y="-9" type="curve" smooth="yes"/>
			<point x="142" y="-9"/>
			<point x="160" y="10"/>
			<point x="178" y="59" type="curve" smooth="yes"/>
			<point x="234" y="207" type="line" smooth="yes"/>
			<point x="265" y="289"/>
			<point x="289" y="305"/>
			<point x="366" y="305" type="curve" smooth="yes"/>
			<point x="464" y="305" type="line"/>
			<point x="464" y="345" type="line"/>
			<point x="337" y="345" type="line" smooth="yes"/>
			<point x="237" y="345"/>
			<point x="188" y="413"/>
			<point x="188" y="495" type="curve" smooth="yes"/>
			<point x="188" y="580"/>
			<point x="238" y="630"/>
			<point x="341" y="630" type="curve" smooth="yes"/>
			<point x="464" y="630" type="line"/>
			<point x="464" y="670" type="line"/>
			<point x="329" y="670" type="line" smooth="yes"/>
			<point x="184" y="670"/>
			<point x="96" y="602"/>
			<point x="96" y="491" type="curve" smooth="yes"/>
			<point x="96" y="404"/>
			<point x="156" y="326"/>
			<point x="302" y="318" type="curve"/>
			<point x="303" y="329" type="line"/>
			<point x="217" y="323"/>
			<point x="180" y="287"/>
			<point x="143" y="192" type="curve" smooth="yes"/>
			<point x="80" y="28" type="line"/>
			<point x="108" y="45" type="line"/>
			<point x="3" y="34" type="line"/>
		</contour>
		<contour>
			<point x="415" y="0" type="curve"/>
			<point x="509" y="0" type="line"/>
			<point x="506" y="95"/>
			<point x="506" y="206"/>
			<point x="506" y="312" type="curve" smooth="yes"/>
			<point x="506" y="359" type="line" smooth="yes"/>
			<point x="506" y="462"/>
			<point x="506" y="573"/>
			<point x="509" y="670" type="curve"/>
			<point x="415" y="670" type="line"/>
			<point x="418" y="573"/>
			<point x="418" y="466"/>
			<point x="418" y="346" type="curve" smooth="yes"/>
			<point x="418" y="319" type="line" smooth="yes"/>
			<point x="418" y="208"/>
			<point x="418" y="97"/>
		</contour>
		<contour>
			<point x="328" y="0" type="line"/>
			<point x="597" y="0" type="line"/>
			<point x="597" y="34" type="line"/>
			<point x="474" y="48" type="line"/>
			<point x="450" y="48" type="line"/>
			<point x="328" y="34" type="line"/>
		</contour>
		<contour>
			<point x="457" y="622" type="line"/>
			<point x="474" y="622" type="line"/>
			<point x="597" y="636" type="line"/>
			<point x="597" y="670" type="line"/>
			<point x="457" y="670" type="line"/>
		</contour>
	</outline>
	<anchor name="aboveUC" x="341" y="690"/>
</glyph>
<glyph name="ve" format="2">
	<unicode hex="0432"/>
	<advance width="501"/>
	<outline>
		<contour>
			<point x="41" y="0" type="line"/>
			<point x="282" y="0" type="line"/>
			<point x="417" y="0"/>
			<point x="470" y="64"/>
			<point x="470" y="127" type="curve" smooth="yes"/>
			<point x="470" y="190"/>
			<point x="424" y="240"/>
			<point x="313" y="247" type="curve"/>
			<point x="314" y="241" type="line"/>
			<point x="408" y="249"/>
			<point x="447" y="298"/>
			<point x="447" y="355" type="curve" smooth="yes"/>
			<point x="447" y="422"/>
			<point x="393" y="469"/>
			<point x="291" y="469" type="curve"/>
			<point x="41" y="469" type="line"/>
			<point x="41" y="438" type="line"/>
			<point x="145" y="420" type="line"/>
			<point x="154" y="431" type="line"/>
			<point x="270" y="431" type="line"/>
			<point x="334" y="431"/>
			<point x="369" y="407"/>
			<point x="369" y="349" type="curve" smooth="yes"/>
			<point x="369" y="289"/>
			<point x="334" y="259"/>
			<point x="257" y="259" type="curve" smooth="yes"/>
			<point x="161" y="259" type="line"/>
			<point x="161" y="225" type="line"/>
			<point x="259" y="225" type="line" smooth="yes"/>
			<point x="348" y="225"/>
			<point x="387" y="192"/>
			<point x="387" y="127" type="curve" smooth="yes"/>
			<point x="387" y="69"/>
			<point x="347" y="37"/>
			<point x="265" y="37" type="curve"/>
			<point x="153" y="37" type="line"/>
			<point x="145" y="48" type="line"/>
			<point x="41" y="30" type="line"/>
		</contour>
		<contour>
			<point x="111" y="0" type="curve"/>
			<point x="197" y="0" type="line"/>
			<point x="194" y="45"/>
			<point x="193" y="145"/>
			<point x="193" y="208" type="curve" smooth="yes"/>
			<point x="193" y="250" type="line" smooth="yes"/>
			<point x="193" y="323"/>
			<point x="194" y="424"/>
			<point x="197" y="469" type="curve"/>
			<point x="111" y="469" type="line"/>
			<point x="113" y="424"/>
			<point x="114" y="323"/>
			<point x="114" y="260" type="curve" smooth="yes"/>
			<point x="114" y="208" type="line" smooth="yes"/>
			<point x="114" y="145"/>
			<point x="113" y="45"/>
		</contour>
	</outline>
</glyph>
<glyph name="ghe" format="2">
	<unicode hex="0433"/>
	<advance width="438"/>
	<outline>
		<contour>
			<point x="111" y="0" type="curve"/>
			<point x="197" y="0" type="line"/>
			<point x="195" y="45"/>
			<point x="194" y="145"/>
			<point x="194" y="208" type="curve" smooth="yes"/>
			<point x="194" y="260" type="line" smooth="yes"/>
			<point x="194" y="323"/>
			<point x="195" y="424"/>
			<point x="197" y="469" type="curve"/>
			<point x="111" y="469" type="line"/>
			<point x="113" y="424"/>
			<point x="114" y="323"/>
			<point x="114" y="260" type="curve" smooth="yes"/>
			<point x="114" y="208" type="line" smooth="yes"/>
			<point x="114" y="145"/>
			<point x="113" y="45"/>
		</contour>
		<contour>
			<point x="152" y="431" type="line"/>
			<point x="383" y="431" type="line"/>
			<point x="333" y="465" type="line"/>
			<point x="379" y="301" type="line"/>
			<point x="417" y="301" type="line"/>
			<point x="408" y="469" type="line"/>
			<point x="152" y="469" type="line"/>
		</contour>
		<contour>
			<point x="41" y="0" type="line"/>
			<point x="276" y="0" type="line"/>
			<point x="276" y="30" type="line"/>
			<point x="163" y="48" type="line"/>
			<point x="140" y="48" type="line"/>
			<point x="41" y="30" type="line"/>
		</contour>
		<contour>
			<point x="41" y="438" type="line"/>
			<point x="145" y="420" type="line"/>
			<point x="155" y="420" type="line"/>
			<point x="155" y="469" type="line"/>
			<point x="41" y="469" type="line"/>
		</contour>
	</outline>
	<anchor name="aboveLC" x="250" y="489"/>
</glyph>
<glyph name="de" format="2">
	<unicode hex="0434"/>
	<advance width="557"/>
	<outline>
		<contour>
			<point x="499" y="0" type="line"/>
			<point x="452" y="34" type="line"/>
			<point x="480" y="-153" type="line"/>
			<point x="518" y="-153" type="line"/>
			<point x="525" y="37" type="line"/>
			<point x="22" y="37" type="line"/>
			<point x="29" y="-153" type="line"/>
			<point x="68" y="-153" type="line"/>
			<point x="96" y="34" type="line"/>
			<point x="49" y="0" type="line"/>
		</contour>
		<contour>
			<point x="358" y="0" type="curve"/>
			<point x="444" y="0" type="line"/>
			<point x="442" y="45"/>
			<point x="441" y="145"/>
			<point x="441" y="208" type="curve" smooth="yes"/>
			<point x="441" y="260" type="line" smooth="yes"/>
			<point x="441" y="323"/>
			<point x="442" y="424"/>
			<point x="444" y="469" type="curve"/>
			<point x="358" y="469" type="line"/>
			<point x="360" y="424"/>
			<point x="361" y="323"/>
			<point x="361" y="260" type="curve" smooth="yes"/>
			<point x="361" y="208" type="line" smooth="yes"/>
			<point x="361" y="145"/>
			<point x="360" y="45"/>
		</contour>
		<contour>
			<point x="116" y="438" type="line"/>
			<point x="206" y="420" type="line"/>
			<point x="217" y="420" type="line"/>
			<point x="217" y="469" type="line"/>
			<point x="116" y="469" type="line"/>
		</contour>
		<contour>
			<point x="400" y="420" type="line"/>
			<point x="415" y="420" type="line"/>
			<point x="514" y="438" type="line"/>
			<point x="514" y="469" type="line"/>
			<point x="400" y="469" type="line"/>
		</contour>
		<contour>
			<point x="72" y="35" type="curve"/>
			<point x="125" y="9" type="line"/>
			<point x="125" y="21" type="line"/>
			<point x="150" y="58"/>
			<point x="169" y="104"/>
			<point x="185" y="154" type="curve" smooth="yes"/>
			<point x="216" y="248"/>
			<point x="234" y="359"/>
			<point x="240" y="469" type="curve"/>
			<point x="197" y="469" type="line"/>
			<point x="184" y="295"/>
			<point x="151" y="138"/>
		</contour>
		<contour>
			<point x="218" y="431" type="line"/>
			<point x="410" y="431" type="line"/>
			<point x="410" y="469" type="line"/>
			<point x="218" y="469" type="line"/>
		</contour>
	</outline>
</glyph>
<glyph name="icyr" format="2">
	<unicode hex="0438"/>
	<advance width="627"/>
	<outline>
		<contour>
			<point x="41" y="0" type="line"/>
			<point x="266" y="0" type="line"/>
			<point x="266" y="30" type="line"/>
			<point x="166" y="48" type="line"/>
			<point x="143" y="48" type="line"/>
			<point x="41" y="30" type="line"/>
		</contour>
		<contour>
			<point x="361" y="0" type="line"/>
			<point x="585" y="0" type="line"/>
			<point x="585" y="30" type="line"/>
			<point x="485" y="48" type="line"/>
			<point x="462" y="48" type="line"/>
			<point x="361" y="30" type="line"/>
		</contour>
		<contour>
			<point x="111" y="0" type="curve"/>
			<point x="191" y="0" type="line"/>
			<point x="191" y="469" type="line"/>
			<point x="111" y="469" type="line"/>
			<point x="113" y="424"/>
			<point x="114" y="323"/>
			<point x="114" y="260" type="curve" smooth="yes"/>
			<point x="114" y="208" type="line" smooth="yes"/>
			<point x="114" y="145"/>
			<point x="113" y="45"/>
		</contour>
		<contour>
			<point x="162" y="41" type="line"/>
			<point x="326" y="221" type="line"/>
			<point x="490" y="400" type="line"/>
			<point x="497" y="400" type="line"/>
			<point x="469" y="429" type="line"/>
			<point x="302" y="247" type="line"/>
			<point x="136" y="66" type="line"/>
			<point x="127" y="66" type="line"/>
		</contour>
		<contour>
			<point x="436" y="0" type="line"/>
			<point x="516" y="0" type="line"/>
			<point x="514" y="45"/>
			<point x="513" y="145"/>
			<point x="513" y="208" type="curve" smooth="yes"/>
			<point x="513" y="260" type="line" smooth="yes"/>
			<point x="513" y="323"/>
			<point x="514" y="424"/>
			<point x="516" y="469" type="curve"/>
			<point x="436" y="469" type="line"/>
		</contour>
		<contour>
			<point x="41" y="438" type="line"/>
			<point x="145" y="420" type="line"/>
			<point x="167" y="420" type="line"/>
			<point x="266" y="438" type="line"/>
			<point x="266" y="469" type="line"/>
			<point x="41" y="469" type="line"/>
		</contour>
		<contour>
			<point x="361" y="438" type="line"/>
			<point x="463" y="420" type="line"/>
			<point x="486" y="420" type="line"/>
			<point x="585" y="438" type="line"/>
			<point x="585" y="469" type="line"/>
			<point x="361" y="469" type="line"/>
		</contour>
	</outline>
	<anchor name="aboveLC" x="314" y="489"/>
</glyph>
<glyph name="ka" format="2">
	<unicode hex="043A"/>
	<advance width="540"/>
	<outline>
		<contour>
			<point x="41" y="0" type="line"/>
			<point x="266" y="0" type="line"/>
			<point x="266" y="30" type="line"/>
			<point x="167" y="48" type="line"/>
			<point x="145" y="48" type="line"/>
			<point x="41" y="30" type="line"/>
		</contour>
		<contour>
			<point x="41" y="438" type="line"/>
			<point x="145" y="420" type="line"/>
			<point x="167" y="420" type="line"/>
			<point x="266" y="438" type="line"/>
			<point x="266" y="469" type="line"/>
			<point x="41" y="469" type="line"/>
		</contour>
		<contour>
			<point x="111" y="0" type="curve"/>
			<point x="197" y="0" type="line"/>
			<point x="195" y="45"/>
			<point x="194" y="145"/>
			<point x="194" y="216" type="curve" smooth="yes"/>
			<point x="194" y="254" type="line" smooth="yes"/>
			<point x="194" y="323"/>
			<point x="195" y="424"/>
			<point x="197" y="469" type="curve"/>
			<point x="111" y="469" type="line"/>
			<point x="113" y="424"/>
			<point x="114" y="323"/>
			<point x="114" y="260" type="curve" smooth="yes"/>
			<point x="114" y="208" type="line" smooth="yes"/>
			<point x="114" y="145"/>
			<point x="113" y="45"/>
		</contour>
		<contour>
			<point x="372" y="51" type="line" smooth="yes"/>
			<point x="388" y="1"/>
			<point x="411" y="-10"/>
			<point x="464" y="-10" type="curve" smooth="yes"/>
			<point x="482" y="-10"/>
			<point x="507" y="-5"/>
			<point x="526" y="0" type="curve"/>
			<point x="526" y="30" type="line"/>
			<point x="412" y="48" type="line"/>
			<point x="468" y="9" type="line"/>
			<point x="423" y="129" type="line" smooth="yes"/>
			<point x="395" y="203"/>
			<point x="352" y="236"/>
			<point x="257" y="244" type="curve"/>
			<point x="273" y="228" type="line"/>
			<point x="329" y="241"/>
			<point x="359" y="268"/>
			<point x="384" y="341" type="curve" smooth="yes"/>
			<point x="398" y="383"/>
			<point x="415" y="409"/>
			<point x="432" y="429" type="curve"/>
			<point x="381" y="395" type="line"/>
			<point x="408" y="389"/>
			<point x="425" y="383"/>
			<point x="455" y="383" type="curve" smooth="yes"/>
			<point x="494" y="383"/>
			<point x="513" y="401"/>
			<point x="513" y="430" type="curve" smooth="yes"/>
			<point x="513" y="454"/>
			<point x="501" y="471"/>
			<point x="471" y="479" type="curve"/>
			<point x="410" y="475"/>
			<point x="380" y="441"/>
			<point x="350" y="356" type="curve" smooth="yes"/>
			<point x="321" y="275"/>
			<point x="290" y="256"/>
			<point x="244" y="256" type="curve" smooth="yes"/>
			<point x="152" y="256" type="line"/>
			<point x="152" y="219" type="line"/>
			<point x="245" y="219" type="line" smooth="yes"/>
			<point x="298" y="219"/>
			<point x="322" y="198"/>
			<point x="337" y="153" type="curve" smooth="yes"/>
		</contour>
	</outline>
	<anchor name="aboveLC" x="289" y="489"/>
</glyph>
<glyph name="che" format="2">
	<unicode hex="0447"/>
	<advance width="545"/>
	<outline>
		<contour>
			<point x="219" y="185" type="curve" smooth="yes"/>
			<point x="290" y="185"/>
			<point x="335" y="205"/>
			<point x="391" y="231" type="curve"/>
			<point x="391" y="264" type="line"/>
			<point x="344" y="243"/>
			<point x="309" y="233"/>
			<point x="248" y="233" type="curve" smooth="yes"/>
			<point x="182" y="233"/>
			<point x="154" y="253"/>
			<point x="154" y="315" type="curve" smooth="yes"/>
			<point x="154" y="377"/>
			<point x="154" y="422"/>
			<point x="156" y="469" type="curve"/>
			<point x="78" y="469" type="line"/>
			<point x="76" y="418"/>
			<point x="74" y="365"/>
			<point x="74" y="315" type="curve" smooth="yes"/>
			<point x="74" y="223"/>
			<point x="122" y="185"/>
		</contour>
		<contour>
			<point x="347" y="0" type="curve"/>
			<point x="434" y="0" type="line"/>
			<point x="432" y="45"/>
			<point x="431" y="145"/>
			<point x="431" y="208" type="curve" smooth="yes"/>
			<point x="431" y="260" type="line" smooth="yes"/>
			<point x="431" y="323"/>
			<point x="432" y="424"/>
			<point x="434" y="469" type="curve"/>
			<point x="347" y="469" type="line"/>
			<point x="350" y="424"/>
			<point x="351" y="323"/>
			<point x="351" y="260" type="curve" smooth="yes"/>
			<point x="351" y="208" type="line" smooth="yes"/>
			<point x="351" y="145"/>
			<point x="350" y="45"/>
		</contour>
		<contour>
			<point x="14" y="438" type="line"/>
			<point x="106" y="420" type="line"/>
			<point x="124" y="420" type="line"/>
			<point x="223" y="438" type="line"/>
			<point x="223" y="469" type="line"/>
			<point x="14" y="469" type="line"/>
		</contour>
		<contour>
			<point x="278" y="0" type="line"/>
			<point x="503" y="0" type="line"/>
			<point x="503" y="30" type="line"/>
			<point x="400" y="48" type="line"/>
			<point x="377" y="48" type="line"/>
			<point x="278" y="30" type="line"/>
		</contour>
		<contour>
			<point x="279" y="438" type="line"/>
			<point x="382" y="420" type="line"/>
			<point x="404" y="420" type="line"/>
			<point x="503" y="438" type="line"/>
			<point x="503" y="469" type="line"/>
			<point x="279" y="469" type="line"/>
		</contour>
	</outline>
	<anchor name="aboveLC" x="255" y="489"/>
</glyph>
<glyph name="ecyr" format="2">
	<unicode hex="044D"/>
	<advance width="472"/>
	<outline>
		<contour>
			<point x="197" y="-13" type="curve" smooth="yes"/>
			<point x="342" y="-13"/>
			<point x="428" y="77"/>
			<point x="428" y="239" type="curve" smooth="yes"/>
			<point x="428" y="397"/>
			<point x="330" y="481"/>
			<point x="211" y="481" type="curve" smooth="yes"/>
			<point x="158" y="481"/>
			<point x="96" y="466"/>
			<point x="56" y="442" type="curve"/>
			<point x="60" y="322" type="line"/>
			<point x="105" y="322" type="line"/>
			<point x="133" y="446" type="line"/>
			<point x="97" y="406" type="line"/>
			<point x="124" y="431"/>
			<point x="150" y="442"/>
			<point x="199" y="442" type="curve" smooth="yes"/>
			<point x="285" y="442"/>
			<point x="345" y="384"/>
			<point x="345" y="237" type="curve" smooth="yes"/>
			<point x="345" y="89"/>
			<point x="292" y="26"/>
			<point x="198" y="26" type="curve" smooth="yes"/>
			<point x="165" y="26"/>
			<point x="136" y="30"/>
			<point x="108" y="49" type="curve"/>
			<point x="149" y="16" type="line"/>
			<point x="130" y="92" type="line" smooth="yes"/>
			<point x="123" y="121"/>
			<point x="110" y="136"/>
			<point x="84" y="136" type="curve" smooth="yes"/>
			<point x="65" y="136"/>
			<point x="50" y="124"/>
			<point x="44" y="104" type="curve"/>
			<point x="48" y="38"/>
			<point x="110" y="-13"/>
		</contour>
		<contour>
			<point x="152" y="216" type="line"/>
			<point x="383" y="222" type="line"/>
			<point x="383" y="259" type="line"/>
			<point x="152" y="262" type="line"/>
		</contour>
	</outline>
	<anchor name="aboveLC" x="225" y="489"/>
</glyph>
<glyph name="ya" format="2">
	<unicode hex="044F"/>
	<advance width="521"/>
	<outline>
		<contour>
			<point x="251" y="469" type="line" smooth="yes"/>
			<point x="134" y="468"/>
			<point x="73" y="418"/>
			<point x="73" y="337" type="curve" smooth="yes"/>
			<point x="73" y="269"/>
			<point x="119" y="213"/>
			<point x="241" y="213" type="curve"/>
			<point x="254" y="223" type="line"/>
			<point x="191" y="216"/>
			<point x="147" y="183"/>
			<point x="118" y="120" type="curve" smooth="yes"/>
			<point x="71" y="15" type="line"/>
			<point x="117" y="47" type="line"/>
			<point x="13" y="30" type="line"/>
			<point x="13" y="0" type="line"/>
			<point x="27" y="-4"/>
			<point x="54" y="-10"/>
			<point x="79" y="-10" type="curve"/>
			<point x="126" y="-10"/>
			<point x="143" y="0"/>
			<point x="157" y="33" type="curve" smooth="yes"/>
			<point x="203" y="131" type="line" smooth="yes"/>
			<point x="225" y="179"/>
			<point x="235" y="201"/>
			<point x="288" y="201" type="curve" smooth="yes"/>
			<point x="366" y="201" type="line"/>
			<point x="366" y="236" type="line"/>
			<point x="268" y="236" type="line" smooth="yes"/>
			<point x="191" y="236"/>
			<point x="153" y="266"/>
			<point x="153" y="339" type="curve" smooth="yes"/>
			<point x="153" y="400"/>
			<point x="187" y="431"/>
			<point x="260" y="431" type="curve" smooth="yes"/>
			<point x="366" y="431" type="line"/>
			<point x="377" y="420" type="line"/>
			<point x="480" y="438" type="line"/>
			<point x="480" y="469" type="line"/>
		</contour>
		<contour>
			<point x="325" y="0" type="curve"/>
			<point x="411" y="0" type="line"/>
			<point x="408" y="45"/>
			<point x="407" y="145"/>
			<point x="407" y="208" type="curve" smooth="yes"/>
			<point x="407" y="260" type="line" smooth="yes"/>
			<point x="407" y="323"/>
			<point x="408" y="424"/>
			<point x="411" y="469" type="curve"/>
			<point x="325" y="469" type="line"/>
			<point x="327" y="424"/>
			<point x="328" y="323"/>
			<point x="328" y="260" type="curve" smooth="yes"/>
			<point x="328" y="208" type="line" smooth="yes"/>
			<point x="328" y="145"/>
			<point x="327" y="45"/>
		</contour>
		<contour>
			<point x="256" y="0" type="line"/>
			<point x="480" y="0" type="line"/>
			<point x="480" y="30" type="line"/>
			<point x="382" y="48" type="line"/>
			<point x="358" y="48" type="line"/>
			<point x="256" y="30" type="line"/>
		</contour>
	</outline>
	<anchor name="aboveLC" x="278" y="489"/>
</glyph>
<glyph name="dzhe" format="2">
	<unicode hex="045F"/>
	<advance width="614"/>
	<outline>
		<contour>
			<point x="111" y="0" type="curve"/>
			<point x="197" y="0" type="line"/>
			<point x="195" y="45"/>
			<point x="194" y="145"/>
			<point x="194" y="208" type="curve" smooth="yes"/>
			<point x="194" y="260" type="line" smooth="yes"/>
			<point x="194" y="323"/>
			<point x="195" y="424"/>
			<point x="197" y="469" type="curve"/>
			<point x="111" y="469" type="line"/>
			<point x="113" y="424"/>
			<point x="114" y="323"/>
			<point x="114" y="260" type="curve" smooth="yes"/>
			<point x="114" y="208" type="line" smooth="yes"/>
			<point x="114" y="145"/>
			<point x="113" y="45"/>
		</contour>
		<contour>
			<point x="408" y="0" type="curve"/>
			<point x="494" y="0" type="line"/>
			<point x="492" y="45"/>
			<point x="491" y="145"/>
			<point x="491" y="208" type="curve" smooth="yes"/>
			<point x="491" y="260" type="line" smooth="yes"/>
			<point x="491" y="323"/>
			<point x="492" y="424"/>
			<point x="494" y="469" type="curve"/>
			<point x="408" y="469" type="line"/>
			<point x="410" y="424"/>
			<point x="411" y="323"/>
			<point x="411" y="260" type="curve" smooth="yes"/>
			<point x="411" y="208" type="line" smooth="yes"/>
			<point x="411" y="145"/>
			<point x="410" y="45"/>
		</contour>
		<contour>
			<point x="41" y="438" type="line"/>
			<point x="145" y="420" type="line"/>
			<point x="165" y="420" type="line"/>
			<point x="263" y="438" type="line"/>
			<point x="263" y="469" type="line"/>
			<point x="41" y="469" type="line"/>
		</contour>
		<contour>
			<point x="341" y="438" type="line"/>
			<point x="444" y="420" type="line"/>
			<point x="465" y="420" type="line"/>
			<point x="563" y="438" type="line"/>
			<point x="563" y="469" type="line"/>
			<point x="341" y="469" type="line"/>
		</contour>
		<contour>
			<point x="41" y="0" type="line"/>
			<point x="156" y="0" type="line"/>
			<point x="156" y="48" type="line"/>
			<point x="145" y="48" type="line"/>
			<point x="41" y="30" type="line"/>
		</contour>
		<contour>
			<point x="459" y="0" type="line"/>
			<point x="573" y="0" type="line"/>
			<point x="573" y="30" type="line"/>
			<point x="470" y="48" type="line"/>
			<point x="459" y="48" type="line"/>
		</contour>
		<contour>
			<point x="153" y="0" type="line"/>
			<point x="460" y="0" type="line"/>
			<point x="460" y="37" type="line"/>
			<point x="153" y="37" type="line"/>
		</contour>
		<contour>
			<point x="286" y="-163" type="line"/>
			<point x="325" y="-163" type="line"/>
			<point x="344" y="27" type="line"/>
			<point x="268" y="27" type="line"/>
		</contour>
	</outline>
</glyph>
<glyph name="Yat" format="2">
	<unicode hex="0462"/>
	<advance width="690"/>
	<outline>
		<contour>
			<point x="30" y="418" type="line"/>
			<point x="76" y="418" type="line"/>
			<point x="112" y="586" type="line"/>
			<point x="71" y="547" type="line"/>
			<point x="541" y="547" type="line"/>
			<point x="500" y="586" type="line"/>
			<point x="536" y="429" type="line"/>
			<point x="582" y="429" type="line"/>
			<point x="575" y="590" type="line"/>
			<point x="37" y="590" type="line"/>
		</contour>
		<contour>
			<point x="285" y="0" type="line"/>
			<point x="404" y="0" type="line" smooth="yes"/>
			<point x="596" y="0"/>
			<point x="669" y="94"/>
			<point x="669" y="195" type="curve" smooth="yes"/>
			<point x="669" y="296"/>
			<point x="583" y="373"/>
			<point x="428" y="373" type="curve" smooth="yes"/>
			<point x="383" y="373"/>
			<point x="334" y="369"/>
			<point x="285" y="362" type="curve"/>
			<point x="285" y="319" type="line"/>
			<point x="323" y="327"/>
			<point x="361" y="330"/>
			<point x="401" y="330" type="curve" smooth="yes"/>
			<point x="528" y="330"/>
			<point x="576" y="279"/>
			<point x="576" y="192" type="curve" smooth="yes"/>
			<point x="576" y="94"/>
			<point x="520" y="41"/>
			<point x="398" y="41" type="curve" smooth="yes"/>
			<point x="285" y="41" type="line"/>
		</contour>
		<contour>
			<point x="237" y="0" type="curve"/>
			<point x="331" y="0" type="line"/>
			<point x="329" y="103"/>
			<point x="329" y="208"/>
			<point x="329" y="333" type="curve" smooth="yes"/>
			<point x="329" y="374" type="line" smooth="yes"/>
			<point x="329" y="527"/>
			<point x="329" y="633"/>
			<point x="331" y="731" type="curve"/>
			<point x="237" y="731" type="line"/>
			<point x="240" y="631"/>
			<point x="240" y="526"/>
			<point x="240" y="419" type="curve" smooth="yes"/>
			<point x="240" y="318" type="line" smooth="yes"/>
			<point x="240" y="207"/>
			<point x="240" y="102"/>
		</contour>
		<contour>
			<point x="149" y="697" type="line"/>
			<point x="273" y="683" type="line"/>
			<point x="303" y="683" type="line"/>
			<point x="425" y="697" type="line"/>
			<point x="425" y="731" type="line"/>
			<point x="149" y="731" type="line"/>
		</contour>
		<contour>
			<point x="149" y="0" type="line"/>
			<point x="289" y="0" type="line"/>
			<point x="289" y="48" type="line"/>
			<point x="273" y="48" type="line"/>
			<point x="149" y="34" type="line"/>
		</contour>
	</outline>
	<anchor name="aboveUC" x="288" y="741"/>
</glyph>
<glyph name="Fita" format="2">
	<unicode hex="0472"/>
	<advance width="686"/>
	<outline>
		<contour>
			<point x="595" y="322" type="line"/>
			<point x="595" y="363" type="line"/>
			<point x="89" y="363" type="line"/>
			<point x="89" y="322" type="line"/>
		</contour>
		<contour>
			<point x="142" y="335" type="curve" smooth="yes"/>
			<point x="142" y="509"/>
			<point x="197" y="643"/>
			<point x="344" y="643" type="curve" smooth="yes"/>
			<point x="489" y="643"/>
			<point x="544" y="508"/>
			<point x="544" y="334" type="curve" smooth="yes"/>
			<point x="544" y="159"/>
			<point x="489" y="27"/>
			<point x="344" y="27" type="curve" smooth="yes"/>
			<point x="197" y="27"/>
			<point x="142" y="161"/>
		</contour>
		<contour>
			<point x="344" y="685" type="curve" smooth="yes"/>
			<point x="181" y="685"/>
			<point x="45" y="561"/>
			<point x="45" y="335" type="curve" smooth="yes"/>
			<point x="45" y="106"/>
			<point x="180" y="-15"/>
			<point x="344" y="-15" type="curve" smooth="yes"/>
			<point x="506" y="-15"/>
			<point x="641" y="100"/>
			<point x="641" y="334" type="curve" smooth="yes"/>
			<point x="641" y="569"/>
			<point x="505" y="685"/>
		</contour>
	</outline>
	<anchor name="aboveUC" x="343" y="690"/>
</glyph>
<glyph name="Izhitsa" format="2">
	<unicode hex="0474"/>
	<advance width="667"/>
	<outline>
		<contour>
			<point x="312" y="-7" type="line"/>
			<point x="350" y="-7" type="line"/>
			<point x="489" y="460" type="line" smooth="yes"/>
			<point x="521" y="565"/>
			<point x="545" y="610"/>
			<point x="567" y="631" type="curve"/>
			<point x="534" y="638" type="line"/>
			<point x="522" y="628" type="line"/>
			<point x="541" y="602"/>
			<point x="569" y="578"/>
			<point x="607" y="578" type="curve" smooth="yes"/>
			<point x="643" y="578"/>
			<point x="663" y="597"/>
			<point x="670" y="626" type="curve"/>
			<point x="669" y="662"/>
			<point x="641" y="685"/>
			<point x="600" y="685" type="curve" smooth="yes"/>
			<point x="528" y="685"/>
			<point x="498" y="636"/>
			<point x="451" y="476" type="curve" smooth="yes"/>
			<point x="347" y="115" type="line"/>
			<point x="343" y="102" type="line"/>
			<point x="356" y="102" type="line"/>
			<point x="167" y="670" type="line"/>
			<point x="72" y="670" type="line"/>
		</contour>
		<contour>
			<point x="14" y="636" type="line"/>
			<point x="131" y="622" type="line"/>
			<point x="158" y="622" type="line"/>
			<point x="276" y="633" type="line"/>
			<point x="276" y="670" type="line"/>
			<point x="14" y="670" type="line"/>
		</contour>
	</outline>
	<anchor name="aboveUC" x="373" y="690"/>
</glyph>
<glyph name="Zhedescender" format="2">
	<unicode hex="0496"/>
	<advance width="906"/>
	<outline>
		<contour>
			<point x="774" y="0" type="line"/>
			<point x="878" y="0" type="line"/>
			<point x="826" y="33" type="line"/>
			<point x="853" y="-184" type="line"/>
			<point x="899" y="-184" type="line"/>
			<point x="906" y="35" type="line"/>
			<point x="774" y="48" type="line"/>
		</contour>
		<component base="Zhe"/>
	</outline>
</glyph>
<glyph name="zhedescender" format="2">
	<unicode hex="0497"/>
	<advance width="741"/>
	<outline>
		<contour>
			<point x="713" y="0" type="line"/>
			<point x="666" y="34" type="line"/>
			<point x="694" y="-153" type="line"/>
			<point x="732" y="-153" type="line"/>
			<point x="739" y="32" type="line"/>
			<point x="625" y="47" type="line"/>
			<point x="632" y="0" type="line"/>
		</contour>
		<component base="zhe"/>
	</outline>
</glyph>
<glyph name="kadescender" format="2">
	<unicode hex="049B"/>
	<advance width="540"/>
	<outline>
		<contour>
			<point x="508" y="0" type="line"/>
			<point x="462" y="34" type="line"/>
			<point x="489" y="-153" type="line"/>
			<point x="527" y="-153" type="line"/>
			<point x="535" y="32" type="line"/>
			<point x="419" y="47" type="line"/>
			<point x="426" y="0" type="line"/>
		</contour>
		<component base="ka"/>
	</outline>
</glyph>
<glyph name="endescender" format="2">
	<unicode hex="04A3"/>
	<advance width="620"/>
	<outline>
		<contour>
			<point x="561" y="0" type="line"/>
			<point x="515" y="34" type="line"/>
			<point x="543" y="-153" type="line"/>
			<point x="580" y="-153" type="line"/>
			<point x="588" y="29" type="line"/>
			<point x="471" y="50" type="line"/>
			<point x="471" y="0" type="line"/>
		</contour>
		<component base="en"/>
	</outline>
</glyph>
<glyph name="Hadescender" format="2">
	<unicode hex="04B2"/>
	<advance width="638"/>
	<outline>
		<contour>
			<point x="507" y="0" type="line"/>
			<point x="612" y="0" type="line"/>
			<point x="559" y="33" type="line"/>
			<point x="586" y="-184" type="line"/>
			<point x="632" y="-184" type="line"/>
			<point x="639" y="35" type="line"/>
			<point x="507" y="49" type="line"/>
		</contour>
		<component base="Ha"/>
	</outline>
</glyph>
<glyph name="Chedescender" format="2">
	<unicode hex="04B6"/>
	<advance width="677"/>
	<outline>
		<contour>
			<point x="531" y="0" type="line"/>
			<point x="618" y="0" type="line"/>
			<point x="566" y="33" type="line"/>
			<point x="592" y="-184" type="line"/>
			<point x="638" y="-184" type="line"/>
			<point x="646" y="35" type="line"/>
			<point x="531" y="46" type="line"/>
		</contour>
		<component base="Che"/>
	</outline>
</glyph>
<glyph name="chedescender" format="2">
	<unicode hex="04B7"/>
	<advance width="545"/>
	<outline>
		<contour>
			<point x="485" y="0" type="line"/>
			<point x="439" y="34" type="line"/>
			<point x="466" y="-153" type="line"/>
			<point x="504" y="-153" type="line"/>
			<point x="512" y="33" type="line"/>
			<point x="393" y="49" type="line"/>
			<point x="393" y="0" type="line"/>
		</contour>
		<component base="che"/>
	</outline>
</glyph>
<glyph name="Schwacyr" format="2">
	<unicode hex="04D8"/>
	<advance width="638"/>
	<outline>
		<contour>
			<point x="318" y="-15" type="curve" smooth="yes"/>
			<point x="470" y="-15"/>
			<point x="592" y="120"/>
			<point x="592" y="340" type="curve" smooth="yes"/>
			<point x="592" y="560"/>
			<point x="466" y="685"/>
			<point x="302" y="685" type="curve" smooth="yes"/>
			<point x="228" y="685"/>
			<point x="157" y="664"/>
			<point x="90" y="623" type="curve"/>
			<point x="87" y="472" type="line"/>
			<point x="136" y="472" type="line"/>
			<point x="172" y="645" type="line"/>
			<point x="114" y="582" type="line"/>
			<point x="172" y="622"/>
			<point x="224" y="636"/>
			<point x="283" y="636" type="curve" smooth="yes"/>
			<point x="400" y="636"/>
			<point x="495" y="546"/>
			<point x="495" y="329" type="curve" smooth="yes"/>
			<point x="495" y="119"/>
			<point x="429" y="27"/>
			<point x="319" y="27" type="curve" smooth="yes"/>
			<point x="204" y="27"/>
			<point x="141" y="139"/>
			<point x="141" y="248" type="curve" smooth="yes"/>
			<point x="141" y="279"/>
			<point x="143" y="299"/>
			<point x="147" y="322" type="curve"/>
			<point x="535" y="322" type="line"/>
			<point x="535" y="363" type="line"/>
			<point x="55" y="363" type="line"/>
			<point x="51" y="343"/>
			<point x="48" y="308"/>
			<point x="48" y="276" type="curve" smooth="yes"/>
			<point x="48" y="103"/>
			<point x="149" y="-15"/>
		</contour>
	</outline>
</glyph>
<glyph name="b.sups" format="2">
	<unicode hex="1D47"/>
	<advance width="390"/>
	<outline>
		<contour>
			<point x="22" y="426" type="line"/>
			<point x="128" y="417" type="line"/>
			<point x="134" y="483" type="line"/>
			<point x="134" y="485" type="line"/>
			<point x="134" y="683" type="line"/>
			<point x="134" y="684" type="line"/>
			<point x="134" y="891" type="line"/>
			<point x="123" y="896" type="line"/>
			<point x="17" y="867" type="line"/>
			<point x="17" y="845" type="line"/>
			<point x="69" y="837" type="line"/>
			<point x="69" y="457" type="line"/>
			<point x="22" y="449" type="line"/>
		</contour>
		<contour>
			<point x="224" y="416" type="curve" smooth="yes"/>
			<point x="299" y="416"/>
			<point x="360" y="474"/>
			<point x="360" y="582" type="curve" smooth="yes"/>
			<point x="360" y="691"/>
			<point x="301" y="741"/>
			<point x="233" y="741" type="curve" smooth="yes"/>
			<point x="181" y="741"/>
			<point x="141" y="711"/>
			<point x="107" y="660" type="curve"/>
			<point x="103" y="660" type="line"/>
			<point x="111" y="643" type="line"/>
			<point x="148" y="680"/>
			<point x="179" y="701"/>
			<point x="215" y="701" type="curve" smooth="yes"/>
			<point x="259" y="701"/>
			<point x="292" y="670"/>
			<point x="292" y="579" type="curve" smooth="yes"/>
			<point x="292" y="490"/>
			<point x="257" y="458"/>
			<point x="212" y="458" type="curve" smooth="yes"/>
			<point x="174" y="458"/>
			<point x="145" y="477"/>
			<point x="110" y="513" type="curve"/>
			<point x="107" y="510" type="line"/>
			<point x="106" y="498" type="line"/>
			<point x="138" y="440"/>
			<point x="177" y="416"/>
		</contour>
	</outline>
</glyph>
<glyph name="d.sups" format="2">
	<unicode hex="1D48"/>
	<advance width="382"/>
	<outline>
		<contour>
			<point x="159" y="417" type="curve" smooth="yes"/>
			<point x="212" y="417"/>
			<point x="248" y="450"/>
			<point x="282" y="500" type="curve"/>
			<point x="282" y="510" type="line"/>
			<point x="278" y="514" type="line"/>
			<point x="245" y="479"/>
			<point x="217" y="459"/>
			<point x="182" y="459" type="curve" smooth="yes"/>
			<point x="135" y="459"/>
			<point x="97" y="487"/>
			<point x="97" y="579" type="curve" smooth="yes"/>
			<point x="97" y="670"/>
			<point x="133" y="702"/>
			<point x="182" y="702" type="curve" smooth="yes"/>
			<point x="211" y="702"/>
			<point x="241" y="683"/>
			<point x="275" y="648" type="curve"/>
			<point x="283" y="664" type="line"/>
			<point x="279" y="664" type="line"/>
			<point x="248" y="716"/>
			<point x="215" y="743"/>
			<point x="168" y="743" type="curve" smooth="yes"/>
			<point x="94" y="743"/>
			<point x="29" y="687"/>
			<point x="29" y="578" type="curve" smooth="yes"/>
			<point x="29" y="467"/>
			<point x="91" y="417"/>
		</contour>
		<contour>
			<point x="262" y="420" type="line"/>
			<point x="369" y="427" type="line"/>
			<point x="369" y="450" type="line"/>
			<point x="320" y="459" type="line"/>
			<point x="320" y="892" type="line"/>
			<point x="312" y="897" type="line"/>
			<point x="204" y="869" type="line"/>
			<point x="204" y="846" type="line"/>
			<point x="255" y="839" type="line"/>
			<point x="255" y="682" type="line"/>
			<point x="255" y="679" type="line"/>
			<point x="255" y="483" type="line"/>
			<point x="255" y="481" type="line"/>
		</contour>
	</outline>
</glyph>
<glyph name="e.sups" format="2">
	<unicode hex="1D49"/>
	<advance width="341"/>
	<outline>
		<contour>
			<point x="182" y="417" type="curve" smooth="yes"/>
			<point x="240" y="417"/>
			<point x="284" y="447"/>
			<point x="308" y="500" type="curve"/>
			<point x="293" y="511" type="line"/>
			<point x="270" y="482"/>
			<point x="243" y="465"/>
			<point x="200" y="465" type="curve" smooth="yes"/>
			<point x="139" y="465"/>
			<point x="96" y="505"/>
			<point x="96" y="585" type="curve" smooth="yes"/>
			<point x="96" y="682"/>
			<point x="142" y="713"/>
			<point x="182" y="713" type="curve" smooth="yes"/>
			<point x="220" y="713"/>
			<point x="250" y="689"/>
			<point x="250" y="644" type="curve" smooth="yes"/>
			<point x="250" y="620"/>
			<point x="242" y="609"/>
			<point x="210" y="609" type="curve" smooth="yes"/>
			<point x="57" y="609" type="line"/>
			<point x="57" y="581" type="line"/>
			<point x="306" y="581" type="line"/>
			<point x="308" y="591"/>
			<point x="310" y="602"/>
			<point x="310" y="616" type="curve" smooth="yes"/>
			<point x="310" y="692"/>
			<point x="258" y="743"/>
			<point x="185" y="743" type="curve" smooth="yes"/>
			<point x="100" y="743"/>
			<point x="29" y="677"/>
			<point x="29" y="578" type="curve" smooth="yes"/>
			<point x="29" y="476"/>
			<point x="91" y="417"/>
		</contour>
	</outline>
</glyph>
<glyph name="g.sups" format="2">
	<unicode hex="1D4D"/>
	<advance width="349"/>
	<outline>
		<contour>
			<point x="157" y="272" type="curve" smooth="yes"/>
			<point x="271" y="272"/>
			<point x="330" y="329"/>
			<point x="330" y="389" type="curve" smooth="yes"/>
			<point x="330" y="443"/>
			<point x="295" y="476"/>
			<point x="216" y="476" type="curve" smooth="yes"/>
			<point x="142" y="476" type="line" smooth="yes"/>
			<point x="104" y="476"/>
			<point x="91" y="485"/>
			<point x="91" y="506" type="curve" smooth="yes"/>
			<point x="91" y="523"/>
			<point x="99" y="536"/>
			<point x="114" y="551" type="curve"/>
			<point x="103" y="562" type="line"/>
			<point x="103" y="559" type="line"/>
			<point x="59" y="533"/>
			<point x="40" y="509"/>
			<point x="40" y="477" type="curve" smooth="yes"/>
			<point x="40" y="451"/>
			<point x="55" y="429"/>
			<point x="89" y="418" type="curve"/>
			<point x="89" y="417" type="line"/>
			<point x="102" y="413"/>
			<point x="119" y="411"/>
			<point x="136" y="411" type="curve" smooth="yes"/>
			<point x="208" y="411" type="line" smooth="yes"/>
			<point x="254" y="411"/>
			<point x="273" y="392"/>
			<point x="273" y="365" type="curve" smooth="yes"/>
			<point x="273" y="330"/>
			<point x="235" y="301"/>
			<point x="162" y="301" type="curve" smooth="yes"/>
			<point x="107" y="301"/>
			<point x="73" y="320"/>
			<point x="73" y="362" type="curve" smooth="yes"/>
			<point x="73" y="388"/>
			<point x="86" y="405"/>
			<point x="107" y="426" type="curve"/>
			<point x="103" y="430" type="line"/>
			<point x="44" y="408"/>
			<point x="18" y="382"/>
			<point x="18" y="349" type="curve" smooth="yes"/>
			<point x="18" y="305"/>
			<point x="57" y="272"/>
		</contour>
		<contour>
			<point x="160" y="532" type="curve" smooth="yes"/>
			<point x="233" y="532"/>
			<point x="284" y="573"/>
			<point x="284" y="637" type="curve" smooth="yes"/>
			<point x="284" y="664"/>
			<point x="276" y="685"/>
			<point x="262" y="702" type="curve"/>
			<point x="260" y="703" type="line"/>
			<point x="242" y="728"/>
			<point x="204" y="742"/>
			<point x="160" y="742" type="curve" smooth="yes"/>
			<point x="87" y="742"/>
			<point x="36" y="702"/>
			<point x="36" y="637" type="curve" smooth="yes"/>
			<point x="36" y="571"/>
			<point x="85" y="532"/>
		</contour>
		<contour>
			<point x="158" y="556" type="curve" smooth="yes"/>
			<point x="121" y="556"/>
			<point x="99" y="586"/>
			<point x="99" y="636" type="curve" smooth="yes"/>
			<point x="99" y="686"/>
			<point x="122" y="718"/>
			<point x="160" y="718" type="curve" smooth="yes"/>
			<point x="198" y="718"/>
			<point x="220" y="688"/>
			<point x="220" y="638" type="curve" smooth="yes"/>
			<point x="220" y="588"/>
			<point x="197" y="556"/>
		</contour>
		<contour>
			<point x="240" y="691" type="line"/>
			<point x="334" y="691" type="line"/>
			<point x="334" y="735" type="line"/>
			<point x="325" y="741" type="line"/>
			<point x="241" y="708" type="line"/>
			<point x="239" y="708" type="line"/>
		</contour>
	</outline>
</glyph>
<glyph name="k.sups" format="2">
	<unicode hex="1D4F"/>
	<advance width="368"/>
	<outline>
		<contour>
			<point x="69" y="427" type="line"/>
			<point x="134" y="427" type="line"/>
			<point x="134" y="892" type="line"/>
			<point x="125" y="897" type="line"/>
			<point x="17" y="869" type="line"/>
			<point x="17" y="846" type="line"/>
			<point x="69" y="839" type="line"/>
		</contour>
		<contour>
			<point x="19" y="427" type="line"/>
			<point x="183" y="427" type="line"/>
			<point x="183" y="452" type="line"/>
			<point x="112" y="463" type="line"/>
			<point x="90" y="463" type="line"/>
			<point x="19" y="452" type="line"/>
		</contour>
		<contour>
			<point x="267" y="427" type="line"/>
			<point x="361" y="427" type="line"/>
			<point x="361" y="452" type="line"/>
			<point x="317" y="460" type="line"/>
			<point x="210" y="635" type="line"/>
			<point x="166" y="590" type="line"/>
		</contour>
		<contour>
			<point x="201" y="706" type="line"/>
			<point x="266" y="697" type="line"/>
			<point x="280" y="697" type="line"/>
			<point x="351" y="706" type="line"/>
			<point x="351" y="732" type="line"/>
			<point x="201" y="732" type="line"/>
		</contour>
		<contour>
			<point x="102" y="506" type="line"/>
			<point x="321" y="732" type="line"/>
			<point x="284" y="732" type="line"/>
			<point x="103" y="541" type="line"/>
			<point x="97" y="541" type="line"/>
		</contour>
	</outline>
</glyph>
<glyph name="o.sups" format="2">
	<unicode hex="1D52"/>
	<advance width="369"/>
	<outline>
		<contour>
			<point x="185" y="416" type="curve" smooth="yes"/>
			<point x="266" y="416"/>
			<point x="341" y="476"/>
			<point x="341" y="579" type="curve" smooth="yes"/>
			<point x="341" y="682"/>
			<point x="266" y="741"/>
			<point x="185" y="741" type="curve" smooth="yes"/>
			<point x="103" y="741"/>
			<point x="28" y="681"/>
			<point x="28" y="579" type="curve" smooth="yes"/>
			<point x="28" y="476"/>
			<point x="101" y="416"/>
		</contour>
		<contour>
			<point x="185" y="445" type="curve" smooth="yes"/>
			<point x="128" y="445"/>
			<point x="96" y="487"/>
			<point x="96" y="579" type="curve" smooth="yes"/>
			<point x="96" y="668"/>
			<point x="128" y="712"/>
			<point x="185" y="712" type="curve" smooth="yes"/>
			<point x="240" y="712"/>
			<point x="272" y="669"/>
			<point x="272" y="579" type="curve" smooth="yes"/>
			<point x="272" y="488"/>
			<point x="240" y="445"/>
		</contour>
	</outline>
</glyph>
<glyph name="p.sups" format="2">
	<unicode hex="1D56"/>
	<advance width="392"/>
	<outline>
		<contour>
			<point x="229" y="416" type="curve" smooth="yes"/>
			<point x="303" y="416"/>
			<point x="364" y="474"/>
			<point x="364" y="582" type="curve" smooth="yes"/>
			<point x="364" y="691"/>
			<point x="305" y="741"/>
			<point x="238" y="741" type="curve" smooth="yes"/>
			<point x="186" y="741"/>
			<point x="149" y="709"/>
			<point x="114" y="658" type="curve"/>
			<point x="111" y="658" type="line"/>
			<point x="117" y="643" type="line"/>
			<point x="155" y="680"/>
			<point x="181" y="701"/>
			<point x="218" y="701" type="curve" smooth="yes"/>
			<point x="263" y="701"/>
			<point x="296" y="670"/>
			<point x="296" y="579" type="curve" smooth="yes"/>
			<point x="296" y="490"/>
			<point x="261" y="458"/>
			<point x="217" y="458" type="curve" smooth="yes"/>
			<point x="182" y="458"/>
			<point x="156" y="474"/>
			<point x="117" y="513" type="curve"/>
			<point x="114" y="510" type="line"/>
			<point x="114" y="500" type="line"/>
			<point x="146" y="442"/>
			<point x="182" y="416"/>
		</contour>
		<contour>
			<point x="74" y="271" type="line"/>
			<point x="139" y="271" type="line"/>
			<point x="139" y="478" type="line"/>
			<point x="139" y="479" type="line"/>
			<point x="139" y="675" type="line"/>
			<point x="139" y="677" type="line"/>
			<point x="132" y="735" type="line"/>
			<point x="123" y="741" type="line"/>
			<point x="22" y="704" type="line"/>
			<point x="22" y="681" type="line"/>
			<point x="74" y="673" type="line"/>
		</contour>
		<contour>
			<point x="23" y="271" type="line"/>
			<point x="195" y="271" type="line"/>
			<point x="195" y="295" type="line"/>
			<point x="118" y="308" type="line"/>
			<point x="95" y="308" type="line"/>
			<point x="23" y="295" type="line"/>
		</contour>
	</outline>
</glyph>
<glyph name="t.sups" format="2">
	<unicode hex="1D57"/>
	<advance width="222"/>
	<outline>
		<contour>
			<point x="137" y="419" type="curve" smooth="yes"/>
			<point x="175" y="419"/>
			<point x="203" y="437"/>
			<point x="219" y="463" type="curve"/>
			<point x="204" y="481" type="line"/>
			<point x="189" y="469"/>
			<point x="174" y="464"/>
			<point x="160" y="464" type="curve" smooth="yes"/>
			<point x="138" y="464"/>
			<point x="124" y="477"/>
			<point x="124" y="509" type="curve" smooth="yes"/>
			<point x="124" y="709" type="line"/>
			<point x="124" y="711" type="line"/>
			<point x="126" y="825" type="line"/>
			<point x="86" y="825" type="line"/>
			<point x="58" y="714" type="line"/>
			<point x="87" y="737" type="line"/>
			<point x="7" y="727" type="line"/>
			<point x="7" y="697" type="line"/>
			<point x="59" y="697" type="line"/>
			<point x="59" y="496" type="line" smooth="yes"/>
			<point x="59" y="444"/>
			<point x="93" y="419"/>
		</contour>
		<contour>
			<point x="91" y="697" type="line"/>
			<point x="209" y="697" type="line"/>
			<point x="209" y="732" type="line"/>
			<point x="91" y="732" type="line"/>
		</contour>
	</outline>
</glyph>
<glyph name="u.sups" format="2">
	<unicode hex="1D58"/>
	<advance width="393"/>
	<outline>
		<contour>
			<point x="150" y="417" type="curve" smooth="yes"/>
			<point x="195" y="417"/>
			<point x="236" y="443"/>
			<point x="267" y="483" type="curve"/>
			<point x="286" y="483" type="line"/>
			<point x="273" y="518" type="line"/>
			<point x="241" y="488"/>
			<point x="207" y="467"/>
			<point x="174" y="467" type="curve" smooth="yes"/>
			<point x="145" y="467"/>
			<point x="125" y="481"/>
			<point x="125" y="539" type="curve" smooth="yes"/>
			<point x="125" y="733" type="line"/>
			<point x="118" y="738" type="line"/>
			<point x="17" y="724" type="line"/>
			<point x="17" y="701" type="line"/>
			<point x="69" y="691" type="line"/>
			<point x="59" y="703" type="line"/>
			<point x="59" y="528" type="line" smooth="yes"/>
			<point x="59" y="449"/>
			<point x="93" y="417"/>
		</contour>
		<contour>
			<point x="271" y="420" type="line"/>
			<point x="371" y="427" type="line"/>
			<point x="371" y="452" type="line"/>
			<point x="328" y="461" type="line"/>
			<point x="328" y="733" type="line"/>
			<point x="322" y="738" type="line"/>
			<point x="220" y="723" type="line"/>
			<point x="220" y="701" type="line"/>
			<point x="263" y="693" type="line"/>
			<point x="263" y="494" type="line"/>
			<point x="263" y="493" type="line"/>
		</contour>
	</outline>
</glyph>
<glyph name="v.sups" format="2">
	<unicode hex="1D5B"/>
	<advance width="341"/>
	<outline>
		<contour>
			<point x="159" y="421" type="line"/>
			<point x="187" y="421" type="line"/>
			<point x="311" y="732" type="line"/>
			<point x="277" y="732" type="line"/>
			<point x="187" y="491" type="line"/>
			<point x="184" y="483" type="line"/>
			<point x="200" y="484" type="line"/>
			<point x="99" y="732" type="line"/>
			<point x="25" y="732" type="line"/>
		</contour>
		<contour>
			<point x="1" y="706" type="line"/>
			<point x="65" y="695" type="line"/>
			<point x="88" y="695" type="line"/>
			<point x="163" y="706" type="line"/>
			<point x="163" y="732" type="line"/>
			<point x="1" y="732" type="line"/>
		</contour>
		<contour>
			<point x="214" y="706" type="line"/>
			<point x="276" y="698" type="line"/>
			<point x="288" y="698" type="line"/>
			<point x="337" y="706" type="line"/>
			<point x="337" y="732" type="line"/>
			<point x="214" y="732" type="line"/>
		</contour>
	</outline>
</glyph>
<glyph name="f.sups" format="2">
	<unicode hex="1DA0"/>
	<advance width="228"/>
	<outline>
		<contour>
			<point x="73" y="427" type="line"/>
			<point x="139" y="427" type="line"/>
			<point x="139" y="704" type="line"/>
			<point x="134" y="786"/>
			<point x="145" y="847"/>
			<point x="171" y="871" type="curve" smooth="yes"/>
			<point x="183" y="884"/>
			<point x="205" y="890"/>
			<point x="223" y="890" type="curve"/>
			<point x="223" y="898" type="line"/>
			<point x="176" y="898" type="line"/>
			<point x="176" y="892" type="line"/>
			<point x="198" y="870" type="line" smooth="yes"/>
			<point x="217" y="850"/>
			<point x="231" y="838"/>
			<point x="250" y="838" type="curve" smooth="yes"/>
			<point x="271" y="838"/>
			<point x="286" y="853"/>
			<point x="288" y="873" type="curve"/>
			<point x="281" y="896"/>
			<point x="253" y="908"/>
			<point x="222" y="908" type="curve" smooth="yes"/>
			<point x="189" y="908"/>
			<point x="155" y="897"/>
			<point x="131" y="874" type="curve" smooth="yes"/>
			<point x="95" y="838"/>
			<point x="79" y="801"/>
			<point x="73" y="725" type="curve"/>
			<point x="95" y="736" type="line"/>
			<point x="21" y="727" type="line"/>
			<point x="21" y="697" type="line"/>
			<point x="73" y="697" type="line"/>
		</contour>
		<contour>
			<point x="23" y="427" type="line"/>
			<point x="198" y="427" type="line"/>
			<point x="198" y="452" type="line"/>
			<point x="120" y="463" type="line"/>
			<point x="95" y="463" type="line"/>
			<point x="23" y="452" type="line"/>
		</contour>
		<contour>
			<point x="105" y="697" type="line"/>
			<point x="224" y="697" type="line"/>
			<point x="224" y="732" type="line"/>
			<point x="105" y="732" type="line"/>
		</contour>
	</outline>
</glyph>
<glyph name="z.sups" format="2">
	<unicode hex="1DBB"/>
	<advance width="303"/>
	<outline>
		<contour>
			<point x="18" y="427" type="line"/>
			<point x="281" y="427" type="line"/>
			<point x="287" y="532" type="line"/>
			<point x="258" y="532" type="line"/>
			<point x="228" y="429" type="line"/>
			<point x="259" y="454" type="line"/>
			<point x="75" y="454" type="line"/>
			<point x="78" y="430" type="line"/>
			<point x="279" y="711" type="line"/>
			<point x="279" y="732" type="line"/>
			<point x="27" y="732" type="line"/>
			<point x="22" y="636" type="line"/>
			<point x="53" y="633" type="line"/>
			<point x="81" y="729" type="line"/>
			<point x="53" y="705" type="line"/>
			<point x="223" y="705" type="line"/>
			<point x="220" y="729" type="line"/>
			<point x="18" y="447" type="line"/>
		</contour>
	</outline>
</glyph>
<glyph name="quoteleft" format="2">
	<unicode hex="2018"/>
	<unicode hex="02BB"/>
	<advance width="205"/>
	<outline>
		<contour>
			<point x="101" y="485" type="curve" smooth="yes"/>
			<point x="140" y="485"/>
			<point x="160" y="511"/>
			<point x="160" y="545" type="curve" smooth="yes"/>
			<point x="160" y="567"/>
			<point x="149" y="583"/>
			<point x="122" y="601" type="curve" smooth="yes"/>
			<point x="74" y="630" type="line"/>
			<point x="82" y="599" type="line"/>
			<point x="97" y="655"/>
			<point x="124" y="679"/>
			<point x="181" y="708" type="curve"/>
			<point x="169" y="738" type="line"/>
			<point x="99" y="712"/>
			<point x="39" y="654"/>
			<point x="39" y="571" type="curve" smooth="yes"/>
			<point x="39" y="551"/>
			<point x="40" y="529"/>
			<point x="47" y="509" type="curve"/>
			<point x="66" y="490"/>
			<point x="83" y="485"/>
		</contour>
	</outline>
</glyph>
<glyph name="daggerdbl" format="2">
	<unicode hex="2021"/>
	<advance width="502"/>
	<outline>
		<contour>
			<point x="251" y="-69" type="curve" smooth="yes"/>
			<point x="277" y="-69"/>
			<point x="292" y="-56"/>
			<point x="292" y="-22" type="curve" smooth="yes"/>
			<point x="292" y="8"/>
			<point x="282" y="68"/>
			<point x="276" y="96" type="curve" smooth="yes"/>
			<point x="262" y="165" type="line"/>
			<point x="241" y="165" type="line"/>
			<point x="226" y="96" type="line" smooth="yes"/>
			<point x="220" y="68"/>
			<point x="210" y="8"/>
			<point x="210" y="-22" type="curve" smooth="yes"/>
			<point x="210" y="-56"/>
			<point x="226" y="-69"/>
		</contour>
		<contour>
			<point x="214" y="334" type="curve" smooth="yes"/>
			<point x="214" y="276"/>
			<point x="222" y="244"/>
			<point x="241" y="165" type="curve"/>
			<point x="262" y="165" type="line"/>
			<point x="280" y="244"/>
			<point x="288" y="276"/>
			<point x="288" y="334" type="curve" smooth="yes"/>
			<point x="288" y="392"/>
			<point x="280" y="425"/>
			<point x="262" y="502" type="curve"/>
			<point x="241" y="502" type="line"/>
			<point x="222" y="425"/>
			<point x="214" y="392"/>
		</contour>
		<contour>
			<point x="251" y="737" type="curve" smooth="yes"/>
			<point x="226" y="737"/>
			<point x="210" y="724"/>
			<point x="210" y="690" type="curve" smooth="yes"/>
			<point x="210" y="660"/>
			<point x="220" y="599"/>
			<point x="226" y="571" type="curve" smooth="yes"/>
			<point x="241" y="502" type="line"/>
			<point x="262" y="502" type="line"/>
			<point x="276" y="571" type="line" smooth="yes"/>
			<point x="282" y="599"/>
			<point x="292" y="660"/>
			<point x="292" y="690" type="curve" smooth="yes"/>
			<point x="292" y="724"/>
			<point x="277" y="737"/>
		</contour>
		<contour>
			<point x="39" y="165" type="curve" smooth="yes"/>
			<point x="39" y="140"/>
			<point x="51" y="124"/>
			<point x="85" y="124" type="curve" smooth="yes"/>
			<point x="113" y="124"/>
			<point x="154" y="134"/>
			<point x="185" y="140" type="curve" smooth="yes"/>
			<point x="251" y="154" type="line"/>
			<point x="251" y="177" type="line"/>
			<point x="185" y="191" type="line" smooth="yes"/>
			<point x="154" y="197"/>
			<point x="113" y="207"/>
			<point x="85" y="207" type="curve" smooth="yes"/>
			<point x="51" y="207"/>
			<point x="39" y="191"/>
		</contour>
		<contour>
			<point x="464" y="165" type="curve" smooth="yes"/>
			<point x="464" y="191"/>
			<point x="450" y="207"/>
			<point x="416" y="207" type="curve" smooth="yes"/>
			<point x="389" y="207"/>
			<point x="347" y="198"/>
			<point x="316" y="191" type="curve" smooth="yes"/>
			<point x="251" y="177" type="line"/>
			<point x="251" y="154" type="line"/>
			<point x="316" y="140" type="line" smooth="yes"/>
			<point x="347" y="134"/>
			<point x="389" y="124"/>
			<point x="416" y="124" type="curve" smooth="yes"/>
			<point x="450" y="124"/>
			<point x="464" y="140"/>
		</contour>
		<contour>
			<point x="39" y="502" type="curve" smooth="yes"/>
			<point x="39" y="477"/>
			<point x="51" y="462"/>
			<point x="85" y="462" type="curve" smooth="yes"/>
			<point x="113" y="462"/>
			<point x="154" y="470"/>
			<point x="185" y="476" type="curve" smooth="yes"/>
			<point x="251" y="491" type="line"/>
			<point x="251" y="513" type="line"/>
			<point x="185" y="528" type="line" smooth="yes"/>
			<point x="154" y="534"/>
			<point x="113" y="543"/>
			<point x="85" y="543" type="curve" smooth="yes"/>
			<point x="51" y="543"/>
			<point x="39" y="527"/>
		</contour>
		<contour>
			<point x="464" y="502" type="curve" smooth="yes"/>
			<point x="464" y="527"/>
			<point x="450" y="543"/>
			<point x="416" y="543" type="curve" smooth="yes"/>
			<point x="389" y="543"/>
			<point x="347" y="534"/>
			<point x="316" y="528" type="curve" smooth="yes"/>
			<point x="251" y="513" type="line"/>
			<point x="251" y="491" type="line"/>
			<point x="316" y="476" type="line" smooth="yes"/>
			<point x="347" y="470"/>
			<point x="389" y="461"/>
			<point x="416" y="461" type="curve" smooth="yes"/>
			<point x="450" y="461"/>
			<point x="464" y="477"/>
		</contour>
	</outline>
</glyph>
<glyph name="triangularbullet" format="2">
	<unicode hex="2023"/>
	<advance width="298"/>
	<outline>
		<contour>
			<point x="72" y="451" type="line"/>
			<point x="54" y="441" type="line"/>
			<point x="54" y="218" type="line"/>
			<point x="72" y="208" type="line"/>
			<point x="264" y="319" type="line"/>
			<point x="264" y="340" type="line"/>
		</contour>
	</outline>
</glyph>
<glyph name="zero.sups" format="2">
	<unicode hex="2070"/>
	<advance width="358"/>
	<outline>
		<contour>
			<point x="180" y="418" type="curve" smooth="yes"/>
			<point x="251" y="418"/>
			<point x="318" y="479"/>
			<point x="318" y="626" type="curve" smooth="yes"/>
			<point x="318" y="774"/>
			<point x="251" y="835"/>
			<point x="180" y="835" type="curve" smooth="yes"/>
			<point x="108" y="835"/>
			<point x="40" y="774"/>
			<point x="40" y="626" type="curve" smooth="yes"/>
			<point x="40" y="479"/>
			<point x="108" y="418"/>
		</contour>
		<contour>
			<point x="180" y="446" type="curve" smooth="yes"/>
			<point x="144" y="446"/>
			<point x="110" y="479"/>
			<point x="110" y="626" type="curve" smooth="yes"/>
			<point x="110" y="774"/>
			<point x="144" y="806"/>
			<point x="180" y="806" type="curve" smooth="yes"/>
			<point x="215" y="806"/>
			<point x="248" y="773"/>
			<point x="248" y="626" type="curve" smooth="yes"/>
			<point x="248" y="479"/>
			<point x="215" y="446"/>
		</contour>
	</outline>
</glyph>
<glyph name="i.sups" format="2">
	<unicode hex="2071"/>
	<advance width="201"/>
	<outline>
		<contour>
			<point x="71" y="427" type="line"/>
			<point x="136" y="427" type="line"/>
			<point x="136" y="737" type="line"/>
			<point x="127" y="743" type="line"/>
			<point x="21" y="705" type="line"/>
			<point x="21" y="682" type="line"/>
			<point x="71" y="675" type="line"/>
		</contour>
		<contour>
			<point x="23" y="427" type="line"/>
			<point x="182" y="427" type="line"/>
			<point x="182" y="452" type="line"/>
			<point x="115" y="463" type="line"/>
			<point x="93" y="463" type="line"/>
			<point x="23" y="452" type="line"/>
		</contour>
		<contour>
			<point x="104" y="809" type="curve" smooth="yes"/>
			<point x="130" y="809"/>
			<point x="151" y="826"/>
			<point x="151" y="852" type="curve" smooth="yes"/>
			<point x="151" y="878"/>
			<point x="130" y="896"/>
			<point x="104" y="896" type="curve" smooth="yes"/>
			<point x="78" y="896"/>
			<point x="58" y="878"/>
			<point x="58" y="852" type="curve" smooth="yes"/>
			<point x="58" y="826"/>
			<point x="78" y="809"/>
		</contour>
	</outline>
</glyph>
<glyph name="four.sups" format="2">
	<unicode hex="2074"/>
	<advance width="358"/>
	<outline>
		<contour>
			<point x="198" y="427" type="line"/>
			<point x="262" y="427" type="line"/>
			<point x="262" y="831" type="line"/>
			<point x="216" y="831" type="line"/>
			<point x="28" y="575" type="line"/>
			<point x="28" y="531" type="line"/>
			<point x="326" y="531" type="line"/>
			<point x="326" y="585" type="line"/>
			<point x="65" y="585" type="line"/>
			<point x="65" y="597" type="line"/>
			<point x="60" y="572" type="line"/>
			<point x="223" y="803" type="line"/>
			<point x="192" y="777" type="line"/>
			<point x="198" y="777" type="line"/>
			<point x="198" y="568" type="line"/>
			<point x="198" y="550" type="line"/>
		</contour>
	</outline>
</glyph>
<glyph name="five.sups" format="2">
	<unicode hex="2075"/>
	<advance width="358"/>
	<outline>
		<contour>
			<point x="167" y="418" type="curve" smooth="yes"/>
			<point x="253" y="418"/>
			<point x="317" y="467"/>
			<point x="317" y="549" type="curve" smooth="yes"/>
			<point x="317" y="633"/>
			<point x="257" y="674"/>
			<point x="174" y="674" type="curve" smooth="yes"/>
			<point x="144" y="674"/>
			<point x="111" y="669"/>
			<point x="81" y="657" type="curve"/>
			<point x="81" y="648" type="line"/>
			<point x="106" y="648" type="line"/>
			<point x="118" y="804" type="line"/>
			<point x="100" y="761" type="line"/>
			<point x="304" y="761" type="line"/>
			<point x="304" y="825" type="line"/>
			<point x="89" y="825" type="line"/>
			<point x="76" y="639" type="line"/>
			<point x="91" y="628" type="line"/>
			<point x="112" y="634"/>
			<point x="134" y="637"/>
			<point x="154" y="637" type="curve" smooth="yes"/>
			<point x="217" y="637"/>
			<point x="247" y="600"/>
			<point x="247" y="546" type="curve" smooth="yes"/>
			<point x="247" y="487"/>
			<point x="213" y="446"/>
			<point x="161" y="446" type="curve" smooth="yes"/>
			<point x="142" y="446"/>
			<point x="123" y="449"/>
			<point x="101" y="458" type="curve"/>
			<point x="124" y="436" type="line"/>
			<point x="113" y="490" type="line" smooth="yes"/>
			<point x="105" y="525"/>
			<point x="94" y="536"/>
			<point x="76" y="536" type="curve" smooth="yes"/>
			<point x="59" y="536"/>
			<point x="46" y="527"/>
			<point x="41" y="507" type="curve"/>
			<point x="49" y="454"/>
			<point x="93" y="418"/>
		</contour>
	</outline>
</glyph>
<glyph name="six.sups" format="2">
	<unicode hex="2076"/>
	<advance width="358"/>
	<outline>
		<contour>
			<point x="188" y="417" type="curve" smooth="yes"/>
			<point x="262" y="417"/>
			<point x="324" y="464"/>
			<point x="324" y="551" type="curve" smooth="yes"/>
			<point x="324" y="626"/>
			<point x="279" y="671"/>
			<point x="205" y="671" type="curve" smooth="yes"/>
			<point x="158" y="671"/>
			<point x="120" y="650"/>
			<point x="88" y="603" type="curve"/>
			<point x="83" y="603" type="line"/>
			<point x="97" y="590" type="line"/>
			<point x="125" y="619"/>
			<point x="155" y="632"/>
			<point x="185" y="632" type="curve" smooth="yes"/>
			<point x="227" y="632"/>
			<point x="257" y="608"/>
			<point x="257" y="544" type="curve" smooth="yes"/>
			<point x="257" y="477"/>
			<point x="229" y="445"/>
			<point x="189" y="445" type="curve" smooth="yes"/>
			<point x="141" y="445"/>
			<point x="113" y="493"/>
			<point x="113" y="599" type="curve" smooth="yes"/>
			<point x="113" y="704"/>
			<point x="168" y="785"/>
			<point x="294" y="812" type="curve"/>
			<point x="291" y="836" type="line"/>
			<point x="131" y="824"/>
			<point x="42" y="706"/>
			<point x="42" y="587" type="curve" smooth="yes"/>
			<point x="42" y="485"/>
			<point x="98" y="417"/>
		</contour>
	</outline>
</glyph>
<glyph name="seven.sups" format="2">
	<unicode hex="2077"/>
	<advance width="358"/>
	<outline>
		<contour>
			<point x="101" y="427" type="line"/>
			<point x="165" y="427" type="line"/>
			<point x="317" y="788" type="line"/>
			<point x="317" y="825" type="line"/>
			<point x="48" y="825" type="line"/>
			<point x="48" y="761" type="line"/>
			<point x="276" y="761" type="line"/>
			<point x="283" y="754" type="line"/>
			<point x="283" y="787" type="line"/>
			<point x="95" y="433" type="line"/>
		</contour>
	</outline>
</glyph>
<glyph name="nine.sups" format="2">
	<unicode hex="2079"/>
	<advance width="358"/>
	<outline>
		<contour>
			<point x="77" y="417" type="line"/>
			<point x="228" y="441"/>
			<point x="316" y="537"/>
			<point x="316" y="663" type="curve" smooth="yes"/>
			<point x="316" y="770"/>
			<point x="263" y="835"/>
			<point x="175" y="835" type="curve" smooth="yes"/>
			<point x="97" y="835"/>
			<point x="35" y="781"/>
			<point x="35" y="703" type="curve" smooth="yes"/>
			<point x="35" y="627"/>
			<point x="90" y="583"/>
			<point x="162" y="583" type="curve" smooth="yes"/>
			<point x="213" y="583"/>
			<point x="252" y="606"/>
			<point x="277" y="654" type="curve"/>
			<point x="284" y="654" type="line"/>
			<point x="268" y="666" type="line"/>
			<point x="243" y="633"/>
			<point x="213" y="622"/>
			<point x="183" y="622" type="curve" smooth="yes"/>
			<point x="137" y="622"/>
			<point x="103" y="646"/>
			<point x="103" y="711" type="curve" smooth="yes"/>
			<point x="103" y="777"/>
			<point x="136" y="806"/>
			<point x="173" y="806" type="curve" smooth="yes"/>
			<point x="218" y="806"/>
			<point x="245" y="764"/>
			<point x="245" y="668" type="curve" smooth="yes"/>
			<point x="245" y="551"/>
			<point x="202" y="481"/>
			<point x="72" y="441" type="curve"/>
		</contour>
	</outline>
</glyph>
<glyph name="parenleft.sups" format="2">
	<unicode hex="207D"/>
	<advance width="241"/>
	<outline>
		<contour>
			<point x="114" y="600" type="curve" smooth="yes"/>
			<point x="114" y="692"/>
			<point x="139" y="773"/>
			<point x="209" y="869" type="curve"/>
			<point x="191" y="885" type="line"/>
			<point x="102" y="806"/>
			<point x="53" y="710"/>
			<point x="53" y="600" type="curve" smooth="yes"/>
			<point x="53" y="489"/>
			<point x="102" y="394"/>
			<point x="191" y="316" type="curve"/>
			<point x="209" y="331" type="line"/>
			<point x="139" y="427"/>
			<point x="114" y="508"/>
		</contour>
	</outline>
</glyph>
<glyph name="n.sups" format="2">
	<unicode hex="207F"/>
	<advance width="407"/>
	<outline>
		<contour>
			<point x="73" y="427" type="line"/>
			<point x="139" y="427" type="line"/>
			<point x="139" y="664" type="line"/>
			<point x="139" y="665" type="line"/>
			<point x="132" y="737" type="line"/>
			<point x="122" y="743" type="line"/>
			<point x="22" y="705" type="line"/>
			<point x="22" y="682" type="line"/>
			<point x="73" y="675" type="line"/>
		</contour>
		<contour>
			<point x="277" y="427" type="line"/>
			<point x="343" y="427" type="line"/>
			<point x="343" y="632" type="line" smooth="yes"/>
			<point x="343" y="709"/>
			<point x="311" y="743"/>
			<point x="253" y="743" type="curve" smooth="yes"/>
			<point x="208" y="743"/>
			<point x="168" y="720"/>
			<point x="133" y="676" type="curve"/>
			<point x="116" y="676" type="line"/>
			<point x="129" y="644" type="line"/>
			<point x="166" y="677"/>
			<point x="195" y="694"/>
			<point x="228" y="694" type="curve" smooth="yes"/>
			<point x="262" y="694"/>
			<point x="277" y="675"/>
			<point x="277" y="622" type="curve" smooth="yes"/>
		</contour>
		<contour>
			<point x="26" y="427" type="line"/>
			<point x="183" y="427" type="line"/>
			<point x="183" y="452" type="line"/>
			<point x="117" y="463" type="line"/>
			<point x="96" y="463" type="line"/>
			<point x="26" y="452" type="line"/>
		</contour>
		<contour>
			<point x="230" y="427" type="line"/>
			<point x="387" y="427" type="line"/>
			<point x="387" y="452" type="line"/>
			<point x="321" y="463" type="line"/>
			<point x="300" y="463" type="line"/>
			<point x="230" y="452" type="line"/>
		</contour>
	</outline>
</glyph>
<glyph name="hryvnia" format="2">
	<unicode hex="20B4"/>
	<advance width="492"/>
	<outline>
		<contour>
			<point x="23" y="243" type="line"/>
			<point x="468" y="243" type="line"/>
			<point x="468" y="285" type="line"/>
			<point x="23" y="285" type="line"/>
		</contour>
		<contour>
			<point x="23" y="359" type="line"/>
			<point x="468" y="359" type="line"/>
			<point x="468" y="401" type="line"/>
			<point x="23" y="401" type="line"/>
		</contour>
		<contour>
			<point x="247" y="-13" type="curve" smooth="yes"/>
			<point x="357" y="-13"/>
			<point x="427" y="45"/>
			<point x="434" y="133" type="curve"/>
			<point x="426" y="152"/>
			<point x="412" y="162"/>
			<point x="392" y="162" type="curve" smooth="yes"/>
			<point x="369" y="162"/>
			<point x="349" y="147"/>
			<point x="338" y="100" type="curve" smooth="yes"/>
			<point x="321" y="24" type="line"/>
			<point x="372" y="55" type="line"/>
			<point x="328" y="36"/>
			<point x="294" y="28"/>
			<point x="257" y="28" type="curve" smooth="yes"/>
			<point x="190" y="28"/>
			<point x="140" y="66"/>
			<point x="140" y="144" type="curve" smooth="yes"/>
			<point x="140" y="198"/>
			<point x="166" y="232"/>
			<point x="215" y="268" type="curve" smooth="yes"/>
			<point x="350" y="366" type="line" smooth="yes"/>
			<point x="414" y="413"/>
			<point x="436" y="465"/>
			<point x="436" y="511" type="curve" smooth="yes"/>
			<point x="436" y="595"/>
			<point x="374" y="660"/>
			<point x="265" y="660" type="curve" smooth="yes"/>
			<point x="158" y="660"/>
			<point x="84" y="594"/>
			<point x="77" y="516" type="curve"/>
			<point x="85" y="495"/>
			<point x="100" y="485"/>
			<point x="119" y="485" type="curve" smooth="yes"/>
			<point x="143" y="485"/>
			<point x="164" y="501"/>
			<point x="176" y="551" type="curve" smooth="yes"/>
			<point x="194" y="630" type="line"/>
			<point x="147" y="592" type="line"/>
			<point x="188" y="613"/>
			<point x="223" y="619"/>
			<point x="254" y="619" type="curve" smooth="yes"/>
			<point x="316" y="619"/>
			<point x="357" y="586"/>
			<point x="357" y="505" type="curve" smooth="yes"/>
			<point x="357" y="458"/>
			<point x="338" y="419"/>
			<point x="283" y="379" type="curve" smooth="yes"/>
			<point x="149" y="284" type="line" smooth="yes"/>
			<point x="86" y="238"/>
			<point x="60" y="190"/>
			<point x="60" y="136" type="curve" smooth="yes"/>
			<point x="60" y="52"/>
			<point x="126" y="-13"/>
		</contour>
	</outline>
</glyph>
<glyph name="servicemark" format="2">
	<unicode hex="2120"/>
	<advance width="661"/>
	<outline>
		<contour>
			<point x="117" y="367" type="curve" smooth="yes"/>
			<point x="190" y="367"/>
			<point x="232" y="403"/>
			<point x="232" y="458" type="curve" smooth="yes"/>
			<point x="232" y="500"/>
			<point x="206" y="524"/>
			<point x="152" y="548" type="curve" smooth="yes"/>
			<point x="130" y="558" type="line" smooth="yes"/>
			<point x="102" y="571"/>
			<point x="82" y="587"/>
			<point x="82" y="611" type="curve" smooth="yes"/>
			<point x="82" y="640"/>
			<point x="105" y="655"/>
			<point x="134" y="655" type="curve" smooth="yes"/>
			<point x="154" y="655"/>
			<point x="174" y="648"/>
			<point x="195" y="636" type="curve"/>
			<point x="161" y="666" type="line"/>
			<point x="181" y="591" type="line"/>
			<point x="211" y="591" type="line"/>
			<point x="214" y="654" type="line"/>
			<point x="195" y="669"/>
			<point x="164" y="677"/>
			<point x="133" y="677" type="curve" smooth="yes"/>
			<point x="69" y="677"/>
			<point x="28" y="640"/>
			<point x="28" y="588" type="curve" smooth="yes"/>
			<point x="28" y="542"/>
			<point x="61" y="521"/>
			<point x="109" y="497" type="curve" smooth="yes"/>
			<point x="130" y="488" type="line" smooth="yes"/>
			<point x="159" y="474"/>
			<point x="174" y="457"/>
			<point x="174" y="436" type="curve" smooth="yes"/>
			<point x="174" y="405"/>
			<point x="151" y="390"/>
			<point x="116" y="390" type="curve" smooth="yes"/>
			<point x="93" y="390"/>
			<point x="72" y="396"/>
			<point x="45" y="409" type="curve"/>
			<point x="76" y="382" type="line"/>
			<point x="58" y="460" type="line"/>
			<point x="27" y="460" type="line"/>
			<point x="24" y="391" type="line"/>
			<point x="49" y="375"/>
			<point x="85" y="367"/>
		</contour>
		<contour>
			<point x="261" y="375" type="line"/>
			<point x="364" y="375" type="line"/>
			<point x="364" y="398" type="line"/>
			<point x="319" y="405" type="line"/>
			<point x="306" y="405" type="line"/>
			<point x="261" y="398" type="line"/>
		</contour>
		<contour>
			<point x="299" y="375" type="line"/>
			<point x="326" y="375" type="line"/>
			<point x="326" y="669" type="line"/>
			<point x="299" y="669" type="line"/>
		</contour>
		<contour>
			<point x="421" y="375" type="line"/>
			<point x="439" y="375" type="line"/>
			<point x="555" y="647" type="line"/>
			<point x="565" y="647" type="line"/>
			<point x="565" y="670" type="line"/>
			<point x="539" y="670" type="line"/>
			<point x="442" y="447" type="line"/>
			<point x="458" y="446" type="line"/>
			<point x="358" y="670" type="line"/>
			<point x="265" y="670" type="line"/>
			<point x="265" y="647" type="line"/>
			<point x="306" y="642" type="line"/>
			<point x="306" y="630" type="line"/>
			<point x="312" y="630" type="line"/>
		</contour>
		<contour>
			<point x="501" y="375" type="line"/>
			<point x="634" y="375" type="line"/>
			<point x="634" y="398" type="line"/>
			<point x="574" y="406" type="line"/>
			<point x="560" y="406" type="line"/>
			<point x="501" y="398" type="line"/>
		</contour>
		<contour>
			<point x="536" y="375" type="line"/>
			<point x="599" y="375" type="line"/>
			<point x="599" y="670" type="line"/>
			<point x="547" y="670" type="line"/>
			<point x="536" y="632" type="line"/>
		</contour>
		<contour>
			<point x="559" y="640" type="line"/>
			<point x="574" y="640" type="line"/>
			<point x="634" y="647" type="line"/>
			<point x="634" y="670" type="line"/>
			<point x="559" y="670" type="line"/>
		</contour>
	</outline>
</glyph>
<glyph name="summation" format="2">
	<unicode hex="2211"/>
	<advance width="554"/>
	<outline>
		<contour>
			<point x="462" y="492" type="line"/>
			<point x="510" y="492" type="line"/>
			<point x="501" y="670" type="line"/>
			<point x="69" y="670" type="line"/>
			<point x="69" y="627" type="line"/>
			<point x="469" y="627" type="line"/>
			<point x="417" y="667" type="line"/>
		</contour>
		<contour>
			<point x="26" y="-129" type="line"/>
			<point x="520" y="-129" type="line"/>
			<point x="530" y="79" type="line"/>
			<point x="481" y="79" type="line"/>
			<point x="438" y="-94" type="line"/>
			<point x="488" y="-52" type="line"/>
			<point x="79" y="-52" type="line"/>
			<point x="86" y="-75" type="line"/>
			<point x="344" y="289" type="line"/>
			<point x="111" y="670" type="line"/>
			<point x="29" y="670" type="line"/>
			<point x="29" y="632" type="line"/>
			<point x="284" y="220" type="line"/>
			<point x="301" y="309" type="line"/>
			<point x="26" y="-79" type="line"/>
		</contour>
	</outline>
</glyph>
<glyph name="minus" format="2">
	<unicode hex="2212"/>
	<advance width="522"/>
	<outline>
		<contour>
			<point x="493" y="305" type="line"/>
			<point x="493" y="355" type="line"/>
			<point x="29" y="355" type="line"/>
			<point x="29" y="305" type="line"/>
		</contour>
	</outline>
</glyph>
<glyph name="infinity" format="2">
	<unicode hex="221E"/>
	<advance width="772"/>
	<outline>
		<contour>
			<point x="359" y="293" type="curve" smooth="yes"/>
			<point x="413" y="223"/>
			<point x="473" y="154"/>
			<point x="566" y="154" type="curve" smooth="yes"/>
			<point x="665" y="154"/>
			<point x="733" y="232"/>
			<point x="733" y="335" type="curve" smooth="yes"/>
			<point x="733" y="435"/>
			<point x="668" y="505"/>
			<point x="581" y="505" type="curve" smooth="yes"/>
			<point x="505" y="505"/>
			<point x="442" y="458"/>
			<point x="386" y="350" type="curve"/>
			<point x="398" y="322" type="line"/>
			<point x="461" y="406"/>
			<point x="496" y="443"/>
			<point x="572" y="443" type="curve" smooth="yes"/>
			<point x="638" y="443"/>
			<point x="688" y="398"/>
			<point x="688" y="330" type="curve" smooth="yes"/>
			<point x="688" y="272"/>
			<point x="650" y="229"/>
			<point x="583" y="229" type="curve" smooth="yes"/>
			<point x="518" y="229"/>
			<point x="467" y="293"/>
			<point x="413" y="365" type="curve" smooth="yes"/>
			<point x="359" y="435"/>
			<point x="299" y="504"/>
			<point x="206" y="504" type="curve" smooth="yes"/>
			<point x="107" y="504"/>
			<point x="40" y="426"/>
			<point x="40" y="323" type="curve" smooth="yes"/>
			<point x="40" y="223"/>
			<point x="104" y="153"/>
			<point x="191" y="153" type="curve" smooth="yes"/>
			<point x="267" y="153"/>
			<point x="330" y="200"/>
			<point x="387" y="308" type="curve"/>
			<point x="374" y="335" type="line"/>
			<point x="311" y="253"/>
			<point x="276" y="215"/>
			<point x="200" y="215" type="curve" smooth="yes"/>
			<point x="134" y="215"/>
			<point x="84" y="260"/>
			<point x="84" y="328" type="curve" smooth="yes"/>
			<point x="84" y="386"/>
			<point x="122" y="429"/>
			<point x="189" y="429" type="curve" smooth="yes"/>
			<point x="255" y="429"/>
			<point x="305" y="365"/>
		</contour>
	</outline>
</glyph>
<glyph name="triangleblackleft" format="2">
	<unicode hex="25C0"/>
	<advance width="582"/>
	<outline>
		<contour>
			<point x="489" y="-1" type="line"/>
			<point x="500" y="5" type="line"/>
			<point x="500" y="521" type="line"/>
			<point x="489" y="528" type="line"/>
			<point x="42" y="270" type="line"/>
			<point x="42" y="256" type="line"/>
		</contour>
	</outline>
</glyph>
<glyph name="eighthnote" format="2">
	<unicode hex="266A"/>
	<advance width="504"/>
	<outline>
		<contour>
			<point x="36" y="58" type="curve" smooth="yes"/>
			<point x="36" y="9"/>
			<point x="75" y="-13"/>
			<point x="127" y="-13" type="curve" smooth="yes"/>
			<point x="221" y="-13"/>
			<point x="273" y="53"/>
			<point x="273" y="163" type="curve" smooth="yes"/>
			<point x="273" y="636" type="line"/>
			<point x="254" y="585" type="line"/>
			<point x="297" y="549"/>
			<point x="323" y="531"/>
			<point x="350" y="506" type="curve" smooth="yes"/>
			<point x="398" y="462"/>
			<point x="412" y="417"/>
			<point x="412" y="369" type="curve" smooth="yes"/>
			<point x="412" y="328"/>
			<point x="403" y="291"/>
			<point x="389" y="259" type="curve"/>
			<point x="408" y="251" type="line"/>
			<point x="433" y="287"/>
			<point x="469" y="355"/>
			<point x="469" y="427" type="curve" smooth="yes"/>
			<point x="469" y="487"/>
			<point x="443" y="542"/>
			<point x="388" y="587" type="curve" smooth="yes"/>
			<point x="298" y="660"/>
			<point x="275" y="690"/>
			<point x="264" y="748" type="curve"/>
			<point x="236" y="748" type="line"/>
			<point x="236" y="107" type="line"/>
			<point x="253" y="141" type="line"/>
			<point x="230" y="154"/>
			<point x="203" y="160"/>
			<point x="172" y="160" type="curve" smooth="yes"/>
			<point x="91" y="160"/>
			<point x="36" y="117"/>
		</contour>
	</outline>
</glyph>
<glyph name="check" format="2">
	<unicode hex="2713"/>
	<advance width="604"/>
	<outline>
		<contour>
			<point x="61" y="347" type="line"/>
			<point x="125" y="235"/>
			<point x="180" y="114"/>
			<point x="229" y="-4" type="curve"/>
			<point x="271" y="0" type="line"/>
			<point x="358" y="267"/>
			<point x="460" y="530"/>
			<point x="584" y="784" type="curve"/>
			<point x="549" y="801" type="line"/>
			<point x="426" y="558"/>
			<point x="313" y="312"/>
			<point x="236" y="58" type="curve"/>
			<point x="269" y="58" type="line"/>
			<point x="230" y="176"/>
			<point x="181" y="282"/>
			<point x="124" y="387" type="curve"/>
		</contour>
	</outline>
</glyph>
<glyph name="crossmark" format="2">
	<unicode hex="274C"/>
	<advance width="669"/>
	<outline>
		<contour>
			<point x="610" y="2" type="line"/>
			<point x="667" y="60" type="line"/>
			<point x="60" y="667" type="line"/>
			<point x="2" y="610" type="line"/>
		</contour>
		<contour>
			<point x="667" y="610" type="line"/>
			<point x="610" y="667" type="line"/>
			<point x="2" y="60" type="line"/>
			<point x="60" y="2" type="line"/>
		</contour>
	</outline>
</glyph>
<glyph name="commercemark" format="2">
	<unicode hex="1F16A"/>
	<advance width="698"/>
	<outline>
		<contour>
			<point x="576" y="367" type="curve" smooth="yes"/>
			<point x="611" y="367"/>
			<point x="642" y="375"/>
			<point x="664" y="389" type="curve"/>
			<point x="664" y="456" type="line"/>
			<point x="635" y="456" type="line"/>
			<point x="612" y="379" type="line"/>
			<point x="645" y="406" type="line"/>
			<point x="624" y="395"/>
			<point x="604" y="389"/>
			<point x="583" y="389" type="curve" smooth="yes"/>
			<point x="526" y="389"/>
			<point x="485" y="434"/>
			<point x="485" y="523" type="curve" smooth="yes"/>
			<point x="485" y="611"/>
			<point x="531" y="655"/>
			<point x="581" y="655" type="curve" smooth="yes"/>
			<point x="600" y="655"/>
			<point x="620" y="650"/>
			<point x="640" y="639" type="curve"/>
			<point x="607" y="665" type="line"/>
			<point x="630" y="589" type="line"/>
			<point x="659" y="589" type="line"/>
			<point x="659" y="655" type="line"/>
			<point x="636" y="671"/>
			<point x="603" y="677"/>
			<point x="577" y="677" type="curve" smooth="yes"/>
			<point x="491" y="677"/>
			<point x="417" y="622"/>
			<point x="417" y="523" type="curve" smooth="yes"/>
			<point x="417" y="419"/>
			<point x="486" y="367"/>
		</contour>
		<contour>
			<point x="14" y="375" type="line"/>
			<point x="118" y="375" type="line"/>
			<point x="118" y="398" type="line"/>
			<point x="73" y="405" type="line"/>
			<point x="58" y="405" type="line"/>
			<point x="14" y="398" type="line"/>
		</contour>
		<contour>
			<point x="52" y="375" type="line"/>
			<point x="79" y="375" type="line"/>
			<point x="79" y="669" type="line"/>
			<point x="52" y="669" type="line"/>
		</contour>
		<contour>
			<point x="175" y="375" type="line"/>
			<point x="192" y="375" type="line"/>
			<point x="309" y="647" type="line"/>
			<point x="319" y="647" type="line"/>
			<point x="319" y="670" type="line"/>
			<point x="291" y="670" type="line"/>
			<point x="195" y="447" type="line"/>
			<point x="210" y="446" type="line"/>
			<point x="111" y="670" type="line"/>
			<point x="19" y="670" type="line"/>
			<point x="19" y="647" type="line"/>
			<point x="59" y="642" type="line"/>
			<point x="59" y="630" type="line"/>
			<point x="66" y="630" type="line"/>
		</contour>
		<contour>
			<point x="255" y="375" type="line"/>
			<point x="388" y="375" type="line"/>
			<point x="388" y="398" type="line"/>
			<point x="328" y="406" type="line"/>
			<point x="313" y="406" type="line"/>
			<point x="255" y="398" type="line"/>
		</contour>
		<contour>
			<point x="288" y="375" type="line"/>
			<point x="351" y="375" type="line"/>
			<point x="351" y="670" type="line"/>
			<point x="301" y="670" type="line"/>
			<point x="288" y="632" type="line"/>
		</contour>
		<contour>
			<point x="313" y="640" type="line"/>
			<point x="328" y="640" type="line"/>
			<point x="388" y="647" type="line"/>
			<point x="388" y="670" type="line"/>
			<point x="313" y="670" type="line"/>
		</contour>
	</outline>
</glyph>
<glyph name="A.sc" format="2">
	<advance width="582"/>
	<outline>
		<contour>
			<point x="9" y="0" type="line"/>
			<point x="205" y="0" type="line"/>
			<point x="205" y="33" type="line"/>
			<point x="111" y="46" type="line"/>
			<point x="93" y="46" type="line"/>
			<point x="9" y="33" type="line"/>
		</contour>
		<contour>
			<point x="65" y="0" type="line"/>
			<point x="105" y="0" type="line"/>
			<point x="273" y="457" type="line"/>
			<point x="278" y="470" type="line"/>
			<point x="258" y="470" type="line"/>
			<point x="428" y="0" type="line"/>
			<point x="517" y="0" type="line"/>
			<point x="317" y="549" type="line"/>
			<point x="266" y="549" type="line"/>
		</contour>
		<contour>
			<point x="154" y="175" type="line"/>
			<point x="403" y="175" type="line"/>
			<point x="403" y="214" type="line"/>
			<point x="154" y="214" type="line"/>
		</contour>
		<contour>
			<point x="332" y="0" type="line"/>
			<point x="565" y="0" type="line"/>
			<point x="565" y="33" type="line"/>
			<point x="464" y="46" type="line"/>
			<point x="439" y="46" type="line"/>
			<point x="332" y="33" type="line"/>
		</contour>
	</outline>
	<anchor name="aboveUC" x="292" y="565"/>
	<anchor name="belowLC" x="270" y="-20"/>
	<anchor name="ogonek" x="481" y="0"/>
</glyph>
<glyph name="AE.sc" format="2">
	<advance width="814"/>
	<outline>
		<contour>
			<point x="396" y="0" type="curve"/>
			<point x="486" y="0" type="line"/>
			<point x="484" y="80"/>
			<point x="484" y="170"/>
			<point x="484" y="258" type="curve" smooth="yes"/>
			<point x="484" y="296" type="line" smooth="yes"/>
			<point x="484" y="378"/>
			<point x="484" y="467"/>
			<point x="486" y="545" type="curve"/>
			<point x="399" y="545" type="line"/>
			<point x="399" y="227" type="line" smooth="yes"/>
			<point x="399" y="134"/>
			<point x="399" y="61"/>
		</contour>
		<contour>
			<point x="9" y="0" type="line"/>
			<point x="205" y="0" type="line"/>
			<point x="205" y="33" type="line"/>
			<point x="118" y="46" type="line"/>
			<point x="100" y="46" type="line"/>
			<point x="9" y="33" type="line"/>
		</contour>
		<contour>
			<point x="622" y="183" type="line"/>
			<point x="656" y="183" type="line"/>
			<point x="656" y="376" type="line"/>
			<point x="622" y="376" type="line"/>
			<point x="604" y="290" type="line"/>
			<point x="604" y="274" type="line"/>
		</contour>
		<contour>
			<point x="708" y="393" type="line"/>
			<point x="752" y="393" type="line"/>
			<point x="745" y="545" type="line"/>
			<point x="441" y="545" type="line"/>
			<point x="441" y="504" type="line"/>
			<point x="680" y="504" type="line"/>
		</contour>
		<contour>
			<point x="441" y="0" type="line"/>
			<point x="762" y="0" type="line"/>
			<point x="769" y="154" type="line"/>
			<point x="724" y="154" type="line"/>
			<point x="697" y="41" type="line"/>
			<point x="441" y="41" type="line"/>
		</contour>
		<contour>
			<point x="284" y="512" type="line"/>
			<point x="379" y="499" type="line"/>
			<point x="438" y="499" type="line"/>
			<point x="438" y="545" type="line"/>
			<point x="284" y="545" type="line"/>
		</contour>
		<contour>
			<point x="326" y="0" type="line"/>
			<point x="445" y="0" type="line"/>
			<point x="445" y="46" type="line"/>
			<point x="431" y="46" type="line"/>
			<point x="326" y="33" type="line"/>
		</contour>
		<contour>
			<point x="56" y="0" type="line"/>
			<point x="104" y="0" type="line"/>
			<point x="226" y="213" type="line"/>
			<point x="418" y="545" type="line"/>
			<point x="374" y="545" type="line"/>
		</contour>
		<contour>
			<point x="203" y="194" type="line"/>
			<point x="441" y="194" type="line"/>
			<point x="441" y="231" type="line"/>
			<point x="203" y="231" type="line"/>
		</contour>
		<contour>
			<point x="441" y="260" type="line"/>
			<point x="630" y="260" type="line"/>
			<point x="630" y="299" type="line"/>
			<point x="441" y="299" type="line"/>
		</contour>
	</outline>
	<anchor name="aboveUC" x="536" y="565"/>
</glyph>
<glyph name="B.sc" format="2">
	<advance width="571"/>
	<outline>
		<contour>
			<point x="53" y="0" type="line"/>
			<point x="177" y="0" type="line"/>
			<point x="177" y="46" type="line"/>
			<point x="163" y="46" type="line"/>
			<point x="53" y="33" type="line"/>
		</contour>
		<contour>
			<point x="129" y="0" type="curve"/>
			<point x="219" y="0" type="line"/>
			<point x="216" y="80"/>
			<point x="216" y="170"/>
			<point x="216" y="259" type="curve" smooth="yes"/>
			<point x="216" y="294" type="line" smooth="yes"/>
			<point x="216" y="378"/>
			<point x="216" y="467"/>
			<point x="219" y="545" type="curve"/>
			<point x="129" y="545" type="line"/>
			<point x="132" y="465"/>
			<point x="132" y="377"/>
			<point x="132" y="293" type="curve" smooth="yes"/>
			<point x="132" y="254" type="line" smooth="yes"/>
			<point x="132" y="168"/>
			<point x="132" y="78"/>
		</contour>
		<contour>
			<point x="163" y="499" type="line"/>
			<point x="177" y="499" type="line"/>
			<point x="177" y="545" type="line"/>
			<point x="53" y="545" type="line"/>
			<point x="53" y="512" type="line"/>
		</contour>
		<contour>
			<point x="172" y="0" type="line"/>
			<point x="284" y="0" type="line" smooth="yes"/>
			<point x="451" y="0"/>
			<point x="517" y="74"/>
			<point x="517" y="151" type="curve" smooth="yes"/>
			<point x="517" y="223"/>
			<point x="458" y="277"/>
			<point x="318" y="288" type="curve"/>
			<point x="319" y="280" type="line"/>
			<point x="439" y="292"/>
			<point x="489" y="345"/>
			<point x="489" y="411" type="curve" smooth="yes"/>
			<point x="489" y="489"/>
			<point x="419" y="545"/>
			<point x="300" y="545" type="curve" smooth="yes"/>
			<point x="172" y="545" type="line"/>
			<point x="172" y="507" type="line"/>
			<point x="275" y="507" type="line" smooth="yes"/>
			<point x="358" y="507"/>
			<point x="405" y="483"/>
			<point x="405" y="405" type="curve" smooth="yes"/>
			<point x="405" y="328"/>
			<point x="361" y="301"/>
			<point x="258" y="301" type="curve" smooth="yes"/>
			<point x="172" y="301" type="line"/>
			<point x="172" y="262" type="line"/>
			<point x="260" y="262" type="line" smooth="yes"/>
			<point x="376" y="262"/>
			<point x="427" y="226"/>
			<point x="427" y="150" type="curve" smooth="yes"/>
			<point x="427" y="79"/>
			<point x="374" y="38"/>
			<point x="263" y="38" type="curve" smooth="yes"/>
			<point x="172" y="38" type="line"/>
		</contour>
	</outline>
	<anchor name="aboveUC" x="283" y="565"/>
	<anchor name="belowLC" x="291" y="-20"/>
</glyph>
